OpenSans-CondensedMedium.ufo
<glyph name="exclam" format="2">
  <advance width="481"/>
  <unicode hex="0021"/>
  <outline>
    <contour>
      <point x="303" y="412" type="line"/>
      <point x="340" y="1462" type="line"/>
      <point x="139" y="1462" type="line"/>
      <point x="178" y="412" type="line"/>
    </contour>
    <contour>
      <point x="131" y="113" type="curve" smooth="yes"/>
      <point x="131" y="27"/>
      <point x="170" y="-18"/>
      <point x="242" y="-18" type="curve" smooth="yes"/>
      <point x="305" y="-18"/>
      <point x="352" y="23"/>
      <point x="352" y="113" type="curve" smooth="yes"/>
      <point x="352" y="205"/>
      <point x="309" y="244"/>
      <point x="242" y="244" type="curve" smooth="yes"/>
      <point x="168" y="244"/>
      <point x="131" y="199"/>
    </contour>
  </outline>
</glyph>
<glyph name="quotedbl" format="2">
  <advance width="776"/>
  <unicode hex="0022"/>
  <outline>
    <contour>
      <point x="311" y="1462" type="line"/>
      <point x="119" y="1462" type="line"/>
      <point x="154" y="934" type="line"/>
      <point x="279" y="934" type="line"/>
    </contour>
    <contour>
      <point x="659" y="1462" type="line"/>
      <point x="467" y="1462" type="line"/>
      <point x="502" y="934" type="line"/>
      <point x="627" y="934" type="line"/>
    </contour>
  </outline>
</glyph>
<glyph name="numbersign" format="2">
  <advance width="942"/>
  <unicode hex="0023"/>
  <outline>
    <contour>
      <point x="723" y="920" type="line"/>
      <point x="907" y="920" type="line"/>
      <point x="907" y="1051" type="line"/>
      <point x="737" y="1051" type="line"/>
      <point x="788" y="1462" type="line"/>
      <point x="664" y="1462" type="line"/>
      <point x="612" y="1051" type="line"/>
      <point x="410" y="1051" type="line"/>
      <point x="461" y="1462" type="line"/>
      <point x="332" y="1462" type="line"/>
      <point x="283" y="1051" type="line"/>
      <point x="86" y="1051" type="line"/>
      <point x="86" y="920" type="line"/>
      <point x="266" y="920" type="line"/>
      <point x="225" y="578" type="line"/>
      <point x="39" y="578" type="line"/>
      <point x="39" y="444" type="line"/>
      <point x="209" y="444" type="line"/>
      <point x="156" y="0" type="line"/>
      <point x="281" y="0" type="line"/>
      <point x="334" y="444" type="line"/>
      <point x="537" y="444" type="line"/>
      <point x="481" y="0" type="line"/>
      <point x="610" y="0" type="line"/>
      <point x="666" y="444" type="line"/>
      <point x="860" y="444" type="line"/>
      <point x="860" y="578" type="line"/>
      <point x="682" y="578" type="line"/>
    </contour>
    <contour>
      <point x="352" y="578" type="line"/>
      <point x="393" y="920" type="line"/>
      <point x="596" y="920" type="line"/>
      <point x="553" y="578" type="line"/>
    </contour>
  </outline>
</glyph>
<glyph name="dollar" format="2">
  <advance width="879"/>
  <unicode hex="0024"/>
  <outline>
    <contour>
      <point x="389" y="-119" type="line"/>
      <point x="489" y="-119" type="line"/>
      <point x="489" y="115" type="line"/>
      <point x="686" y="147"/>
      <point x="799" y="276"/>
      <point x="799" y="455" type="curve" smooth="yes"/>
      <point x="799" y="631"/>
      <point x="696" y="717"/>
      <point x="489" y="803" type="curve"/>
      <point x="489" y="1243" type="line"/>
      <point x="580" y="1237"/>
      <point x="653" y="1219"/>
      <point x="725" y="1182" type="curve"/>
      <point x="772" y="1315" type="line"/>
      <point x="686" y="1358"/>
      <point x="594" y="1380"/>
      <point x="489" y="1386" type="curve"/>
      <point x="489" y="1556" type="line"/>
      <point x="389" y="1556" type="line"/>
      <point x="389" y="1382" type="line"/>
      <point x="205" y="1364"/>
      <point x="82" y="1235"/>
      <point x="82" y="1047" type="curve" smooth="yes"/>
      <point x="82" y="866"/>
      <point x="168" y="774"/>
      <point x="389" y="686" type="curve"/>
      <point x="389" y="246" type="line"/>
      <point x="272" y="250"/>
      <point x="160" y="287"/>
      <point x="84" y="334" type="curve"/>
      <point x="84" y="174" type="line"/>
      <point x="160" y="135"/>
      <point x="266" y="109"/>
      <point x="389" y="106" type="curve"/>
    </contour>
    <contour>
      <point x="489" y="254" type="curve"/>
      <point x="489" y="645" type="line"/>
      <point x="604" y="596"/>
      <point x="653" y="541"/>
      <point x="653" y="444" type="curve" smooth="yes"/>
      <point x="653" y="350"/>
      <point x="598" y="276"/>
    </contour>
    <contour>
      <point x="389" y="846" type="line"/>
      <point x="270" y="899"/>
      <point x="229" y="944"/>
      <point x="229" y="1051" type="curve"/>
      <point x="229" y="1151"/>
      <point x="287" y="1225"/>
      <point x="389" y="1241" type="curve"/>
    </contour>
  </outline>
</glyph>
<glyph name="ampersand" format="2">
  <advance width="977"/>
  <unicode hex="0026"/>
  <outline>
    <contour>
      <point x="422" y="1483" type="curve" smooth="yes"/>
      <point x="266" y="1483"/>
      <point x="168" y="1368"/>
      <point x="168" y="1182" type="curve" smooth="yes"/>
      <point x="168" y="1032"/>
      <point x="203" y="934"/>
      <point x="287" y="795" type="curve"/>
      <point x="129" y="672"/>
      <point x="59" y="545"/>
      <point x="59" y="371" type="curve" smooth="yes"/>
      <point x="59" y="147"/>
      <point x="158" y="-20"/>
      <point x="367" y="-20" type="curve" smooth="yes"/>
      <point x="508" y="-20"/>
      <point x="602" y="41"/>
      <point x="692" y="150" type="curve"/>
      <point x="780" y="0" type="line"/>
      <point x="981" y="0" type="line"/>
      <point x="799" y="274" type="line"/>
      <point x="868" y="391"/>
      <point x="915" y="561"/>
      <point x="924" y="696" type="curve"/>
      <point x="754" y="696" type="line"/>
      <point x="750" y="588"/>
      <point x="731" y="496"/>
      <point x="696" y="424" type="curve"/>
      <point x="489" y="772" type="line"/>
      <point x="612" y="887"/>
      <point x="670" y="1010"/>
      <point x="670" y="1176" type="curve" smooth="yes"/>
      <point x="670" y="1370"/>
      <point x="580" y="1483"/>
    </contour>
    <contour>
      <point x="365" y="682" type="curve"/>
      <point x="604" y="283" type="line"/>
      <point x="541" y="180"/>
      <point x="475" y="133"/>
      <point x="391" y="133" type="curve" smooth="yes"/>
      <point x="293" y="133"/>
      <point x="229" y="225"/>
      <point x="229" y="377" type="curve" smooth="yes"/>
      <point x="229" y="510"/>
      <point x="266" y="592"/>
    </contour>
    <contour>
      <point x="418" y="1348" type="curve" smooth="yes"/>
      <point x="481" y="1348"/>
      <point x="516" y="1292"/>
      <point x="516" y="1180" type="curve" smooth="yes"/>
      <point x="516" y="1061"/>
      <point x="487" y="961"/>
      <point x="410" y="887" type="curve"/>
      <point x="358" y="965"/>
      <point x="328" y="1085"/>
      <point x="328" y="1178" type="curve" smooth="yes"/>
      <point x="328" y="1288"/>
      <point x="362" y="1348"/>
    </contour>
  </outline>
</glyph>
<glyph name="parenleft" format="2">
  <advance width="596"/>
  <unicode hex="0028"/>
  <outline>
    <contour>
      <point x="100" y="567" type="curve" smooth="yes"/>
      <point x="100" y="225"/>
      <point x="199" y="-90"/>
      <point x="391" y="-324" type="curve"/>
      <point x="535" y="-324" type="line"/>
      <point x="362" y="-70"/>
      <point x="268" y="250"/>
      <point x="268" y="569" type="curve" smooth="yes"/>
      <point x="268" y="893"/>
      <point x="358" y="1206"/>
      <point x="537" y="1475" type="curve"/>
      <point x="391" y="1475" type="line"/>
      <point x="205" y="1237"/>
      <point x="100" y="913"/>
    </contour>
  </outline>
</glyph>
<glyph name="asterisk" format="2">
  <advance width="813"/>
  <unicode hex="002A"/>
  <outline>
    <contour>
      <point x="494" y="1559" type="line"/>
      <point x="322" y="1559" type="line"/>
      <point x="350" y="1292" type="line"/>
      <point x="106" y="1364" type="line"/>
      <point x="74" y="1204" type="line"/>
      <point x="313" y="1188" type="line"/>
      <point x="145" y="961" type="line"/>
      <point x="283" y="877" type="line"/>
      <point x="408" y="1126" type="line"/>
      <point x="528" y="877" type="line"/>
      <point x="670" y="961" type="line"/>
      <point x="496" y="1188" type="line"/>
      <point x="739" y="1206" type="line"/>
      <point x="709" y="1366" type="line"/>
      <point x="463" y="1292" type="line"/>
    </contour>
  </outline>
</glyph>
<glyph name="plus" format="2">
  <advance width="881"/>
  <unicode hex="002B"/>
  <outline>
    <contour>
      <point x="510" y="793" type="line"/>
      <point x="510" y="1204" type="line"/>
      <point x="369" y="1204" type="line"/>
      <point x="369" y="793" type="line"/>
      <point x="61" y="793" type="line"/>
      <point x="61" y="653" type="line"/>
      <point x="369" y="653" type="line"/>
      <point x="369" y="244" type="line"/>
      <point x="510" y="244" type="line"/>
      <point x="510" y="653" type="line"/>
      <point x="815" y="653" type="line"/>
      <point x="815" y="793" type="line"/>
    </contour>
  </outline>
</glyph>
<glyph name="period" format="2">
  <advance width="463"/>
  <unicode hex="002E"/>
  <outline>
    <contour>
      <point x="121" y="113" type="curve" smooth="yes"/>
      <point x="121" y="27"/>
      <point x="162" y="-18"/>
      <point x="231" y="-18" type="curve" smooth="yes"/>
      <point x="297" y="-18"/>
      <point x="342" y="23"/>
      <point x="342" y="113" type="curve" smooth="yes"/>
      <point x="342" y="205"/>
      <point x="299" y="244"/>
      <point x="231" y="244" type="curve" smooth="yes"/>
      <point x="160" y="244"/>
      <point x="121" y="199"/>
    </contour>
  </outline>
</glyph>
<glyph name="zero" format="2">
  <advance width="879"/>
  <unicode hex="0030"/>
  <outline>
    <contour>
      <point x="793" y="731" type="curve" smooth="yes"/>
      <point x="793" y="1235"/>
      <point x="678" y="1483"/>
      <point x="438" y="1483" type="curve" smooth="yes"/>
      <point x="201" y="1483"/>
      <point x="84" y="1237"/>
      <point x="84" y="731" type="curve" smooth="yes"/>
      <point x="84" y="145"/>
      <point x="217" y="-20"/>
      <point x="438" y="-20" type="curve" smooth="yes"/>
      <point x="690" y="-20"/>
      <point x="793" y="258"/>
    </contour>
    <contour>
      <point x="258" y="731" type="curve" smooth="yes"/>
      <point x="258" y="1133"/>
      <point x="309" y="1327"/>
      <point x="438" y="1327" type="curve" smooth="yes"/>
      <point x="565" y="1327"/>
      <point x="621" y="1128"/>
      <point x="621" y="731" type="curve" smooth="yes"/>
      <point x="621" y="332"/>
      <point x="565" y="135"/>
      <point x="438" y="135" type="curve" smooth="yes"/>
      <point x="309" y="135"/>
      <point x="258" y="330"/>
    </contour>
  </outline>
</glyph>
<glyph name="three" format="2">
  <advance width="879"/>
  <unicode hex="0033"/>
  <outline>
    <contour>
      <point x="756" y="1126" type="curve" smooth="yes"/>
      <point x="756" y="1346"/>
      <point x="627" y="1483"/>
      <point x="414" y="1483" type="curve" smooth="yes"/>
      <point x="281" y="1483"/>
      <point x="178" y="1446"/>
      <point x="72" y="1348" type="curve"/>
      <point x="154" y="1229" type="line"/>
      <point x="231" y="1298"/>
      <point x="295" y="1333"/>
      <point x="391" y="1333" type="curve" smooth="yes"/>
      <point x="516" y="1333"/>
      <point x="586" y="1251"/>
      <point x="586" y="1108" type="curve" smooth="yes"/>
      <point x="586" y="942"/>
      <point x="483" y="829"/>
      <point x="311" y="829" type="curve" smooth="yes"/>
      <point x="231" y="829" type="line"/>
      <point x="231" y="680" type="line"/>
      <point x="305" y="680" type="line" smooth="yes"/>
      <point x="506" y="680"/>
      <point x="602" y="584"/>
      <point x="602" y="410" type="curve" smooth="yes"/>
      <point x="602" y="244"/>
      <point x="526" y="129"/>
      <point x="362" y="129" type="curve" smooth="yes"/>
      <point x="264" y="129"/>
      <point x="166" y="156"/>
      <point x="78" y="209" type="curve"/>
      <point x="78" y="39" type="line"/>
      <point x="166" y="-2"/>
      <point x="258" y="-20"/>
      <point x="379" y="-20" type="curve" smooth="yes"/>
      <point x="633" y="-20"/>
      <point x="780" y="150"/>
      <point x="780" y="401" type="curve" smooth="yes"/>
      <point x="780" y="594"/>
      <point x="686" y="723"/>
      <point x="514" y="760" type="curve"/>
      <point x="514" y="768" type="line"/>
      <point x="674" y="825"/>
      <point x="756" y="954"/>
    </contour>
  </outline>
</glyph>
<glyph name="four" format="2">
  <advance width="879"/>
  <unicode hex="0034"/>
  <outline>
    <contour>
      <point x="850" y="317" type="line"/>
      <point x="850" y="463" type="line"/>
      <point x="698" y="463" type="line"/>
      <point x="698" y="1475" type="line"/>
      <point x="516" y="1475" type="line"/>
      <point x="35" y="457" type="line"/>
      <point x="35" y="317" type="line"/>
      <point x="530" y="317" type="line"/>
      <point x="530" y="0" type="line"/>
      <point x="698" y="0" type="line"/>
      <point x="698" y="317" type="line"/>
    </contour>
    <contour>
      <point x="530" y="463" type="line"/>
      <point x="186" y="463" type="line"/>
      <point x="461" y="1075" type="line" smooth="yes"/>
      <point x="485" y="1130"/>
      <point x="508" y="1188"/>
      <point x="530" y="1251" type="curve"/>
      <point x="537" y="1251" type="line"/>
      <point x="535" y="1194"/>
      <point x="530" y="1083"/>
      <point x="530" y="1020" type="curve" smooth="yes"/>
    </contour>
  </outline>
</glyph>
<glyph name="five" format="2">
  <advance width="879"/>
  <unicode hex="0035"/>
  <outline>
    <contour>
      <point x="432" y="899" type="curve" smooth="yes"/>
      <point x="383" y="899"/>
      <point x="328" y="893"/>
      <point x="270" y="881" type="curve"/>
      <point x="299" y="1307" type="line"/>
      <point x="709" y="1307" type="line"/>
      <point x="709" y="1462" type="line"/>
      <point x="156" y="1462" type="line"/>
      <point x="113" y="786" type="line"/>
      <point x="180" y="721" type="line"/>
      <point x="246" y="741"/>
      <point x="309" y="754"/>
      <point x="373" y="754" type="curve" smooth="yes"/>
      <point x="524" y="754"/>
      <point x="614" y="655"/>
      <point x="614" y="465" type="curve" smooth="yes"/>
      <point x="614" y="283"/>
      <point x="530" y="129"/>
      <point x="356" y="129" type="curve" smooth="yes"/>
      <point x="268" y="129"/>
      <point x="178" y="160"/>
      <point x="100" y="211" type="curve"/>
      <point x="100" y="41" type="line"/>
      <point x="168" y="0"/>
      <point x="256" y="-20"/>
      <point x="369" y="-20" type="curve" smooth="yes"/>
      <point x="641" y="-20"/>
      <point x="788" y="178"/>
      <point x="788" y="471" type="curve" smooth="yes"/>
      <point x="788" y="725"/>
      <point x="653" y="899"/>
    </contour>
  </outline>
</glyph>
<glyph name="seven" format="2">
  <advance width="879"/>
  <unicode hex="0037"/>
  <outline>
    <contour>
      <point x="190" y="0" type="line"/>
      <point x="369" y="0" type="line"/>
      <point x="805" y="1335" type="line"/>
      <point x="805" y="1462" type="line"/>
      <point x="63" y="1462" type="line"/>
      <point x="63" y="1305" type="line"/>
      <point x="633" y="1305" type="line"/>
    </contour>
  </outline>
</glyph>
<glyph name="eight" format="2">
  <advance width="879"/>
  <unicode hex="0038"/>
  <outline>
    <contour>
      <point x="442" y="1483" type="curve" smooth="yes"/>
      <point x="238" y="1483"/>
      <point x="104" y="1348"/>
      <point x="104" y="1139" type="curve" smooth="yes"/>
      <point x="104" y="993"/>
      <point x="170" y="870"/>
      <point x="309" y="762" type="curve"/>
      <point x="145" y="657"/>
      <point x="70" y="532"/>
      <point x="70" y="360" type="curve" smooth="yes"/>
      <point x="70" y="131"/>
      <point x="207" y="-20"/>
      <point x="449" y="-20" type="curve" smooth="yes"/>
      <point x="668" y="-20"/>
      <point x="811" y="139"/>
      <point x="811" y="371" type="curve" smooth="yes"/>
      <point x="811" y="549"/>
      <point x="705" y="659"/>
      <point x="551" y="764" type="curve"/>
      <point x="705" y="856"/>
      <point x="778" y="981"/>
      <point x="778" y="1141" type="curve" smooth="yes"/>
      <point x="778" y="1350"/>
      <point x="653" y="1483"/>
    </contour>
    <contour>
      <point x="238" y="360" type="curve" smooth="yes"/>
      <point x="238" y="502"/>
      <point x="287" y="594"/>
      <point x="424" y="684" type="curve"/>
      <point x="465" y="655" type="line" smooth="yes"/>
      <point x="588" y="567"/>
      <point x="641" y="475"/>
      <point x="641" y="371" type="curve" smooth="yes"/>
      <point x="641" y="225"/>
      <point x="573" y="123"/>
      <point x="440" y="123" type="curve" smooth="yes"/>
      <point x="309" y="123"/>
      <point x="238" y="223"/>
    </contour>
    <contour>
      <point x="438" y="1339" type="curve" smooth="yes"/>
      <point x="547" y="1339"/>
      <point x="610" y="1260"/>
      <point x="610" y="1128" type="curve" smooth="yes"/>
      <point x="610" y="1012"/>
      <point x="561" y="926"/>
      <point x="438" y="846" type="curve"/>
      <point x="326" y="924"/>
      <point x="270" y="1004"/>
      <point x="270" y="1128" type="curve" smooth="yes"/>
      <point x="270" y="1260"/>
      <point x="336" y="1339"/>
    </contour>
  </outline>
</glyph>
<glyph name="colon" format="2">
  <advance width="467"/>
  <unicode hex="003A"/>
  <outline>
    <contour>
      <point x="123" y="113" type="curve" smooth="yes"/>
      <point x="123" y="27"/>
      <point x="162" y="-18"/>
      <point x="233" y="-18" type="curve" smooth="yes"/>
      <point x="297" y="-18"/>
      <point x="344" y="23"/>
      <point x="344" y="113" type="curve" smooth="yes"/>
      <point x="344" y="205"/>
      <point x="301" y="244"/>
      <point x="233" y="244" type="curve" smooth="yes"/>
      <point x="160" y="244"/>
      <point x="123" y="199"/>
    </contour>
    <contour>
      <point x="123" y="975" type="curve" smooth="yes"/>
      <point x="123" y="887"/>
      <point x="162" y="842"/>
      <point x="233" y="842" type="curve" smooth="yes"/>
      <point x="297" y="842"/>
      <point x="344" y="885"/>
      <point x="344" y="975" type="curve" smooth="yes"/>
      <point x="344" y="1061"/>
      <point x="305" y="1106"/>
      <point x="233" y="1106" type="curve" smooth="yes"/>
      <point x="160" y="1106"/>
      <point x="123" y="1061"/>
    </contour>
  </outline>
</glyph>
<glyph name="semicolon" format="2">
  <advance width="467"/>
  <unicode hex="003B"/>
  <outline>
    <contour>
      <point x="342" y="233" type="line"/>
      <point x="168" y="233" type="line"/>
      <point x="152" y="86"/>
      <point x="119" y="-102"/>
      <point x="74" y="-270" type="curve"/>
      <point x="201" y="-270" type="line"/>
      <point x="266" y="-123"/>
      <point x="317" y="39"/>
      <point x="356" y="211" type="curve"/>
    </contour>
    <contour>
      <point x="123" y="975" type="curve" smooth="yes"/>
      <point x="123" y="887"/>
      <point x="162" y="842"/>
      <point x="233" y="842" type="curve" smooth="yes"/>
      <point x="297" y="842"/>
      <point x="344" y="885"/>
      <point x="344" y="975" type="curve" smooth="yes"/>
      <point x="344" y="1061"/>
      <point x="305" y="1106"/>
      <point x="233" y="1106" type="curve" smooth="yes"/>
      <point x="160" y="1106"/>
      <point x="123" y="1061"/>
    </contour>
  </outline>
</glyph>
<glyph name="equal" format="2">
  <advance width="881"/>
  <unicode hex="003D"/>
  <outline>
    <contour>
      <point x="61" y="870" type="line"/>
      <point x="815" y="870" type="line"/>
      <point x="815" y="1010" type="line"/>
      <point x="61" y="1010" type="line"/>
    </contour>
    <contour>
      <point x="61" y="432" type="line"/>
      <point x="815" y="432" type="line"/>
      <point x="815" y="571" type="line"/>
      <point x="61" y="571" type="line"/>
    </contour>
  </outline>
</glyph>
<glyph name="question" format="2">
  <advance width="651"/>
  <unicode hex="003F"/>
  <outline>
    <contour>
      <point x="201" y="412" type="line"/>
      <point x="334" y="412" type="line"/>
      <point x="334" y="453" type="line" smooth="yes"/>
      <point x="334" y="563"/>
      <point x="358" y="627"/>
      <point x="440" y="733" type="curve" smooth="yes"/>
      <point x="557" y="887"/>
      <point x="608" y="971"/>
      <point x="608" y="1147" type="curve" smooth="yes"/>
      <point x="608" y="1362"/>
      <point x="498" y="1483"/>
      <point x="297" y="1483" type="curve" smooth="yes"/>
      <point x="201" y="1483"/>
      <point x="111" y="1452"/>
      <point x="25" y="1389" type="curve"/>
      <point x="88" y="1257" type="line"/>
      <point x="156" y="1305"/>
      <point x="213" y="1331"/>
      <point x="289" y="1331" type="curve" smooth="yes"/>
      <point x="385" y="1331"/>
      <point x="442" y="1264"/>
      <point x="442" y="1133" type="curve" smooth="yes"/>
      <point x="442" y="1014"/>
      <point x="406" y="932"/>
      <point x="309" y="807" type="curve" smooth="yes"/>
      <point x="225" y="700"/>
      <point x="201" y="610"/>
      <point x="201" y="471" type="curve" smooth="yes"/>
    </contour>
    <contour>
      <point x="160" y="113" type="curve" smooth="yes"/>
      <point x="160" y="27"/>
      <point x="201" y="-18"/>
      <point x="270" y="-18" type="curve" smooth="yes"/>
      <point x="336" y="-18"/>
      <point x="381" y="23"/>
      <point x="381" y="113" type="curve" smooth="yes"/>
      <point x="381" y="205"/>
      <point x="338" y="244"/>
      <point x="270" y="244" type="curve" smooth="yes"/>
      <point x="199" y="244"/>
      <point x="160" y="199"/>
    </contour>
  </outline>
</glyph>
<glyph name="at" format="2">
  <advance width="1333"/>
  <unicode hex="0040"/>
  <outline>
    <contour>
      <point x="1241" y="741" type="curve" smooth="yes"/>
      <point x="1241" y="1145"/>
      <point x="1042" y="1475"/>
      <point x="702" y="1475" type="curve" smooth="yes"/>
      <point x="342" y="1479"/>
      <point x="98" y="1130"/>
      <point x="98" y="588" type="curve" smooth="yes"/>
      <point x="98" y="100"/>
      <point x="295" y="-172"/>
      <point x="651" y="-172" type="curve" smooth="yes"/>
      <point x="768" y="-172"/>
      <point x="854" y="-150"/>
      <point x="940" y="-104" type="curve"/>
      <point x="940" y="25" type="line"/>
      <point x="864" y="-20"/>
      <point x="758" y="-53"/>
      <point x="655" y="-53" type="curve" smooth="yes"/>
      <point x="360" y="-53"/>
      <point x="233" y="242"/>
      <point x="233" y="602" type="curve" smooth="yes"/>
      <point x="233" y="948"/>
      <point x="362" y="1356"/>
      <point x="702" y="1356" type="curve" smooth="yes"/>
      <point x="946" y="1358"/>
      <point x="1104" y="1106"/>
      <point x="1104" y="745" type="curve" smooth="yes"/>
      <point x="1104" y="475"/>
      <point x="1063" y="356"/>
      <point x="981" y="356" type="curve" smooth="yes"/>
      <point x="926" y="356"/>
      <point x="893" y="397"/>
      <point x="893" y="500" type="curve" smooth="yes"/>
      <point x="893" y="524"/>
      <point x="895" y="571"/>
      <point x="897" y="612" type="curve" smooth="yes"/>
      <point x="913" y="1038" type="line"/>
      <point x="850" y="1063"/>
      <point x="780" y="1075"/>
      <point x="713" y="1075" type="curve" smooth="yes"/>
      <point x="516" y="1075"/>
      <point x="410" y="907"/>
      <point x="410" y="602" type="curve" smooth="yes"/>
      <point x="410" y="367"/>
      <point x="489" y="231"/>
      <point x="629" y="231" type="curve" smooth="yes"/>
      <point x="715" y="231"/>
      <point x="770" y="291"/>
      <point x="801" y="418" type="curve"/>
      <point x="811" y="418" type="line"/>
      <point x="823" y="299"/>
      <point x="877" y="231"/>
      <point x="985" y="231" type="curve" smooth="yes"/>
      <point x="1147" y="231"/>
      <point x="1241" y="414"/>
    </contour>
    <contour>
      <point x="549" y="598" type="curve" smooth="yes"/>
      <point x="549" y="836"/>
      <point x="606" y="963"/>
      <point x="702" y="963" type="curve" smooth="yes"/>
      <point x="729" y="963"/>
      <point x="750" y="961"/>
      <point x="768" y="954" type="curve"/>
      <point x="754" y="688" type="line" smooth="yes"/>
      <point x="741" y="455"/>
      <point x="711" y="356"/>
      <point x="649" y="356" type="curve" smooth="yes"/>
      <point x="584" y="356"/>
      <point x="549" y="436"/>
    </contour>
  </outline>
</glyph>
<glyph name="D" format="2">
  <advance width="1057"/>
  <unicode hex="0044"/>
  <anchor x="489" y="0" name="bottom"/>
  <anchor x="535" y="737" name="center"/>
  <anchor x="518" y="1462" name="top"/>
  <anchor x="1016" y="1462" name="topright"/>
  <outline>
    <contour>
      <point x="956" y="750" type="curve" smooth="yes"/>
      <point x="956" y="1214"/>
      <point x="782" y="1462"/>
      <point x="457" y="1462" type="curve" smooth="yes"/>
      <point x="150" y="1462" type="line"/>
      <point x="150" y="0" type="line"/>
      <point x="444" y="0" type="line" smooth="yes"/>
      <point x="780" y="0"/>
      <point x="956" y="256"/>
    </contour>
    <contour>
      <point x="776" y="741" type="curve" smooth="yes"/>
      <point x="776" y="352"/>
      <point x="672" y="154"/>
      <point x="438" y="154" type="curve" smooth="yes"/>
      <point x="322" y="154" type="line"/>
      <point x="322" y="1309" type="line"/>
      <point x="451" y="1309" type="line" smooth="yes"/>
      <point x="666" y="1309"/>
      <point x="776" y="1118"/>
    </contour>
  </outline>
</glyph>
<glyph name="F" format="2">
  <advance width="778"/>
  <unicode hex="0046"/>
  <anchor x="389" y="0" name="bottom"/>
  <anchor x="451" y="1462" name="top"/>
  <anchor x="737" y="1462" name="topright"/>
  <outline>
    <contour>
      <point x="322" y="0" type="line"/>
      <point x="322" y="625" type="line"/>
      <point x="707" y="625" type="line"/>
      <point x="707" y="780" type="line"/>
      <point x="322" y="780" type="line"/>
      <point x="322" y="1309" type="line"/>
      <point x="731" y="1309" type="line"/>
      <point x="731" y="1462" type="line"/>
      <point x="150" y="1462" type="line"/>
      <point x="150" y="0" type="line"/>
    </contour>
  </outline>
</glyph>
<glyph name="G" format="2">
  <advance width="1116"/>
  <unicode hex="0047"/>
  <anchor x="633" y="0" name="bottom"/>
  <anchor x="631" y="1462" name="top"/>
  <anchor x="1075" y="1462" name="topright"/>
  <outline>
    <contour>
      <point x="631" y="772" type="line"/>
      <point x="631" y="618" type="line"/>
      <point x="838" y="618" type="line"/>
      <point x="838" y="166" type="line"/>
      <point x="780" y="145"/>
      <point x="713" y="135"/>
      <point x="637" y="135" type="curve" smooth="yes"/>
      <point x="385" y="135"/>
      <point x="283" y="393"/>
      <point x="283" y="731" type="curve" smooth="yes"/>
      <point x="283" y="1120"/>
      <point x="414" y="1329"/>
      <point x="659" y="1329" type="curve" smooth="yes"/>
      <point x="750" y="1329"/>
      <point x="838" y="1300"/>
      <point x="928" y="1243" type="curve"/>
      <point x="989" y="1389" type="line"/>
      <point x="891" y="1450"/>
      <point x="778" y="1483"/>
      <point x="655" y="1483" type="curve" smooth="yes"/>
      <point x="283" y="1483"/>
      <point x="102" y="1171"/>
      <point x="102" y="735" type="curve" smooth="yes"/>
      <point x="102" y="303"/>
      <point x="264" y="-20"/>
      <point x="623" y="-20" type="curve" smooth="yes"/>
      <point x="756" y="-20"/>
      <point x="885" y="4"/>
      <point x="1006" y="51" type="curve"/>
      <point x="1006" y="772" type="line"/>
    </contour>
  </outline>
</glyph>
<glyph name="H" format="2">
  <advance width="1092"/>
  <unicode hex="0048"/>
  <anchor x="547" y="0" name="bottom"/>
  <anchor x="547" y="731" name="center"/>
  <anchor x="549" y="1462" name="top"/>
  <anchor x="1051" y="1462" name="topright"/>
  <outline>
    <contour>
      <point x="944" y="0" type="line"/>
      <point x="944" y="1462" type="line"/>
      <point x="772" y="1462" type="line"/>
      <point x="772" y="842" type="line"/>
      <point x="322" y="842" type="line"/>
      <point x="322" y="1462" type="line"/>
      <point x="150" y="1462" type="line"/>
      <point x="150" y="0" type="line"/>
      <point x="322" y="0" type="line"/>
      <point x="322" y="686" type="line"/>
      <point x="772" y="686" type="line"/>
      <point x="772" y="0" type="line"/>
    </contour>
  </outline>
</glyph>
<glyph name="L" format="2">
  <advance width="760"/>
  <unicode hex="004C"/>
  <anchor x="442" y="0" name="bottom"/>
  <anchor x="381" y="731" name="center"/>
  <anchor x="236" y="1462" name="top"/>
  <anchor x="514" y="1462" name="topright"/>
  <outline>
    <contour>
      <point x="150" y="0" type="line"/>
      <point x="725" y="0" type="line"/>
      <point x="725" y="156" type="line"/>
      <point x="322" y="156" type="line"/>
      <point x="322" y="1462" type="line"/>
      <point x="150" y="1462" type="line"/>
    </contour>
  </outline>
</glyph>
<glyph name="M" format="2">
  <advance width="1470"/>
  <unicode hex="004D"/>
  <anchor x="735" y="0" name="bottom"/>
  <anchor x="739" y="1462" name="top"/>
  <anchor x="1430" y="1462" name="topright"/>
  <outline>
    <contour>
      <point x="657" y="0" type="line"/>
      <point x="811" y="0" type="line"/>
      <point x="1159" y="1227" type="line"/>
      <point x="1167" y="1227" type="line"/>
      <point x="1161" y="1092"/>
      <point x="1157" y="993"/>
      <point x="1157" y="934" type="curve" smooth="yes"/>
      <point x="1157" y="0" type="line"/>
      <point x="1325" y="0" type="line"/>
      <point x="1325" y="1462" type="line"/>
      <point x="1079" y="1462" type="line"/>
      <point x="739" y="268" type="line"/>
      <point x="733" y="268" type="line"/>
      <point x="393" y="1462" type="line"/>
      <point x="150" y="1462" type="line"/>
      <point x="150" y="0" type="line"/>
      <point x="313" y="0" type="line"/>
      <point x="313" y="938" type="line" smooth="yes"/>
      <point x="313" y="991"/>
      <point x="309" y="1090"/>
      <point x="301" y="1227" type="curve"/>
      <point x="309" y="1227" type="line"/>
    </contour>
  </outline>
</glyph>
<glyph name="O" format="2">
  <advance width="1126"/>
  <unicode hex="004F"/>
  <anchor x="563" y="0" name="bottom"/>
  <anchor x="563" y="731" name="center"/>
  <anchor x="563" y="1462" name="top"/>
  <anchor x="1085" y="1462" name="topright"/>
  <outline>
    <contour>
      <point x="1026" y="733" type="curve" smooth="yes"/>
      <point x="1026" y="1153"/>
      <point x="897" y="1483"/>
      <point x="565" y="1483" type="curve" smooth="yes"/>
      <point x="258" y="1483"/>
      <point x="102" y="1235"/>
      <point x="102" y="735" type="curve" smooth="yes"/>
      <point x="102" y="319"/>
      <point x="227" y="-20"/>
      <point x="565" y="-20" type="curve" smooth="yes"/>
      <point x="897" y="-20"/>
      <point x="1026" y="311"/>
    </contour>
    <contour>
      <point x="281" y="733" type="curve" smooth="yes"/>
      <point x="281" y="1124"/>
      <point x="375" y="1327"/>
      <point x="565" y="1327" type="curve" smooth="yes"/>
      <point x="750" y="1327"/>
      <point x="844" y="1128"/>
      <point x="844" y="733" type="curve" smooth="yes"/>
      <point x="844" y="334"/>
      <point x="748" y="137"/>
      <point x="563" y="137" type="curve" smooth="yes"/>
      <point x="379" y="137"/>
      <point x="281" y="340"/>
    </contour>
  </outline>
</glyph>
<glyph name="T" format="2">
  <advance width="780"/>
  <unicode hex="0054"/>
  <anchor x="391" y="0" name="bottom"/>
  <anchor x="391" y="731" name="center"/>
  <anchor x="391" y="1462" name="top"/>
  <anchor x="739" y="1462" name="topright"/>
  <outline>
    <contour>
      <point x="475" y="0" type="line"/>
      <point x="475" y="1307" type="line"/>
      <point x="758" y="1307" type="line"/>
      <point x="758" y="1462" type="line"/>
      <point x="20" y="1462" type="line"/>
      <point x="20" y="1307" type="line"/>
      <point x="303" y="1307" type="line"/>
      <point x="303" y="0" type="line"/>
    </contour>
  </outline>
</glyph>
<glyph name="U" format="2">
  <advance width="1069"/>
  <unicode hex="0055"/>
  <anchor x="539" y="0" name="bottom"/>
  <anchor x="535" y="1462" name="top"/>
  <anchor x="1028" y="1462" name="topright"/>
  <outline>
    <contour>
      <point x="932" y="1462" type="line"/>
      <point x="758" y="1462" type="line"/>
      <point x="758" y="457" type="line" smooth="yes"/>
      <point x="758" y="227"/>
      <point x="684" y="137"/>
      <point x="537" y="137" type="curve" smooth="yes"/>
      <point x="391" y="137"/>
      <point x="309" y="229"/>
      <point x="309" y="455" type="curve" smooth="yes"/>
      <point x="309" y="1462" type="line"/>
      <point x="137" y="1462" type="line"/>
      <point x="137" y="457" type="line" smooth="yes"/>
      <point x="137" y="131"/>
      <point x="276" y="-20"/>
      <point x="537" y="-20" type="curve" smooth="yes"/>
      <point x="797" y="-20"/>
      <point x="932" y="127"/>
      <point x="932" y="459" type="curve" smooth="yes"/>
    </contour>
  </outline>
</glyph>
<glyph name="V" format="2">
  <advance width="903"/>
  <unicode hex="0056"/>
  <anchor x="449" y="0" name="bottom"/>
  <anchor x="457" y="1462" name="top"/>
  <anchor x="862" y="1462" name="topright"/>
  <outline>
    <contour>
      <point x="903" y="1462" type="line"/>
      <point x="723" y="1462" type="line"/>
      <point x="500" y="477" type="line" smooth="yes"/>
      <point x="479" y="385"/>
      <point x="461" y="283"/>
      <point x="449" y="195" type="curve"/>
      <point x="438" y="283"/>
      <point x="420" y="387"/>
      <point x="401" y="473" type="curve" smooth="yes"/>
      <point x="180" y="1462" type="line"/>
      <point x="0" y="1462" type="line"/>
      <point x="350" y="0" type="line"/>
      <point x="549" y="0" type="line"/>
    </contour>
  </outline>
</glyph>
<glyph name="Y" format="2">
  <advance width="803"/>
  <unicode hex="0059"/>
  <anchor x="401" y="0" name="bottom"/>
  <anchor x="401" y="1462" name="top"/>
  <anchor x="762" y="1462" name="topright"/>
  <outline>
    <contour>
      <point x="403" y="774" type="line"/>
      <point x="180" y="1462" type="line"/>
      <point x="0" y="1462" type="line"/>
      <point x="315" y="565" type="line"/>
      <point x="315" y="0" type="line"/>
      <point x="487" y="0" type="line"/>
      <point x="487" y="569" type="line"/>
      <point x="803" y="1462" type="line"/>
      <point x="623" y="1462" type="line"/>
    </contour>
  </outline>
</glyph>
<glyph name="Z" format="2">
  <advance width="739"/>
  <unicode hex="005A"/>
  <anchor x="383" y="0" name="bottom"/>
  <anchor x="371" y="1462" name="top"/>
  <anchor x="698" y="1462" name="topright"/>
  <outline>
    <contour>
      <point x="698" y="0" type="line"/>
      <point x="698" y="156" type="line"/>
      <point x="236" y="156" type="line"/>
      <point x="686" y="1327" type="line"/>
      <point x="686" y="1462" type="line"/>
      <point x="61" y="1462" type="line"/>
      <point x="61" y="1307" type="line"/>
      <point x="500" y="1307" type="line"/>
      <point x="53" y="133" type="line"/>
      <point x="53" y="0" type="line"/>
    </contour>
  </outline>
</glyph>
<glyph name="bracketleft" format="2">
  <advance width="639"/>
  <unicode hex="005B"/>
  <outline>
    <contour>
      <point x="575" y="-330" type="line"/>
      <point x="575" y="-190" type="line"/>
      <point x="305" y="-190" type="line"/>
      <point x="305" y="1335" type="line"/>
      <point x="575" y="1335" type="line"/>
      <point x="575" y="1475" type="line"/>
      <point x="147" y="1475" type="line"/>
      <point x="147" y="-330" type="line"/>
    </contour>
  </outline>
</glyph>
<glyph name="backslash" format="2">
  <advance width="760"/>
  <unicode hex="005C"/>
  <outline>
    <contour>
      <point x="193" y="1468" type="line"/>
      <point x="37" y="1468" type="line"/>
      <point x="573" y="-6" type="line"/>
      <point x="731" y="-6" type="line"/>
    </contour>
  </outline>
</glyph>
<glyph name="bracketright" format="2">
  <advance width="639"/>
  <unicode hex="005D"/>
  <outline>
    <contour>
      <point x="63" y="-190" type="line"/>
      <point x="63" y="-330" type="line"/>
      <point x="492" y="-330" type="line"/>
      <point x="492" y="1475" type="line"/>
      <point x="63" y="1475" type="line"/>
      <point x="63" y="1335" type="line"/>
      <point x="334" y="1335" type="line"/>
      <point x="334" y="-190" type="line"/>
    </contour>
  </outline>
</glyph>
<glyph name="asciicircum" format="2">
  <advance width="905"/>
  <unicode hex="005E"/>
  <outline>
    <contour>
      <point x="31" y="680" type="line"/>
      <point x="190" y="680" type="line"/>
      <point x="453" y="1247" type="line"/>
      <point x="715" y="680" type="line"/>
      <point x="877" y="680" type="line"/>
      <point x="502" y="1460" type="line"/>
      <point x="403" y="1460" type="line"/>
    </contour>
  </outline>
</glyph>
<glyph name="underscore" format="2">
  <advance width="895"/>
  <unicode hex="005F"/>
  <outline>
    <contour>
      <point x="899" y="-299" type="line"/>
      <point x="899" y="-170" type="line"/>
      <point x="-4" y="-170" type="line"/>
      <point x="-4" y="-299" type="line"/>
    </contour>
  </outline>
</glyph>
<glyph name="grave" format="2">
  <advance width="545"/>
  <unicode hex="0060"/>
  <outline>
    <contour>
      <point x="281" y="1569" type="curve"/>
      <point x="82" y="1569" type="line"/>
      <point x="82" y="1550" type="line"/>
      <point x="135" y="1462"/>
      <point x="274" y="1311"/>
      <point x="356" y="1241" type="curve"/>
      <point x="463" y="1241" type="line"/>
      <point x="463" y="1264" type="line"/>
      <point x="406" y="1339"/>
      <point x="324" y="1475"/>
    </contour>
  </outline>
</glyph>
<glyph name="a" format="2">
  <advance width="852"/>
  <unicode hex="0061"/>
  <anchor x="426" y="0" name="bottom"/>
  <anchor x="438" y="1100" name="top"/>
  <anchor x="774" y="1100" name="topright"/>
  <outline>
    <contour>
      <point x="436" y="1120" type="curve" smooth="yes"/>
      <point x="332" y="1120"/>
      <point x="236" y="1094"/>
      <point x="150" y="1040" type="curve"/>
      <point x="203" y="915" type="line"/>
      <point x="281" y="961"/>
      <point x="348" y="983"/>
      <point x="410" y="983" type="curve" smooth="yes"/>
      <point x="514" y="983"/>
      <point x="557" y="905"/>
      <point x="557" y="737" type="curve" smooth="yes"/>
      <point x="557" y="666" type="line"/>
      <point x="432" y="659" type="line" smooth="yes"/>
      <point x="201" y="649"/>
      <point x="70" y="524"/>
      <point x="70" y="307" type="curve" smooth="yes"/>
      <point x="70" y="133"/>
      <point x="145" y="-20"/>
      <point x="315" y="-20" type="curve" smooth="yes"/>
      <point x="430" y="-20"/>
      <point x="510" y="37"/>
      <point x="567" y="152" type="curve"/>
      <point x="571" y="152" type="line"/>
      <point x="596" y="0" type="line"/>
      <point x="723" y="0" type="line"/>
      <point x="723" y="741" type="line" smooth="yes"/>
      <point x="723" y="983"/>
      <point x="643" y="1120"/>
    </contour>
    <contour>
      <point x="559" y="545" type="line"/>
      <point x="559" y="434" type="line" smooth="yes"/>
      <point x="559" y="233"/>
      <point x="487" y="115"/>
      <point x="373" y="115" type="curve" smooth="yes"/>
      <point x="289" y="115"/>
      <point x="240" y="176"/>
      <point x="240" y="311" type="curve" smooth="yes"/>
      <point x="240" y="455"/>
      <point x="311" y="530"/>
      <point x="461" y="539" type="curve" smooth="yes"/>
    </contour>
  </outline>
</glyph>
<glyph name="b" format="2">
  <advance width="946"/>
  <unicode hex="0062"/>
  <anchor x="506" y="0" name="bottom"/>
  <anchor x="500" y="1556" name="top"/>
  <anchor x="842" y="1556" name="topright"/>
  <outline>
    <contour>
      <point x="299" y="1556" type="line"/>
      <point x="133" y="1556" type="line"/>
      <point x="133" y="0" type="line"/>
      <point x="268" y="0" type="line"/>
      <point x="291" y="139" type="line"/>
      <point x="301" y="139" type="line"/>
      <point x="362" y="29"/>
      <point x="442" y="-20"/>
      <point x="547" y="-20" type="curve" smooth="yes"/>
      <point x="750" y="-20"/>
      <point x="862" y="184"/>
      <point x="862" y="551" type="curve" smooth="yes"/>
      <point x="862" y="922"/>
      <point x="750" y="1118"/>
      <point x="541" y="1118" type="curve" smooth="yes"/>
      <point x="440" y="1118"/>
      <point x="360" y="1065"/>
      <point x="301" y="954" type="curve"/>
      <point x="293" y="954" type="line"/>
      <point x="295" y="1016"/>
      <point x="299" y="1069"/>
      <point x="299" y="1112" type="curve" smooth="yes"/>
    </contour>
    <contour>
      <point x="504" y="973" type="curve" smooth="yes"/>
      <point x="635" y="973"/>
      <point x="692" y="831"/>
      <point x="692" y="553" type="curve" smooth="yes"/>
      <point x="692" y="258"/>
      <point x="631" y="123"/>
      <point x="506" y="123" type="curve" smooth="yes"/>
      <point x="367" y="123"/>
      <point x="299" y="254"/>
      <point x="299" y="526" type="curve" smooth="yes"/>
      <point x="299" y="565" type="line" smooth="yes"/>
      <point x="299" y="799"/>
      <point x="338" y="973"/>
    </contour>
  </outline>
</glyph>
<glyph name="c" format="2">
  <advance width="711"/>
  <unicode hex="0063"/>
  <anchor x="444" y="0" name="bottom"/>
  <anchor x="426" y="1100" name="top"/>
  <anchor x="649" y="1100" name="topright"/>
  <outline>
    <contour>
      <point x="453" y="-20" type="curve" smooth="yes"/>
      <point x="514" y="-20"/>
      <point x="598" y="0"/>
      <point x="655" y="37" type="curve"/>
      <point x="655" y="176" type="line"/>
      <point x="592" y="143"/>
      <point x="530" y="125"/>
      <point x="471" y="125" type="curve" smooth="yes"/>
      <point x="330" y="125"/>
      <point x="258" y="264"/>
      <point x="258" y="545" type="curve" smooth="yes"/>
      <point x="258" y="827"/>
      <point x="330" y="973"/>
      <point x="469" y="973" type="curve" smooth="yes"/>
      <point x="516" y="973"/>
      <point x="565" y="958"/>
      <point x="616" y="932" type="curve"/>
      <point x="668" y="1069" type="line"/>
      <point x="610" y="1102"/>
      <point x="543" y="1120"/>
      <point x="457" y="1120" type="curve" smooth="yes"/>
      <point x="207" y="1120"/>
      <point x="88" y="903"/>
      <point x="88" y="543" type="curve" smooth="yes"/>
      <point x="88" y="168"/>
      <point x="209" y="-20"/>
    </contour>
  </outline>
</glyph>
<glyph name="g" format="2">
  <advance width="806"/>
  <unicode hex="0067"/>
  <anchor x="367" y="-492" name="bottom"/>
  <anchor x="392" y="1101" name="top"/>
  <anchor x="815" y="1100" name="topright"/>
  <outline>
    <contour>
      <point x="356" y="-492" type="curve" smooth="yes"/>
      <point x="635" y="-492"/>
      <point x="787" y="-353"/>
      <point x="787" y="-110" type="curve" smooth="yes"/>
      <point x="787" y="84"/>
      <point x="694" y="179"/>
      <point x="528" y="179" type="curve"/>
      <point x="367" y="179" type="line"/>
      <point x="291" y="179"/>
      <point x="250" y="215"/>
      <point x="250" y="273" type="curve" smooth="yes"/>
      <point x="250" y="333"/>
      <point x="281" y="372"/>
      <point x="316" y="404" type="curve"/>
      <point x="334" y="398"/>
      <point x="359" y="395"/>
      <point x="389" y="395" type="curve" smooth="yes"/>
      <point x="587" y="395"/>
      <point x="702" y="532"/>
      <point x="702" y="759" type="curve" smooth="yes"/>
      <point x="702" y="836"/>
      <point x="686" y="913"/>
      <point x="650" y="972" type="curve"/>
      <point x="795" y="991" type="line"/>
      <point x="795" y="1097" type="line"/>
      <point x="518" y="1097" type="line"/>
      <point x="489" y="1110"/>
      <point x="450" y="1120"/>
      <point x="389" y="1120" type="curve" smooth="yes"/>
      <point x="191" y="1120"/>
      <point x="75" y="978"/>
      <point x="75" y="754" type="curve" smooth="yes"/>
      <point x="75" y="609"/>
      <point x="127" y="490"/>
      <point x="213" y="438" type="curve"/>
      <point x="149" y="382"/>
      <point x="112" y="324"/>
      <point x="112" y="248" type="curve" smooth="yes"/>
      <point x="112" y="174"/>
      <point x="151" y="118"/>
      <point x="208" y="92" type="curve"/>
      <point x="93" y="60"/>
      <point x="14" y="-39"/>
      <point x="14" y="-187" type="curve" smooth="yes"/>
      <point x="14" y="-380"/>
      <point x="143" y="-492"/>
    </contour>
    <contour>
      <point x="369" y="-362" type="curve" smooth="yes"/>
      <point x="247" y="-362"/>
      <point x="171" y="-298"/>
      <point x="171" y="-172" type="curve" smooth="yes"/>
      <point x="171" y="-28"/>
      <point x="240" y="27"/>
      <point x="329" y="27" type="curve"/>
      <point x="462" y="27" type="line"/>
      <point x="568" y="27"/>
      <point x="629" y="-3"/>
      <point x="629" y="-128" type="curve" smooth="yes"/>
      <point x="629" y="-284"/>
      <point x="542" y="-362"/>
    </contour>
    <contour>
      <point x="390" y="517" type="curve" smooth="yes"/>
      <point x="291" y="517"/>
      <point x="242" y="601"/>
      <point x="242" y="752" type="curve" smooth="yes"/>
      <point x="242" y="909"/>
      <point x="297" y="1000"/>
      <point x="388" y="1000" type="curve" smooth="yes"/>
      <point x="481" y="1000"/>
      <point x="536" y="920"/>
      <point x="536" y="755" type="curve" smooth="yes"/>
      <point x="536" y="599"/>
      <point x="482" y="517"/>
    </contour>
  </outline>
</glyph>
<glyph name="k" format="2">
  <advance width="817"/>
  <unicode hex="006B"/>
  <anchor x="440" y="0" name="bottom"/>
  <anchor x="217" y="1556" name="top"/>
  <anchor x="809" y="1556" name="topright"/>
  <outline>
    <contour>
      <point x="299" y="1556" type="line"/>
      <point x="133" y="1556" type="line"/>
      <point x="133" y="0" type="line"/>
      <point x="299" y="0" type="line"/>
      <point x="299" y="408" type="line"/>
      <point x="412" y="543" type="line"/>
      <point x="631" y="0" type="line"/>
      <point x="809" y="0" type="line"/>
      <point x="524" y="676" type="line"/>
      <point x="791" y="1100" type="line"/>
      <point x="612" y="1100" type="line"/>
      <point x="367" y="692" type="line"/>
      <point x="342" y="653"/>
      <point x="319" y="610"/>
      <point x="297" y="565" type="curve"/>
      <point x="289" y="565" type="line"/>
      <point x="295" y="637"/>
      <point x="299" y="709"/>
      <point x="299" y="784" type="curve" smooth="yes"/>
    </contour>
  </outline>
</glyph>
<glyph name="m" format="2">
  <advance width="1397"/>
  <unicode hex="006D"/>
  <anchor x="700" y="0" name="bottom"/>
  <anchor x="723" y="1100" name="top"/>
  <anchor x="1319" y="1100" name="topright"/>
  <outline>
    <contour>
      <point x="1010" y="1120" type="curve" smooth="yes"/>
      <point x="889" y="1120"/>
      <point x="817" y="1065"/>
      <point x="766" y="944" type="curve"/>
      <point x="754" y="944" type="line"/>
      <point x="729" y="1047"/>
      <point x="655" y="1120"/>
      <point x="530" y="1120" type="curve" smooth="yes"/>
      <point x="420" y="1120"/>
      <point x="338" y="1063"/>
      <point x="295" y="950" type="curve"/>
      <point x="285" y="950" type="line"/>
      <point x="266" y="1100" type="line"/>
      <point x="133" y="1100" type="line"/>
      <point x="133" y="0" type="line"/>
      <point x="299" y="0" type="line"/>
      <point x="299" y="575" type="line" smooth="yes"/>
      <point x="299" y="809"/>
      <point x="332" y="973"/>
      <point x="479" y="973" type="curve" smooth="yes"/>
      <point x="573" y="973"/>
      <point x="618" y="901"/>
      <point x="618" y="713" type="curve" smooth="yes"/>
      <point x="618" y="0" type="line"/>
      <point x="782" y="0" type="line"/>
      <point x="782" y="606" type="line" smooth="yes"/>
      <point x="782" y="846"/>
      <point x="831" y="973"/>
      <point x="963" y="973" type="curve" smooth="yes"/>
      <point x="1055" y="973"/>
      <point x="1102" y="897"/>
      <point x="1102" y="707" type="curve" smooth="yes"/>
      <point x="1102" y="0" type="line"/>
      <point x="1268" y="0" type="line"/>
      <point x="1268" y="737" type="line" smooth="yes"/>
      <point x="1268" y="995"/>
      <point x="1186" y="1120"/>
    </contour>
  </outline>
</glyph>
<glyph name="n" format="2">
  <advance width="934"/>
  <unicode hex="006E"/>
  <anchor x="469" y="0" name="bottom"/>
  <anchor x="483" y="1100" name="top"/>
  <anchor x="856" y="1100" name="topright"/>
  <outline>
    <contour>
      <point x="537" y="1120" type="curve" smooth="yes"/>
      <point x="432" y="1120"/>
      <point x="342" y="1059"/>
      <point x="295" y="950" type="curve"/>
      <point x="285" y="950" type="line"/>
      <point x="266" y="1100" type="line"/>
      <point x="133" y="1100" type="line"/>
      <point x="133" y="0" type="line"/>
      <point x="299" y="0" type="line"/>
      <point x="299" y="571" type="line" smooth="yes"/>
      <point x="299" y="854"/>
      <point x="356" y="973"/>
      <point x="500" y="973" type="curve" smooth="yes"/>
      <point x="598" y="973"/>
      <point x="639" y="885"/>
      <point x="639" y="713" type="curve" smooth="yes"/>
      <point x="639" y="0" type="line"/>
      <point x="805" y="0" type="line"/>
      <point x="805" y="745" type="line" smooth="yes"/>
      <point x="805" y="999"/>
      <point x="713" y="1120"/>
    </contour>
  </outline>
</glyph>
<glyph name="o" format="2">
  <advance width="911"/>
  <unicode hex="006F"/>
  <anchor x="457" y="0" name="bottom"/>
  <anchor x="457" y="551" name="center"/>
  <anchor x="455" y="1100" name="top"/>
  <anchor x="870" y="1100" name="topright"/>
  <outline>
    <contour>
      <point x="825" y="551" type="curve" smooth="yes"/>
      <point x="825" y="926"/>
      <point x="690" y="1120"/>
      <point x="457" y="1120" type="curve" smooth="yes"/>
      <point x="203" y="1120"/>
      <point x="86" y="913"/>
      <point x="86" y="551" type="curve" smooth="yes"/>
      <point x="86" y="207"/>
      <point x="209" y="-20"/>
      <point x="453" y="-20" type="curve" smooth="yes"/>
      <point x="709" y="-20"/>
      <point x="825" y="209"/>
    </contour>
    <contour>
      <point x="256" y="551" type="curve" smooth="yes"/>
      <point x="256" y="834"/>
      <point x="315" y="975"/>
      <point x="457" y="975" type="curve" smooth="yes"/>
      <point x="594" y="975"/>
      <point x="657" y="834"/>
      <point x="657" y="551" type="curve" smooth="yes"/>
      <point x="657" y="266"/>
      <point x="594" y="125"/>
      <point x="457" y="125" type="curve" smooth="yes"/>
      <point x="317" y="125"/>
      <point x="256" y="270"/>
    </contour>
  </outline>
</glyph>
<glyph name="p" format="2">
  <advance width="946"/>
  <unicode hex="0070"/>
  <anchor x="215" y="-492" name="bottom"/>
  <anchor x="514" y="1100" name="top"/>
  <anchor x="905" y="1100" name="topright"/>
  <outline>
    <contour>
      <point x="539" y="1120" type="curve" smooth="yes"/>
      <point x="440" y="1120"/>
      <point x="358" y="1069"/>
      <point x="299" y="950" type="curve"/>
      <point x="289" y="950" type="line"/>
      <point x="268" y="1100" type="line"/>
      <point x="133" y="1100" type="line"/>
      <point x="133" y="-492" type="line"/>
      <point x="299" y="-492" type="line"/>
      <point x="299" y="0" type="line" smooth="yes"/>
      <point x="299" y="41"/>
      <point x="295" y="90"/>
      <point x="291" y="147" type="curve"/>
      <point x="299" y="147" type="line"/>
      <point x="350" y="41"/>
      <point x="442" y="-20"/>
      <point x="549" y="-20" type="curve" smooth="yes"/>
      <point x="750" y="-20"/>
      <point x="862" y="188"/>
      <point x="862" y="551" type="curve" smooth="yes"/>
      <point x="862" y="930"/>
      <point x="750" y="1120"/>
    </contour>
    <contour>
      <point x="502" y="977" type="curve" smooth="yes"/>
      <point x="639" y="977"/>
      <point x="692" y="834"/>
      <point x="692" y="549" type="curve" smooth="yes"/>
      <point x="692" y="260"/>
      <point x="631" y="125"/>
      <point x="504" y="125" type="curve" smooth="yes"/>
      <point x="365" y="125"/>
      <point x="299" y="254"/>
      <point x="299" y="543" type="curve" smooth="yes"/>
      <point x="299" y="584" type="line" smooth="yes"/>
      <point x="299" y="854"/>
      <point x="365" y="977"/>
    </contour>
  </outline>
</glyph>
<glyph name="s" format="2">
  <advance width="694"/>
  <unicode hex="0073"/>
  <anchor x="324" y="0" name="bottom"/>
  <anchor x="367" y="1100" name="top"/>
  <anchor x="633" y="1100" name="topright"/>
  <outline>
    <contour>
      <point x="629" y="295" type="curve" smooth="yes"/>
      <point x="629" y="463"/>
      <point x="537" y="543"/>
      <point x="401" y="629" type="curve" smooth="yes"/>
      <point x="272" y="707"/>
      <point x="227" y="748"/>
      <point x="227" y="836" type="curve" smooth="yes"/>
      <point x="227" y="922"/>
      <point x="285" y="979"/>
      <point x="377" y="979" type="curve" smooth="yes"/>
      <point x="444" y="979"/>
      <point x="508" y="954"/>
      <point x="565" y="915" type="curve"/>
      <point x="627" y="1049" type="line"/>
      <point x="551" y="1096"/>
      <point x="469" y="1120"/>
      <point x="375" y="1120" type="curve" smooth="yes"/>
      <point x="193" y="1120"/>
      <point x="68" y="1006"/>
      <point x="68" y="831" type="curve" smooth="yes"/>
      <point x="68" y="662"/>
      <point x="160" y="580"/>
      <point x="297" y="496" type="curve" smooth="yes"/>
      <point x="420" y="426"/>
      <point x="465" y="375"/>
      <point x="465" y="289" type="curve" smooth="yes"/>
      <point x="465" y="188"/>
      <point x="408" y="129"/>
      <point x="311" y="129" type="curve" smooth="yes"/>
      <point x="221" y="129"/>
      <point x="127" y="164"/>
      <point x="68" y="213" type="curve"/>
      <point x="68" y="41" type="line"/>
      <point x="129" y="6"/>
      <point x="215" y="-20"/>
      <point x="317" y="-20" type="curve" smooth="yes"/>
      <point x="514" y="-20"/>
      <point x="629" y="92"/>
    </contour>
  </outline>
</glyph>
<glyph name="t" format="2">
  <advance width="530"/>
  <unicode hex="0074"/>
  <anchor x="326" y="0" name="bottom"/>
  <anchor x="266" y="549" name="center"/>
  <anchor x="244" y="1348" name="top"/>
  <anchor x="487" y="1348" name="topright"/>
  <outline>
    <contour>
      <point x="403" y="127" type="curve" smooth="yes"/>
      <point x="324" y="127"/>
      <point x="303" y="182"/>
      <point x="303" y="293" type="curve" smooth="yes"/>
      <point x="303" y="961" type="line"/>
      <point x="487" y="961" type="line"/>
      <point x="487" y="1100" type="line"/>
      <point x="303" y="1100" type="line"/>
      <point x="303" y="1348" type="line"/>
      <point x="190" y="1348" type="line"/>
      <point x="145" y="1096" type="line"/>
      <point x="35" y="1051" type="line"/>
      <point x="35" y="961" type="line"/>
      <point x="137" y="961" type="line"/>
      <point x="137" y="272" type="line" smooth="yes"/>
      <point x="137" y="76"/>
      <point x="203" y="-20"/>
      <point x="348" y="-20" type="curve" smooth="yes"/>
      <point x="410" y="-20"/>
      <point x="459" y="-8"/>
      <point x="502" y="12" type="curve"/>
      <point x="502" y="147" type="line"/>
      <point x="469" y="135"/>
      <point x="436" y="127"/>
    </contour>
  </outline>
</glyph>
<glyph name="v" format="2">
  <advance width="758"/>
  <unicode hex="0076"/>
  <anchor x="379" y="0" name="bottom"/>
  <anchor x="381" y="1100" name="top"/>
  <anchor x="717" y="1100" name="topright"/>
  <outline>
    <contour>
      <point x="285" y="0" type="line"/>
      <point x="469" y="0" type="line"/>
      <point x="750" y="1100" type="line"/>
      <point x="580" y="1100" type="line"/>
      <point x="420" y="403" type="line" smooth="yes"/>
      <point x="399" y="313"/>
      <point x="385" y="238"/>
      <point x="381" y="190" type="curve"/>
      <point x="373" y="190" type="line"/>
      <point x="360" y="281"/>
      <point x="344" y="365"/>
      <point x="326" y="446" type="curve" smooth="yes"/>
      <point x="178" y="1100" type="line"/>
      <point x="8" y="1100" type="line"/>
    </contour>
  </outline>
</glyph>
<glyph name="x" format="2">
  <advance width="764"/>
  <unicode hex="0078"/>
  <anchor x="383" y="0" name="bottom"/>
  <anchor x="389" y="1100" name="top"/>
  <anchor x="723" y="1100" name="topright"/>
  <outline>
    <contour>
      <point x="289" y="567" type="line"/>
      <point x="29" y="0" type="line"/>
      <point x="203" y="0" type="line"/>
      <point x="381" y="424" type="line"/>
      <point x="561" y="0" type="line"/>
      <point x="737" y="0" type="line"/>
      <point x="481" y="559" type="line"/>
      <point x="727" y="1100" type="line"/>
      <point x="551" y="1100" type="line"/>
      <point x="385" y="702" type="line"/>
      <point x="223" y="1100" type="line"/>
      <point x="45" y="1100" type="line"/>
    </contour>
  </outline>
</glyph>
<glyph name="y" format="2">
  <advance width="758"/>
  <unicode hex="0079"/>
  <anchor x="152" y="-492" name="bottom"/>
  <anchor x="379" y="1100" name="top"/>
  <anchor x="717" y="1100" name="topright"/>
  <outline>
    <contour>
      <point x="8" y="1100" type="line"/>
      <point x="299" y="6" type="line"/>
      <point x="264" y="-133" type="line"/>
      <point x="223" y="-289"/>
      <point x="188" y="-342"/>
      <point x="109" y="-342" type="curve" smooth="yes"/>
      <point x="84" y="-342"/>
      <point x="55" y="-336"/>
      <point x="29" y="-328" type="curve"/>
      <point x="29" y="-475" type="line"/>
      <point x="66" y="-485"/>
      <point x="98" y="-492"/>
      <point x="131" y="-492" type="curve" smooth="yes"/>
      <point x="281" y="-492"/>
      <point x="365" y="-391"/>
      <point x="426" y="-166" type="curve" smooth="yes"/>
      <point x="750" y="1100" type="line"/>
      <point x="580" y="1100" type="line"/>
      <point x="434" y="477" type="line" smooth="yes"/>
      <point x="412" y="385"/>
      <point x="395" y="303"/>
      <point x="385" y="227" type="curve"/>
      <point x="377" y="227" type="line"/>
      <point x="365" y="313"/>
      <point x="346" y="399"/>
      <point x="330" y="477" type="curve" smooth="yes"/>
      <point x="180" y="1100" type="line"/>
    </contour>
  </outline>
</glyph>
<glyph name="z" format="2">
  <advance width="621"/>
  <unicode hex="007A"/>
  <anchor x="326" y="0" name="bottom"/>
  <anchor x="324" y="1100" name="top"/>
  <anchor x="580" y="1100" name="topright"/>
  <outline>
    <contour>
      <point x="578" y="0" type="line"/>
      <point x="578" y="141" type="line"/>
      <point x="236" y="141" type="line"/>
      <point x="563" y="979" type="line"/>
      <point x="563" y="1100" type="line"/>
      <point x="72" y="1100" type="line"/>
      <point x="72" y="958" type="line"/>
      <point x="381" y="958" type="line"/>
      <point x="51" y="113" type="line"/>
      <point x="51" y="0" type="line"/>
    </contour>
  </outline>
</glyph>
<glyph name="braceleft" format="2">
  <advance width="741"/>
  <unicode hex="007B"/>
  <outline>
    <contour>
      <point x="655" y="-330" type="curve"/>
      <point x="655" y="-195" type="line"/>
      <point x="512" y="-193"/>
      <point x="453" y="-133"/>
      <point x="453" y="2" type="curve" smooth="yes"/>
      <point x="453" y="309" type="line" smooth="yes"/>
      <point x="453" y="453"/>
      <point x="406" y="539"/>
      <point x="262" y="565" type="curve"/>
      <point x="262" y="573" type="line"/>
      <point x="401" y="598"/>
      <point x="453" y="678"/>
      <point x="453" y="829" type="curve" smooth="yes"/>
      <point x="453" y="1137" type="line" smooth="yes"/>
      <point x="453" y="1278"/>
      <point x="520" y="1329"/>
      <point x="655" y="1333" type="curve"/>
      <point x="655" y="1468" type="line"/>
      <point x="399" y="1464"/>
      <point x="291" y="1356"/>
      <point x="291" y="1143" type="curve" smooth="yes"/>
      <point x="291" y="834" type="line" smooth="yes"/>
      <point x="291" y="680"/>
      <point x="225" y="633"/>
      <point x="84" y="633" type="curve"/>
      <point x="84" y="506" type="line"/>
      <point x="242" y="506"/>
      <point x="291" y="440"/>
      <point x="291" y="305" type="curve" smooth="yes"/>
      <point x="291" y="-2" type="line" smooth="yes"/>
      <point x="291" y="-223"/>
      <point x="408" y="-326"/>
    </contour>
  </outline>
</glyph>
<glyph name="asciitilde" format="2">
  <advance width="881"/>
  <unicode hex="007E"/>
  <outline>
    <contour>
      <point x="420" y="655" type="curve" smooth="yes"/>
      <point x="496" y="616"/>
      <point x="543" y="596"/>
      <point x="625" y="596" type="curve" smooth="yes"/>
      <point x="702" y="596"/>
      <point x="770" y="633"/>
      <point x="823" y="696" type="curve"/>
      <point x="823" y="854" type="line"/>
      <point x="768" y="784"/>
      <point x="696" y="735"/>
      <point x="633" y="735" type="curve" smooth="yes"/>
      <point x="582" y="735"/>
      <point x="530" y="754"/>
      <point x="461" y="791" type="curve" smooth="yes"/>
      <point x="389" y="827"/>
      <point x="334" y="852"/>
      <point x="258" y="852" type="curve" smooth="yes"/>
      <point x="178" y="852"/>
      <point x="113" y="815"/>
      <point x="59" y="748" type="curve"/>
      <point x="59" y="590" type="line"/>
      <point x="121" y="666"/>
      <point x="190" y="711"/>
      <point x="250" y="711" type="curve" smooth="yes"/>
      <point x="299" y="711"/>
      <point x="358" y="690"/>
    </contour>
  </outline>
</glyph>
<glyph name="exclamdown" format="2">
  <advance width="481"/>
  <unicode hex="00A1"/>
  <outline>
    <contour>
      <point x="178" y="676" type="line"/>
      <point x="139" y="-385" type="line"/>
      <point x="340" y="-385" type="line"/>
      <point x="303" y="676" type="line"/>
    </contour>
    <contour>
      <point x="354" y="975" type="curve" smooth="yes"/>
      <point x="354" y="1065"/>
      <point x="307" y="1108"/>
      <point x="244" y="1108" type="curve" smooth="yes"/>
      <point x="170" y="1108"/>
      <point x="133" y="1061"/>
      <point x="133" y="975" type="curve" smooth="yes"/>
      <point x="133" y="889"/>
      <point x="170" y="844"/>
      <point x="244" y="844" type="curve" smooth="yes"/>
      <point x="309" y="844"/>
      <point x="354" y="883"/>
    </contour>
  </outline>
</glyph>
<glyph name="cent" format="2">
  <advance width="879"/>
  <unicode hex="00A2"/>
  <outline>
    <contour>
      <point x="555" y="1483" type="line"/>
      <point x="446" y="1483" type="line"/>
      <point x="446" y="1313" type="line"/>
      <point x="248" y="1278"/>
      <point x="152" y="1073"/>
      <point x="152" y="743" type="curve" smooth="yes"/>
      <point x="152" y="414"/>
      <point x="246" y="213"/>
      <point x="446" y="184" type="curve"/>
      <point x="446" y="-20" type="line"/>
      <point x="555" y="-20" type="line"/>
      <point x="555" y="182" type="line"/>
      <point x="621" y="190"/>
      <point x="676" y="209"/>
      <point x="719" y="236" type="curve"/>
      <point x="719" y="379" type="line"/>
      <point x="655" y="346"/>
      <point x="590" y="326"/>
      <point x="532" y="326" type="curve" smooth="yes"/>
      <point x="389" y="326"/>
      <point x="322" y="459"/>
      <point x="322" y="745" type="curve" smooth="yes"/>
      <point x="322" y="1028"/>
      <point x="387" y="1169"/>
      <point x="535" y="1169" type="curve" smooth="yes"/>
      <point x="575" y="1169"/>
      <point x="629" y="1157"/>
      <point x="680" y="1128" type="curve"/>
      <point x="731" y="1268" type="line"/>
      <point x="682" y="1296"/>
      <point x="623" y="1313"/>
      <point x="555" y="1319" type="curve"/>
    </contour>
  </outline>
</glyph>
<glyph name="brokenbar" format="2">
  <advance width="829"/>
  <unicode hex="00A6"/>
  <outline>
    <contour>
      <point x="338" y="1554" type="line"/>
      <point x="338" y="754" type="line"/>
      <point x="492" y="754" type="line"/>
      <point x="492" y="1554" type="line"/>
    </contour>
    <contour>
      <point x="338" y="317" type="line"/>
      <point x="338" y="-485" type="line"/>
      <point x="492" y="-485" type="line"/>
      <point x="492" y="317" type="line"/>
    </contour>
  </outline>
</glyph>
<glyph name="section" format="2">
  <advance width="758"/>
  <unicode hex="00A7"/>
  <outline>
    <contour>
      <point x="80" y="836" type="curve" smooth="yes"/>
      <point x="80" y="713"/>
      <point x="141" y="643"/>
      <point x="303" y="551" type="curve" smooth="yes"/>
      <point x="457" y="463"/>
      <point x="506" y="432"/>
      <point x="506" y="336" type="curve" smooth="yes"/>
      <point x="506" y="248"/>
      <point x="438" y="182"/>
      <point x="330" y="182" type="curve" smooth="yes"/>
      <point x="246" y="182"/>
      <point x="145" y="217"/>
      <point x="82" y="268" type="curve"/>
      <point x="82" y="123" type="line"/>
      <point x="150" y="80"/>
      <point x="233" y="57"/>
      <point x="334" y="57" type="curve" smooth="yes"/>
      <point x="528" y="57"/>
      <point x="657" y="168"/>
      <point x="657" y="344" type="curve" smooth="yes"/>
      <point x="657" y="432"/>
      <point x="623" y="502"/>
      <point x="541" y="569" type="curve"/>
      <point x="614" y="616"/>
      <point x="662" y="707"/>
      <point x="662" y="809" type="curve" smooth="yes"/>
      <point x="662" y="954"/>
      <point x="575" y="1028"/>
      <point x="418" y="1110" type="curve" smooth="yes"/>
      <point x="309" y="1169"/>
      <point x="250" y="1210"/>
      <point x="250" y="1300" type="curve" smooth="yes"/>
      <point x="250" y="1380"/>
      <point x="307" y="1434"/>
      <point x="403" y="1434" type="curve" smooth="yes"/>
      <point x="463" y="1434"/>
      <point x="518" y="1417"/>
      <point x="590" y="1374" type="curve"/>
      <point x="643" y="1493" type="line"/>
      <point x="561" y="1538"/>
      <point x="496" y="1556"/>
      <point x="401" y="1556" type="curve" smooth="yes"/>
      <point x="231" y="1556"/>
      <point x="100" y="1460"/>
      <point x="100" y="1292" type="curve" smooth="yes"/>
      <point x="100" y="1204"/>
      <point x="141" y="1128"/>
      <point x="227" y="1067" type="curve"/>
      <point x="135" y="1022"/>
      <point x="80" y="940"/>
    </contour>
    <contour>
      <point x="223" y="856" type="curve" smooth="yes"/>
      <point x="223" y="924"/>
      <point x="258" y="981"/>
      <point x="326" y="1006" type="curve"/>
      <point x="489" y="913"/>
      <point x="520" y="879"/>
      <point x="520" y="786" type="curve" smooth="yes"/>
      <point x="520" y="719"/>
      <point x="496" y="668"/>
      <point x="444" y="635" type="curve"/>
      <point x="371" y="674" type="line"/>
      <point x="285" y="725"/>
      <point x="223" y="774"/>
    </contour>
  </outline>
</glyph>
<glyph name="dieresis" format="2">
  <advance width="1073"/>
  <unicode hex="00A8"/>
  <outline>
    <contour>
      <point x="281" y="1368" type="curve" smooth="yes"/>
      <point x="281" y="1296"/>
      <point x="319" y="1262"/>
      <point x="369" y="1262" type="curve" smooth="yes"/>
      <point x="418" y="1262"/>
      <point x="455" y="1296"/>
      <point x="455" y="1368" type="curve" smooth="yes"/>
      <point x="455" y="1436"/>
      <point x="418" y="1470"/>
      <point x="369" y="1470" type="curve" smooth="yes"/>
      <point x="319" y="1470"/>
      <point x="281" y="1438"/>
    </contour>
    <contour>
      <point x="614" y="1368" type="curve" smooth="yes"/>
      <point x="614" y="1296"/>
      <point x="651" y="1262"/>
      <point x="702" y="1262" type="curve" smooth="yes"/>
      <point x="752" y="1262"/>
      <point x="791" y="1296"/>
      <point x="791" y="1368" type="curve" smooth="yes"/>
      <point x="791" y="1436"/>
      <point x="752" y="1470"/>
      <point x="702" y="1470" type="curve" smooth="yes"/>
      <point x="653" y="1470"/>
      <point x="614" y="1438"/>
    </contour>
  </outline>
</glyph>
<glyph name="logicalnot" format="2">
  <advance width="881"/>
  <unicode hex="00AC"/>
  <outline>
    <contour>
      <point x="801" y="793" type="line"/>
      <point x="61" y="793" type="line"/>
      <point x="61" y="653" type="line"/>
      <point x="659" y="653" type="line"/>
      <point x="659" y="246" type="line"/>
      <point x="801" y="246" type="line"/>
    </contour>
  </outline>
</glyph>
<glyph name="twosuperior" format="2">
  <advance width="643"/>
  <unicode hex="00B2"/>
  <outline>
    <contour>
      <point x="555" y="850" type="line"/>
      <point x="555" y="967" type="line"/>
      <point x="203" y="967" type="line"/>
      <point x="305" y="1092" type="line" smooth="yes"/>
      <point x="465" y="1276"/>
      <point x="539" y="1366"/>
      <point x="539" y="1513" type="curve" smooth="yes"/>
      <point x="539" y="1655"/>
      <point x="449" y="1747"/>
      <point x="291" y="1747" type="curve" smooth="yes"/>
      <point x="193" y="1747"/>
      <point x="111" y="1704"/>
      <point x="51" y="1632" type="curve"/>
      <point x="121" y="1542" type="line"/>
      <point x="172" y="1599"/>
      <point x="223" y="1626"/>
      <point x="279" y="1626" type="curve" smooth="yes"/>
      <point x="356" y="1626"/>
      <point x="399" y="1577"/>
      <point x="399" y="1505" type="curve" smooth="yes"/>
      <point x="399" y="1397"/>
      <point x="346" y="1323"/>
      <point x="233" y="1186" type="curve" smooth="yes"/>
      <point x="53" y="965" type="line"/>
      <point x="53" y="850" type="line"/>
    </contour>
  </outline>
</glyph>
<glyph name="paragraph" format="2">
  <advance width="991"/>
  <unicode hex="00B6"/>
  <outline>
    <contour>
      <point x="821" y="-260" type="line"/>
      <point x="821" y="1556" type="line"/>
      <point x="414" y="1556" type="line" smooth="yes"/>
      <point x="211" y="1556"/>
      <point x="125" y="1382"/>
      <point x="125" y="1042" type="curve" smooth="yes"/>
      <point x="125" y="705"/>
      <point x="203" y="541"/>
      <point x="371" y="541" type="curve" smooth="yes"/>
      <point x="401" y="541"/>
      <point x="426" y="547"/>
      <point x="449" y="559" type="curve"/>
      <point x="449" y="-260" type="line"/>
      <point x="567" y="-260" type="line"/>
      <point x="567" y="1440" type="line"/>
      <point x="702" y="1440" type="line"/>
      <point x="702" y="-260" type="line"/>
    </contour>
  </outline>
</glyph>
<glyph name="cedilla" format="2">
  <advance width="414"/>
  <unicode hex="00B8"/>
  <outline>
    <contour>
      <point x="377" y="-281" type="curve" smooth="yes"/>
      <point x="377" y="-188"/>
      <point x="317" y="-125"/>
      <point x="207" y="-102" type="curve"/>
      <point x="252" y="0" type="line"/>
      <point x="152" y="0" type="line"/>
      <point x="82" y="-162" type="line"/>
      <point x="180" y="-176"/>
      <point x="238" y="-209"/>
      <point x="238" y="-281" type="curve" smooth="yes"/>
      <point x="238" y="-340"/>
      <point x="197" y="-381"/>
      <point x="109" y="-381" type="curve" smooth="yes"/>
      <point x="78" y="-381"/>
      <point x="47" y="-377"/>
      <point x="20" y="-369" type="curve"/>
      <point x="20" y="-479" type="line"/>
      <point x="47" y="-487"/>
      <point x="86" y="-492"/>
      <point x="135" y="-492" type="curve" smooth="yes"/>
      <point x="287" y="-492"/>
      <point x="377" y="-418"/>
    </contour>
  </outline>
</glyph>
<glyph name="onesuperior" format="2">
  <advance width="643"/>
  <unicode hex="00B9"/>
  <outline>
    <contour>
      <point x="444" y="1726" type="line"/>
      <point x="332" y="1726" type="line"/>
      <point x="78" y="1528" type="line"/>
      <point x="147" y="1436" type="line"/>
      <point x="266" y="1526" type="line" smooth="yes"/>
      <point x="279" y="1536"/>
      <point x="297" y="1552"/>
      <point x="319" y="1573" type="curve"/>
      <point x="313" y="1509"/>
      <point x="311" y="1448"/>
      <point x="311" y="1386" type="curve" smooth="yes"/>
      <point x="311" y="850" type="line"/>
      <point x="444" y="850" type="line"/>
    </contour>
  </outline>
</glyph>
<glyph name="ordmasculine" format="2">
  <advance width="643"/>
  <unicode hex="00BA"/>
  <anchor x="322" y="782" name="bottom"/>
  <anchor x="328" y="1485" name="top"/>
  <outline>
    <contour>
      <point x="580" y="1133" type="curve" smooth="yes"/>
      <point x="580" y="1362"/>
      <point x="483" y="1479"/>
      <point x="324" y="1479" type="curve" smooth="yes"/>
      <point x="160" y="1479"/>
      <point x="61" y="1352"/>
      <point x="61" y="1133" type="curve" smooth="yes"/>
      <point x="61" y="911"/>
      <point x="154" y="782"/>
      <point x="324" y="782" type="curve" smooth="yes"/>
      <point x="489" y="782"/>
      <point x="580" y="909"/>
    </contour>
    <contour>
      <point x="195" y="1133" type="curve" smooth="yes"/>
      <point x="195" y="1296"/>
      <point x="242" y="1370"/>
      <point x="322" y="1370" type="curve" smooth="yes"/>
      <point x="412" y="1370"/>
      <point x="451" y="1296"/>
      <point x="451" y="1133" type="curve" smooth="yes"/>
      <point x="451" y="965"/>
      <point x="414" y="891"/>
      <point x="322" y="891" type="curve" smooth="yes"/>
      <point x="236" y="891"/>
      <point x="195" y="965"/>
    </contour>
  </outline>
</glyph>
<glyph name="onehalf" format="2">
  <advance width="1522"/>
  <unicode hex="00BD"/>
  <outline>
    <contour>
      <point x="289" y="0" type="line"/>
      <point x="430" y="0" type="line"/>
      <point x="1182" y="1462" type="line"/>
      <point x="1038" y="1462" type="line"/>
    </contour>
    <contour>
      <point x="289" y="586" type="line"/>
      <point x="422" y="586" type="line"/>
      <point x="422" y="1462" type="line"/>
      <point x="309" y="1462" type="line"/>
      <point x="55" y="1264" type="line"/>
      <point x="125" y="1174" type="line"/>
      <point x="244" y="1262" type="line" smooth="yes"/>
      <point x="256" y="1274"/>
      <point x="274" y="1290"/>
      <point x="297" y="1311" type="curve"/>
      <point x="291" y="1247"/>
      <point x="289" y="1186"/>
      <point x="289" y="1124" type="curve" smooth="yes"/>
    </contour>
    <contour>
      <point x="932" y="0" type="line"/>
      <point x="1434" y="0" type="line"/>
      <point x="1434" y="119" type="line"/>
      <point x="1081" y="119" type="line"/>
      <point x="1223" y="285" type="line" smooth="yes"/>
      <point x="1341" y="428"/>
      <point x="1417" y="516"/>
      <point x="1417" y="664" type="curve" smooth="yes"/>
      <point x="1417" y="805"/>
      <point x="1327" y="897"/>
      <point x="1169" y="897" type="curve" smooth="yes"/>
      <point x="1071" y="897"/>
      <point x="989" y="854"/>
      <point x="930" y="782" type="curve"/>
      <point x="999" y="692" type="line"/>
      <point x="1051" y="750"/>
      <point x="1102" y="776"/>
      <point x="1157" y="776" type="curve" smooth="yes"/>
      <point x="1235" y="776"/>
      <point x="1280" y="727"/>
      <point x="1280" y="653" type="curve" smooth="yes"/>
      <point x="1280" y="545"/>
      <point x="1227" y="471"/>
      <point x="1112" y="334" type="curve" smooth="yes"/>
      <point x="932" y="117" type="line"/>
    </contour>
  </outline>
</glyph>
<glyph name="threequarters" format="2">
  <advance width="1491"/>
  <unicode hex="00BE"/>
  <outline>
    <contour>
      <point x="342" y="0" type="line"/>
      <point x="483" y="0" type="line"/>
      <point x="1235" y="1462" type="line"/>
      <point x="1092" y="1462" type="line"/>
    </contour>
    <contour>
      <point x="268" y="569" type="curve" smooth="yes"/>
      <point x="440" y="569"/>
      <point x="559" y="666"/>
      <point x="559" y="821" type="curve" smooth="yes"/>
      <point x="559" y="938"/>
      <point x="504" y="1012"/>
      <point x="395" y="1042" type="curve"/>
      <point x="395" y="1051" type="line"/>
      <point x="483" y="1087"/>
      <point x="532" y="1159"/>
      <point x="532" y="1257" type="curve" smooth="yes"/>
      <point x="532" y="1399"/>
      <point x="438" y="1483"/>
      <point x="287" y="1483" type="curve" smooth="yes"/>
      <point x="199" y="1483"/>
      <point x="121" y="1450"/>
      <point x="49" y="1384" type="curve"/>
      <point x="115" y="1290" type="line"/>
      <point x="168" y="1339"/>
      <point x="217" y="1364"/>
      <point x="274" y="1364" type="curve" smooth="yes"/>
      <point x="356" y="1364"/>
      <point x="403" y="1319"/>
      <point x="403" y="1243" type="curve" smooth="yes"/>
      <point x="403" y="1153"/>
      <point x="346" y="1096"/>
      <point x="242" y="1096" type="curve" smooth="yes"/>
      <point x="176" y="1096" type="line"/>
      <point x="176" y="983" type="line"/>
      <point x="246" y="983" type="line" smooth="yes"/>
      <point x="365" y="983"/>
      <point x="424" y="930"/>
      <point x="424" y="827" type="curve" smooth="yes"/>
      <point x="424" y="745"/>
      <point x="377" y="692"/>
      <point x="268" y="692" type="curve" smooth="yes"/>
      <point x="190" y="692"/>
      <point x="121" y="713"/>
      <point x="57" y="752" type="curve"/>
      <point x="57" y="621" type="line"/>
      <point x="123" y="586"/>
      <point x="193" y="569"/>
    </contour>
    <contour>
      <point x="1223" y="0" type="line"/>
      <point x="1352" y="0" type="line"/>
      <point x="1352" y="188" type="line"/>
      <point x="1456" y="188" type="line"/>
      <point x="1456" y="301" type="line"/>
      <point x="1352" y="301" type="line"/>
      <point x="1352" y="881" type="line"/>
      <point x="1219" y="881" type="line"/>
      <point x="891" y="287" type="line"/>
      <point x="891" y="188" type="line"/>
      <point x="1223" y="188" type="line"/>
    </contour>
    <contour>
      <point x="1018" y="301" type="line"/>
      <point x="1182" y="610" type="line" smooth="yes"/>
      <point x="1204" y="653"/>
      <point x="1219" y="686"/>
      <point x="1227" y="711" type="curve"/>
      <point x="1223" y="676"/>
      <point x="1223" y="621"/>
      <point x="1223" y="551" type="curve" smooth="yes"/>
      <point x="1223" y="301" type="line"/>
    </contour>
  </outline>
</glyph>
<glyph name="AE" format="2">
  <advance width="1262"/>
  <unicode hex="00C6"/>
  <anchor x="631" y="0" name="bottom"/>
  <anchor x="651" y="1462" name="top"/>
  <outline>
    <contour>
      <point x="1167" y="0" type="line"/>
      <point x="1167" y="156" type="line"/>
      <point x="758" y="156" type="line"/>
      <point x="758" y="686" type="line"/>
      <point x="1141" y="686" type="line"/>
      <point x="1141" y="840" type="line"/>
      <point x="758" y="840" type="line"/>
      <point x="758" y="1307" type="line"/>
      <point x="1167" y="1307" type="line"/>
      <point x="1167" y="1462" type="line"/>
      <point x="436" y="1462" type="line"/>
      <point x="-4" y="0" type="line"/>
      <point x="182" y="0" type="line"/>
      <point x="313" y="457" type="line"/>
      <point x="586" y="457" type="line"/>
      <point x="586" y="0" type="line"/>
    </contour>
    <contour>
      <point x="356" y="616" type="line"/>
      <point x="553" y="1305" type="line"/>
      <point x="588" y="1305" type="line"/>
      <point x="588" y="616" type="line"/>
    </contour>
  </outline>
</glyph>
<glyph name="Eth" format="2">
  <advance width="1057"/>
  <unicode hex="00D0"/>
  <anchor x="528" y="0" name="bottom"/>
  <anchor x="528" y="1462" name="top"/>
  <outline>
    <contour>
      <point x="455" y="1462" type="curve" smooth="yes"/>
      <point x="147" y="1462" type="line"/>
      <point x="147" y="819" type="line"/>
      <point x="43" y="819" type="line"/>
      <point x="43" y="680" type="line"/>
      <point x="147" y="680" type="line"/>
      <point x="147" y="0" type="line"/>
      <point x="442" y="0" type="line" smooth="yes"/>
      <point x="778" y="0"/>
      <point x="954" y="256"/>
      <point x="954" y="750" type="curve" smooth="yes"/>
      <point x="954" y="1214"/>
      <point x="780" y="1462"/>
    </contour>
    <contour>
      <point x="451" y="1309" type="line" smooth="yes"/>
      <point x="666" y="1309"/>
      <point x="776" y="1118"/>
      <point x="776" y="741" type="curve" smooth="yes"/>
      <point x="776" y="352"/>
      <point x="672" y="154"/>
      <point x="438" y="154" type="curve" smooth="yes"/>
      <point x="322" y="154" type="line"/>
      <point x="322" y="680" type="line"/>
      <point x="520" y="680" type="line"/>
      <point x="520" y="819" type="line"/>
      <point x="322" y="819" type="line"/>
      <point x="322" y="1309" type="line"/>
    </contour>
  </outline>
</glyph>
<glyph name="Thorn" format="2">
  <advance width="893"/>
  <unicode hex="00DE"/>
  <anchor x="446" y="0" name="bottom"/>
  <anchor x="446" y="1462" name="top"/>
  <outline>
    <contour>
      <point x="838" y="784" type="curve" smooth="yes"/>
      <point x="838" y="1069"/>
      <point x="705" y="1208"/>
      <point x="418" y="1208" type="curve" smooth="yes"/>
      <point x="322" y="1208" type="line"/>
      <point x="322" y="1462" type="line"/>
      <point x="150" y="1462" type="line"/>
      <point x="150" y="0" type="line"/>
      <point x="322" y="0" type="line"/>
      <point x="322" y="315" type="line"/>
      <point x="418" y="315" type="line" smooth="yes"/>
      <point x="705" y="315"/>
      <point x="838" y="489"/>
    </contour>
    <contour>
      <point x="322" y="469" type="line"/>
      <point x="322" y="1055" type="line"/>
      <point x="416" y="1055" type="line" smooth="yes"/>
      <point x="588" y="1055"/>
      <point x="664" y="971"/>
      <point x="664" y="774" type="curve" smooth="yes"/>
      <point x="664" y="565"/>
      <point x="594" y="469"/>
      <point x="401" y="469" type="curve" smooth="yes"/>
    </contour>
  </outline>
</glyph>
<glyph name="germandbls" format="2">
  <advance width="936"/>
  <unicode hex="00DF"/>
  <anchor x="469" y="0" name="bottom"/>
  <anchor x="469" y="1567" name="top"/>
  <outline>
    <contour>
      <point x="776" y="1262" type="curve" smooth="yes"/>
      <point x="776" y="1458"/>
      <point x="662" y="1567"/>
      <point x="471" y="1567" type="curve" smooth="yes"/>
      <point x="260" y="1567"/>
      <point x="133" y="1419"/>
      <point x="133" y="1174" type="curve" smooth="yes"/>
      <point x="133" y="0" type="line"/>
      <point x="299" y="0" type="line"/>
      <point x="299" y="1169" type="line" smooth="yes"/>
      <point x="299" y="1333"/>
      <point x="358" y="1421"/>
      <point x="467" y="1421" type="curve" smooth="yes"/>
      <point x="563" y="1421"/>
      <point x="610" y="1362"/>
      <point x="610" y="1257" type="curve" smooth="yes"/>
      <point x="610" y="1069"/>
      <point x="424" y="1026"/>
      <point x="424" y="838" type="curve" smooth="yes"/>
      <point x="424" y="748"/>
      <point x="457" y="657"/>
      <point x="573" y="539" type="curve" smooth="yes"/>
      <point x="668" y="444"/>
      <point x="705" y="385"/>
      <point x="705" y="299" type="curve" smooth="yes"/>
      <point x="705" y="193"/>
      <point x="655" y="129"/>
      <point x="563" y="129" type="curve" smooth="yes"/>
      <point x="489" y="129"/>
      <point x="430" y="160"/>
      <point x="377" y="197" type="curve"/>
      <point x="377" y="35" type="line"/>
      <point x="432" y="-4"/>
      <point x="508" y="-20"/>
      <point x="578" y="-20" type="curve" smooth="yes"/>
      <point x="766" y="-20"/>
      <point x="872" y="104"/>
      <point x="872" y="311" type="curve" smooth="yes"/>
      <point x="872" y="442"/>
      <point x="829" y="510"/>
      <point x="698" y="647" type="curve" smooth="yes"/>
      <point x="625" y="725"/>
      <point x="588" y="776"/>
      <point x="588" y="846" type="curve" smooth="yes"/>
      <point x="588" y="981"/>
      <point x="776" y="1057"/>
    </contour>
  </outline>
</glyph>
<glyph name="ae" format="2">
  <advance width="1327"/>
  <unicode hex="00E6"/>
  <anchor x="664" y="0" name="bottom"/>
  <anchor x="676" y="1100" name="top"/>
  <outline>
    <contour>
      <point x="909" y="1118" type="curve" smooth="yes"/>
      <point x="799" y="1118"/>
      <point x="715" y="1069"/>
      <point x="657" y="971" type="curve"/>
      <point x="616" y="1071"/>
      <point x="541" y="1120"/>
      <point x="422" y="1120" type="curve" smooth="yes"/>
      <point x="313" y="1120"/>
      <point x="225" y="1087"/>
      <point x="150" y="1040" type="curve"/>
      <point x="203" y="915" type="line"/>
      <point x="281" y="961"/>
      <point x="348" y="983"/>
      <point x="410" y="983" type="curve" smooth="yes"/>
      <point x="512" y="983"/>
      <point x="557" y="901"/>
      <point x="557" y="737" type="curve" smooth="yes"/>
      <point x="557" y="666" type="line"/>
      <point x="432" y="659" type="line" smooth="yes"/>
      <point x="201" y="649"/>
      <point x="70" y="524"/>
      <point x="70" y="307" type="curve" smooth="yes"/>
      <point x="70" y="133"/>
      <point x="147" y="-20"/>
      <point x="326" y="-20" type="curve" smooth="yes"/>
      <point x="457" y="-20"/>
      <point x="553" y="47"/>
      <point x="623" y="201" type="curve"/>
      <point x="680" y="57"/>
      <point x="803" y="-20"/>
      <point x="944" y="-20" type="curve" smooth="yes"/>
      <point x="1042" y="-20"/>
      <point x="1124" y="2"/>
      <point x="1200" y="49" type="curve"/>
      <point x="1200" y="193" type="line"/>
      <point x="1120" y="143"/>
      <point x="1038" y="119"/>
      <point x="958" y="119" type="curve" smooth="yes"/>
      <point x="803" y="119"/>
      <point x="725" y="250"/>
      <point x="721" y="518" type="curve"/>
      <point x="1241" y="518" type="line"/>
      <point x="1241" y="633" type="line" smooth="yes"/>
      <point x="1241" y="905"/>
      <point x="1137" y="1118"/>
    </contour>
    <contour>
      <point x="559" y="545" type="line"/>
      <point x="559" y="434" type="line" smooth="yes"/>
      <point x="559" y="233"/>
      <point x="487" y="115"/>
      <point x="373" y="115" type="curve" smooth="yes"/>
      <point x="289" y="115"/>
      <point x="240" y="176"/>
      <point x="240" y="311" type="curve" smooth="yes"/>
      <point x="240" y="461"/>
      <point x="311" y="530"/>
      <point x="461" y="539" type="curve" smooth="yes"/>
    </contour>
    <contour>
      <point x="909" y="981" type="curve" smooth="yes"/>
      <point x="1032" y="981"/>
      <point x="1087" y="836"/>
      <point x="1087" y="649" type="curve"/>
      <point x="723" y="649" type="line"/>
      <point x="733" y="874"/>
      <point x="799" y="981"/>
    </contour>
  </outline>
</glyph>
<glyph name="eth" format="2">
  <advance width="915"/>
  <unicode hex="00F0"/>
  <anchor x="459" y="0" name="bottom"/>
  <anchor x="459" y="1561" name="top"/>
  <outline>
    <contour>
      <point x="326" y="1561" type="curve"/>
      <point x="252" y="1464" type="line"/>
      <point x="289" y="1436"/>
      <point x="328" y="1405"/>
      <point x="365" y="1368" type="curve"/>
      <point x="217" y="1272" type="line"/>
      <point x="281" y="1180" type="line"/>
      <point x="438" y="1282" type="line"/>
      <point x="535" y="1165"/>
      <point x="600" y="1032"/>
      <point x="629" y="881" type="curve"/>
      <point x="623" y="879" type="line"/>
      <point x="578" y="942"/>
      <point x="512" y="971"/>
      <point x="426" y="971" type="curve" smooth="yes"/>
      <point x="221" y="971"/>
      <point x="86" y="793"/>
      <point x="86" y="477" type="curve" smooth="yes"/>
      <point x="86" y="205"/>
      <point x="215" y="-20"/>
      <point x="455" y="-20" type="curve" smooth="yes"/>
      <point x="700" y="-20"/>
      <point x="829" y="170"/>
      <point x="829" y="530" type="curve" smooth="yes"/>
      <point x="829" y="895"/>
      <point x="735" y="1163"/>
      <point x="555" y="1370" type="curve"/>
      <point x="713" y="1468" type="line"/>
      <point x="647" y="1561" type="line"/>
      <point x="477" y="1450" type="line"/>
      <point x="426" y="1495"/>
      <point x="377" y="1532"/>
    </contour>
    <contour>
      <point x="461" y="825" type="curve" smooth="yes"/>
      <point x="596" y="825"/>
      <point x="662" y="672"/>
      <point x="662" y="487" type="curve" smooth="yes"/>
      <point x="662" y="244"/>
      <point x="604" y="123"/>
      <point x="461" y="123" type="curve" smooth="yes"/>
      <point x="315" y="123"/>
      <point x="254" y="276"/>
      <point x="254" y="471" type="curve" smooth="yes"/>
      <point x="254" y="705"/>
      <point x="326" y="825"/>
    </contour>
  </outline>
</glyph>
<glyph name="divide" format="2">
  <advance width="881"/>
  <unicode hex="00F7"/>
  <outline>
    <contour>
      <point x="61" y="653" type="line"/>
      <point x="815" y="653" type="line"/>
      <point x="815" y="793" type="line"/>
      <point x="61" y="793" type="line"/>
    </contour>
    <contour>
      <point x="442" y="229" type="curve" smooth="yes"/>
      <point x="502" y="229"/>
      <point x="543" y="270"/>
      <point x="543" y="356" type="curve" smooth="yes"/>
      <point x="543" y="440"/>
      <point x="508" y="483"/>
      <point x="442" y="483" type="curve" smooth="yes"/>
      <point x="373" y="483"/>
      <point x="338" y="440"/>
      <point x="338" y="356" type="curve" smooth="yes"/>
      <point x="338" y="272"/>
      <point x="375" y="229"/>
    </contour>
    <contour>
      <point x="442" y="961" type="curve" smooth="yes"/>
      <point x="502" y="961"/>
      <point x="543" y="1001"/>
      <point x="543" y="1087" type="curve" smooth="yes"/>
      <point x="543" y="1171"/>
      <point x="508" y="1214"/>
      <point x="442" y="1214" type="curve" smooth="yes"/>
      <point x="373" y="1214"/>
      <point x="338" y="1171"/>
      <point x="338" y="1087" type="curve" smooth="yes"/>
      <point x="338" y="1004"/>
      <point x="375" y="961"/>
    </contour>
  </outline>
</glyph>
<glyph name="oslash" format="2">
  <advance width="911"/>
  <unicode hex="00F8"/>
  <anchor x="457" y="0" name="bottom"/>
  <anchor x="457" y="1100" name="top"/>
  <outline>
    <contour>
      <point x="823" y="551" type="curve" smooth="yes"/>
      <point x="823" y="723"/>
      <point x="793" y="862"/>
      <point x="729" y="963" type="curve"/>
      <point x="821" y="1151" type="line"/>
      <point x="721" y="1200" type="line"/>
      <point x="645" y="1049" type="line"/>
      <point x="592" y="1098"/>
      <point x="530" y="1120"/>
      <point x="455" y="1120" type="curve" smooth="yes"/>
      <point x="213" y="1120"/>
      <point x="84" y="926"/>
      <point x="84" y="551" type="curve" smooth="yes"/>
      <point x="84" y="369"/>
      <point x="117" y="227"/>
      <point x="188" y="123" type="curve"/>
      <point x="84" y="-86" type="line"/>
      <point x="184" y="-135" type="line"/>
      <point x="268" y="39" type="line"/>
      <point x="317" y="0"/>
      <point x="379" y="-20"/>
      <point x="451" y="-20" type="curve" smooth="yes"/>
      <point x="690" y="-20"/>
      <point x="823" y="186"/>
    </contour>
    <contour>
      <point x="250" y="551" type="curve" smooth="yes"/>
      <point x="250" y="838"/>
      <point x="311" y="979"/>
      <point x="455" y="979" type="curve" smooth="yes"/>
      <point x="510" y="979"/>
      <point x="553" y="958"/>
      <point x="586" y="913" type="curve"/>
      <point x="279" y="295" type="line"/>
      <point x="260" y="356"/>
      <point x="250" y="442"/>
    </contour>
    <contour>
      <point x="662" y="551" type="curve" smooth="yes"/>
      <point x="662" y="264"/>
      <point x="596" y="119"/>
      <point x="453" y="119" type="curve" smooth="yes"/>
      <point x="406" y="119"/>
      <point x="365" y="137"/>
      <point x="334" y="174" type="curve"/>
      <point x="637" y="786" type="line"/>
      <point x="651" y="727"/>
      <point x="662" y="649"/>
    </contour>
  </outline>
</glyph>
<glyph name="dcroat" format="2">
  <advance width="946"/>
  <unicode hex="0111"/>
  <anchor x="473" y="0" name="bottom"/>
  <anchor x="473" y="1556" name="top"/>
  <outline>
    <contour>
      <point x="408" y="-20" type="curve" smooth="yes"/>
      <point x="514" y="-20"/>
      <point x="588" y="33"/>
      <point x="647" y="141" type="curve"/>
      <point x="659" y="141" type="line"/>
      <point x="682" y="0" type="line"/>
      <point x="815" y="0" type="line"/>
      <point x="815" y="1247" type="line"/>
      <point x="934" y="1247" type="line"/>
      <point x="934" y="1374" type="line"/>
      <point x="815" y="1374" type="line"/>
      <point x="815" y="1556" type="line"/>
      <point x="649" y="1556" type="line"/>
      <point x="649" y="1374" type="line"/>
      <point x="418" y="1374" type="line"/>
      <point x="418" y="1247" type="line"/>
      <point x="649" y="1247" type="line"/>
      <point x="649" y="1096" type="line" smooth="yes"/>
      <point x="649" y="1055"/>
      <point x="651" y="1004"/>
      <point x="655" y="944" type="curve"/>
      <point x="647" y="944" type="line"/>
      <point x="592" y="1049"/>
      <point x="502" y="1106"/>
      <point x="401" y="1106" type="curve" smooth="yes"/>
      <point x="199" y="1106"/>
      <point x="86" y="905"/>
      <point x="86" y="543" type="curve" smooth="yes"/>
      <point x="86" y="178"/>
      <point x="197" y="-20"/>
    </contour>
    <contour>
      <point x="446" y="121" type="curve" smooth="yes"/>
      <point x="315" y="121"/>
      <point x="256" y="264"/>
      <point x="256" y="541" type="curve" smooth="yes"/>
      <point x="256" y="813"/>
      <point x="313" y="956"/>
      <point x="442" y="956" type="curve" smooth="yes"/>
      <point x="586" y="956"/>
      <point x="649" y="831"/>
      <point x="649" y="553" type="curve" smooth="yes"/>
      <point x="649" y="512" type="line" smooth="yes"/>
      <point x="649" y="244"/>
      <point x="580" y="121"/>
    </contour>
  </outline>
</glyph>
<glyph name="eogonek" format="2">
  <advance width="856"/>
  <unicode hex="0119"/>
  <anchor x="471" y="-457" name="bottom"/>
  <anchor x="434" y="1100" name="top"/>
  <outline>
    <contour>
      <point x="567" y="-240" type="curve" smooth="yes"/>
      <point x="567" y="-160"/>
      <point x="627" y="-55"/>
      <point x="733" y="49" type="curve"/>
      <point x="580" y="2" type="line"/>
      <point x="494" y="-63"/>
      <point x="430" y="-162"/>
      <point x="430" y="-264" type="curve" smooth="yes"/>
      <point x="430" y="-389"/>
      <point x="492" y="-457"/>
      <point x="623" y="-457" type="curve" smooth="yes"/>
      <point x="659" y="-457"/>
      <point x="698" y="-451"/>
      <point x="727" y="-440" type="curve"/>
      <point x="727" y="-324" type="line"/>
      <point x="711" y="-330"/>
      <point x="684" y="-336"/>
      <point x="657" y="-336" type="curve" smooth="yes"/>
      <point x="600" y="-336"/>
      <point x="567" y="-303"/>
    </contour>
    <component base="e"/>
  </outline>
</glyph>
<glyph name="Hbar" format="2">
  <advance width="1092"/>
  <unicode hex="0126"/>
  <anchor x="547" y="0" name="bottom"/>
  <anchor x="547" y="1462" name="top"/>
  <outline>
    <contour>
      <point x="147" y="0" type="line"/>
      <point x="319" y="0" type="line"/>
      <point x="319" y="684" type="line"/>
      <point x="770" y="684" type="line"/>
      <point x="770" y="0" type="line"/>
      <point x="942" y="0" type="line"/>
      <point x="942" y="1085" type="line"/>
      <point x="1094" y="1085" type="line"/>
      <point x="1094" y="1219" type="line"/>
      <point x="942" y="1219" type="line"/>
      <point x="942" y="1462" type="line"/>
      <point x="770" y="1462" type="line"/>
      <point x="770" y="1219" type="line"/>
      <point x="319" y="1219" type="line"/>
      <point x="319" y="1462" type="line"/>
      <point x="147" y="1462" type="line"/>
      <point x="147" y="1219" type="line"/>
      <point x="-4" y="1219" type="line"/>
      <point x="-4" y="1085" type="line"/>
      <point x="147" y="1085" type="line"/>
    </contour>
    <contour>
      <point x="322" y="844" type="line"/>
      <point x="322" y="1085" type="line"/>
      <point x="772" y="1085" type="line"/>
      <point x="772" y="844" type="line"/>
    </contour>
  </outline>
</glyph>
<glyph name="hbar" format="2">
  <advance width="934"/>
  <unicode hex="0127"/>
  <anchor x="467" y="0" name="bottom"/>
  <anchor x="217" y="1556" name="top"/>
  <outline>
    <contour>
      <point x="299" y="1556" type="line"/>
      <point x="133" y="1556" type="line"/>
      <point x="133" y="1370" type="line"/>
      <point x="14" y="1370" type="line"/>
      <point x="14" y="1241" type="line"/>
      <point x="133" y="1241" type="line"/>
      <point x="133" y="0" type="line"/>
      <point x="297" y="0" type="line"/>
      <point x="297" y="557" type="line" smooth="yes"/>
      <point x="297" y="842"/>
      <point x="360" y="956"/>
      <point x="498" y="956" type="curve" smooth="yes"/>
      <point x="598" y="956"/>
      <point x="639" y="881"/>
      <point x="639" y="698" type="curve" smooth="yes"/>
      <point x="639" y="0" type="line"/>
      <point x="805" y="0" type="line"/>
      <point x="805" y="731" type="line" smooth="yes"/>
      <point x="805" y="977"/>
      <point x="721" y="1106"/>
      <point x="535" y="1106" type="curve" smooth="yes"/>
      <point x="432" y="1106"/>
      <point x="340" y="1044"/>
      <point x="299" y="938" type="curve"/>
      <point x="287" y="938" type="line"/>
      <point x="295" y="987"/>
      <point x="299" y="1036"/>
      <point x="299" y="1083" type="curve" smooth="yes"/>
      <point x="299" y="1241" type="line"/>
      <point x="535" y="1241" type="line"/>
      <point x="535" y="1370" type="line"/>
      <point x="299" y="1370" type="line"/>
    </contour>
  </outline>
</glyph>
<glyph name="Lslash" format="2">
  <advance width="776"/>
  <unicode hex="0141"/>
  <anchor x="442" y="0" name="bottom"/>
  <anchor x="236" y="1462" name="top"/>
  <outline>
    <contour>
      <point x="162" y="0" type="line"/>
      <point x="735" y="0" type="line"/>
      <point x="735" y="156" type="line"/>
      <point x="334" y="156" type="line"/>
      <point x="334" y="616" type="line"/>
      <point x="635" y="813" type="line"/>
      <point x="557" y="926" type="line"/>
      <point x="334" y="784" type="line"/>
      <point x="334" y="1462" type="line"/>
      <point x="162" y="1462" type="line"/>
      <point x="162" y="668" type="line"/>
      <point x="-14" y="549" type="line"/>
      <point x="68" y="438" type="line"/>
      <point x="162" y="498" type="line"/>
    </contour>
  </outline>
</glyph>
<glyph name="OE" format="2">
  <advance width="1323"/>
  <unicode hex="0152"/>
  <anchor x="662" y="0" name="bottom"/>
  <anchor x="662" y="1462" name="top"/>
  <outline>
    <contour>
      <point x="600" y="1473" type="curve"/>
      <point x="268" y="1473"/>
      <point x="102" y="1206"/>
      <point x="102" y="735" type="curve" smooth="yes"/>
      <point x="102" y="262"/>
      <point x="260" y="-10"/>
      <point x="596" y="-10" type="curve" smooth="yes"/>
      <point x="645" y="-10"/>
      <point x="686" y="-4"/>
      <point x="727" y="0" type="curve"/>
      <point x="1231" y="0" type="line"/>
      <point x="1231" y="156" type="line"/>
      <point x="821" y="156" type="line"/>
      <point x="821" y="686" type="line"/>
      <point x="1206" y="686" type="line"/>
      <point x="1206" y="840" type="line"/>
      <point x="821" y="840" type="line"/>
      <point x="821" y="1309" type="line"/>
      <point x="1231" y="1309" type="line"/>
      <point x="1231" y="1462" type="line"/>
      <point x="725" y="1462" type="line"/>
      <point x="686" y="1468"/>
      <point x="645" y="1473"/>
    </contour>
    <contour>
      <point x="602" y="1317" type="curve" smooth="yes"/>
      <point x="621" y="1317"/>
      <point x="637" y="1315"/>
      <point x="649" y="1309" type="curve"/>
      <point x="649" y="152" type="line"/>
      <point x="639" y="150"/>
      <point x="623" y="147"/>
      <point x="606" y="147" type="curve" smooth="yes"/>
      <point x="356" y="152"/>
      <point x="283" y="377"/>
      <point x="283" y="733" type="curve" smooth="yes"/>
      <point x="283" y="1083"/>
      <point x="352" y="1311"/>
    </contour>
  </outline>
</glyph>
<glyph name="oe" format="2">
  <advance width="1423"/>
  <unicode hex="0153"/>
  <anchor x="713" y="0" name="bottom"/>
  <anchor x="713" y="1100" name="top"/>
  <outline>
    <contour>
      <point x="1010" y="1118" type="curve" smooth="yes"/>
      <point x="881" y="1118"/>
      <point x="793" y="1055"/>
      <point x="735" y="924" type="curve"/>
      <point x="676" y="1055"/>
      <point x="584" y="1120"/>
      <point x="457" y="1120" type="curve" smooth="yes"/>
      <point x="207" y="1120"/>
      <point x="86" y="918"/>
      <point x="86" y="551" type="curve" smooth="yes"/>
      <point x="86" y="195"/>
      <point x="215" y="-20"/>
      <point x="453" y="-20" type="curve" smooth="yes"/>
      <point x="586" y="-20"/>
      <point x="680" y="47"/>
      <point x="737" y="178" type="curve"/>
      <point x="801" y="47"/>
      <point x="901" y="-20"/>
      <point x="1044" y="-20" type="curve" smooth="yes"/>
      <point x="1139" y="-20"/>
      <point x="1221" y="2"/>
      <point x="1296" y="49" type="curve"/>
      <point x="1296" y="193" type="line"/>
      <point x="1214" y="141"/>
      <point x="1139" y="119"/>
      <point x="1059" y="119" type="curve" smooth="yes"/>
      <point x="899" y="119"/>
      <point x="819" y="250"/>
      <point x="817" y="518" type="curve"/>
      <point x="1337" y="518" type="line"/>
      <point x="1337" y="633" type="line" smooth="yes"/>
      <point x="1337" y="903"/>
      <point x="1237" y="1118"/>
    </contour>
    <contour>
      <point x="457" y="975" type="curve" smooth="yes"/>
      <point x="592" y="975"/>
      <point x="655" y="834"/>
      <point x="655" y="551" type="curve" smooth="yes"/>
      <point x="655" y="258"/>
      <point x="594" y="123"/>
      <point x="457" y="123" type="curve" smooth="yes"/>
      <point x="324" y="123"/>
      <point x="256" y="266"/>
      <point x="256" y="551" type="curve" smooth="yes"/>
      <point x="256" y="834"/>
      <point x="315" y="975"/>
    </contour>
    <contour>
      <point x="1006" y="981" type="curve" smooth="yes"/>
      <point x="1128" y="981"/>
      <point x="1184" y="834"/>
      <point x="1184" y="649" type="curve"/>
      <point x="819" y="649" type="line"/>
      <point x="829" y="874"/>
      <point x="893" y="981"/>
    </contour>
  </outline>
</glyph>
<glyph name="Tbar" format="2">
  <advance width="780"/>
  <unicode hex="0166"/>
  <anchor x="391" y="0" name="bottom"/>
  <anchor x="391" y="1462" name="top"/>
  <outline>
    <contour>
      <point x="303" y="0" type="line"/>
      <point x="475" y="0" type="line"/>
      <point x="475" y="666" type="line"/>
      <point x="682" y="666" type="line"/>
      <point x="682" y="805" type="line"/>
      <point x="475" y="805" type="line"/>
      <point x="475" y="1305" type="line"/>
      <point x="758" y="1305" type="line"/>
      <point x="758" y="1462" type="line"/>
      <point x="20" y="1462" type="line"/>
      <point x="20" y="1305" type="line"/>
      <point x="303" y="1305" type="line"/>
      <point x="303" y="805" type="line"/>
      <point x="96" y="805" type="line"/>
      <point x="96" y="666" type="line"/>
      <point x="303" y="666" type="line"/>
    </contour>
  </outline>
</glyph>
<glyph name="tbar" format="2">
  <advance width="530"/>
  <unicode hex="0167"/>
  <anchor x="326" y="0" name="bottom"/>
  <anchor x="244" y="1348" name="top"/>
  <outline>
    <contour>
      <point x="37" y="559" type="line"/>
      <point x="479" y="559" type="line"/>
      <point x="479" y="686" type="line"/>
      <point x="37" y="686" type="line"/>
    </contour>
    <component base="t"/>
  </outline>
</glyph>
<glyph name="longs" format="2">
  <advance width="465"/>
  <unicode hex="017F"/>
  <anchor x="233" y="0" name="bottom"/>
  <anchor x="336" y="1567" name="top"/>
  <outline>
    <contour>
      <point x="416" y="1421" type="curve" smooth="yes"/>
      <point x="444" y="1421"/>
      <point x="481" y="1413"/>
      <point x="514" y="1401" type="curve"/>
      <point x="557" y="1534" type="line"/>
      <point x="500" y="1556"/>
      <point x="451" y="1567"/>
      <point x="393" y="1567" type="curve" smooth="yes"/>
      <point x="201" y="1567"/>
      <point x="143" y="1423"/>
      <point x="143" y="1169" type="curve" smooth="yes"/>
      <point x="143" y="0" type="line"/>
      <point x="309" y="0" type="line"/>
      <point x="309" y="1176" type="line" smooth="yes"/>
      <point x="311" y="1356"/>
      <point x="332" y="1421"/>
    </contour>
  </outline>
</glyph>
<glyph name="uni0181" format="2">
  <advance width="1133"/>
  <unicode hex="0181"/>
  <anchor x="567" y="0" name="bottom"/>
  <anchor x="567" y="1462" name="top"/>
  <outline>
    <contour>
      <point x="305" y="0" type="line"/>
      <point x="680" y="0" type="line" smooth="yes"/>
      <point x="920" y="0"/>
      <point x="1053" y="166"/>
      <point x="1053" y="420" type="curve" smooth="yes"/>
      <point x="1053" y="616"/>
      <point x="977" y="727"/>
      <point x="815" y="766" type="curve"/>
      <point x="815" y="774" type="line"/>
      <point x="950" y="805"/>
      <point x="1024" y="922"/>
      <point x="1024" y="1110" type="curve" smooth="yes"/>
      <point x="1024" y="1346"/>
      <point x="887" y="1462"/>
      <point x="629" y="1462" type="curve" smooth="yes"/>
      <point x="285" y="1462" type="line" smooth="yes"/>
      <point x="90" y="1462"/>
      <point x="16" y="1337"/>
      <point x="16" y="1180" type="curve" smooth="yes"/>
      <point x="16" y="1126"/>
      <point x="25" y="1079"/>
      <point x="33" y="1055" type="curve"/>
      <point x="178" y="1055" type="line"/>
      <point x="172" y="1073"/>
      <point x="164" y="1118"/>
      <point x="164" y="1169" type="curve" smooth="yes"/>
      <point x="164" y="1251"/>
      <point x="195" y="1315"/>
      <point x="268" y="1315" type="curve" smooth="yes"/>
      <point x="305" y="1315" type="line"/>
    </contour>
    <contour>
      <point x="477" y="150" type="line"/>
      <point x="477" y="690" type="line"/>
      <point x="641" y="690" type="line" smooth="yes"/>
      <point x="788" y="690"/>
      <point x="874" y="598"/>
      <point x="874" y="428" type="curve" smooth="yes"/>
      <point x="874" y="242"/>
      <point x="803" y="150"/>
      <point x="662" y="150" type="curve" smooth="yes"/>
    </contour>
    <contour>
      <point x="477" y="836" type="line"/>
      <point x="477" y="1315" type="line"/>
      <point x="627" y="1315" type="line" smooth="yes"/>
      <point x="772" y="1315"/>
      <point x="848" y="1237"/>
      <point x="848" y="1094" type="curve" smooth="yes"/>
      <point x="848" y="922"/>
      <point x="782" y="836"/>
      <point x="629" y="836" type="curve" smooth="yes"/>
    </contour>
  </outline>
</glyph>
<glyph name="uni0183" format="2">
  <advance width="946"/>
  <unicode hex="0183"/>
  <anchor x="473" y="0" name="bottom"/>
  <anchor x="473" y="1556" name="top"/>
  <outline>
    <contour>
      <point x="547" y="-20" type="curve" smooth="yes"/>
      <point x="750" y="-20"/>
      <point x="862" y="182"/>
      <point x="862" y="545" type="curve" smooth="yes"/>
      <point x="862" y="911"/>
      <point x="750" y="1106"/>
      <point x="541" y="1106" type="curve" smooth="yes"/>
      <point x="440" y="1106"/>
      <point x="360" y="1053"/>
      <point x="301" y="942" type="curve"/>
      <point x="293" y="942" type="line"/>
      <point x="295" y="1001"/>
      <point x="299" y="1057"/>
      <point x="299" y="1100" type="curve" smooth="yes"/>
      <point x="299" y="1415" type="line"/>
      <point x="756" y="1415" type="line"/>
      <point x="756" y="1556" type="line"/>
      <point x="133" y="1556" type="line"/>
      <point x="133" y="0" type="line"/>
      <point x="268" y="0" type="line"/>
      <point x="291" y="139" type="line"/>
      <point x="301" y="139" type="line"/>
      <point x="362" y="29"/>
      <point x="442" y="-20"/>
    </contour>
    <contour>
      <point x="506" y="123" type="curve" smooth="yes"/>
      <point x="367" y="123"/>
      <point x="299" y="258"/>
      <point x="299" y="526" type="curve" smooth="yes"/>
      <point x="299" y="555" type="line" smooth="yes"/>
      <point x="299" y="788"/>
      <point x="338" y="958"/>
      <point x="504" y="958" type="curve" smooth="yes"/>
      <point x="635" y="958"/>
      <point x="692" y="821"/>
      <point x="692" y="547" type="curve" smooth="yes"/>
      <point x="692" y="256"/>
      <point x="631" y="123"/>
    </contour>
  </outline>
</glyph>
<glyph name="uni0186" format="2">
  <advance width="913"/>
  <unicode hex="0186"/>
  <anchor x="375" y="0" name="bottom"/>
  <anchor x="375" y="1462" name="top"/>
  <outline>
    <contour>
      <point x="324" y="-20" type="curve"/>
      <point x="623" y="-20"/>
      <point x="813" y="272"/>
      <point x="811" y="745" type="curve"/>
      <point x="811" y="1165"/>
      <point x="666" y="1485"/>
      <point x="334" y="1485" type="curve" smooth="yes"/>
      <point x="233" y="1485"/>
      <point x="133" y="1460"/>
      <point x="49" y="1411" type="curve"/>
      <point x="109" y="1266" type="line"/>
      <point x="170" y="1305"/>
      <point x="246" y="1329"/>
      <point x="319" y="1329" type="curve" smooth="yes"/>
      <point x="547" y="1329"/>
      <point x="631" y="1049"/>
      <point x="631" y="731" type="curve"/>
      <point x="633" y="360"/>
      <point x="506" y="135"/>
      <point x="303" y="135" type="curve" smooth="yes"/>
      <point x="223" y="135"/>
      <point x="152" y="158"/>
      <point x="86" y="190" type="curve"/>
      <point x="86" y="35" type="line"/>
      <point x="152" y="-2"/>
      <point x="229" y="-20"/>
    </contour>
  </outline>
</glyph>
<glyph name="uni0187" format="2">
  <advance width="913"/>
  <unicode hex="0187"/>
  <anchor x="547" y="0" name="bottom"/>
  <anchor x="567" y="1729" name="top"/>
  <outline>
    <contour>
      <point x="913" y="1774" type="curve" smooth="yes"/>
      <point x="809" y="1774"/>
      <point x="717" y="1708"/>
      <point x="717" y="1536" type="curve" smooth="yes"/>
      <point x="717" y="1466" type="line"/>
      <point x="676" y="1479"/>
      <point x="637" y="1485"/>
      <point x="592" y="1485" type="curve" smooth="yes"/>
      <point x="262" y="1485"/>
      <point x="102" y="1149"/>
      <point x="102" y="733" type="curve" smooth="yes"/>
      <point x="102" y="260"/>
      <point x="289" y="-20"/>
      <point x="588" y="-20" type="curve" smooth="yes"/>
      <point x="682" y="-20"/>
      <point x="762" y="-2"/>
      <point x="827" y="35" type="curve"/>
      <point x="827" y="190" type="line"/>
      <point x="762" y="158"/>
      <point x="690" y="135"/>
      <point x="608" y="135" type="curve" smooth="yes"/>
      <point x="408" y="133"/>
      <point x="281" y="360"/>
      <point x="281" y="731" type="curve" smooth="yes"/>
      <point x="281" y="1049"/>
      <point x="373" y="1329"/>
      <point x="598" y="1329" type="curve" smooth="yes"/>
      <point x="674" y="1329"/>
      <point x="741" y="1305"/>
      <point x="803" y="1266" type="curve"/>
      <point x="864" y="1411" type="line"/>
      <point x="864" y="1511" type="line" smooth="yes"/>
      <point x="864" y="1604"/>
      <point x="893" y="1626"/>
      <point x="938" y="1626" type="curve" smooth="yes"/>
      <point x="971" y="1626"/>
      <point x="1001" y="1612"/>
      <point x="1016" y="1604" type="curve"/>
      <point x="1016" y="1749" type="line"/>
      <point x="997" y="1761"/>
      <point x="963" y="1774"/>
    </contour>
  </outline>
</glyph>
<glyph name="uni018A" format="2">
  <advance width="1212"/>
  <unicode hex="018A"/>
  <anchor x="608" y="0" name="bottom"/>
  <anchor x="608" y="1462" name="top"/>
  <outline>
    <contour>
      <point x="305" y="0" type="line"/>
      <point x="600" y="0" type="line" smooth="yes"/>
      <point x="936" y="0"/>
      <point x="1112" y="256"/>
      <point x="1112" y="750" type="curve" smooth="yes"/>
      <point x="1112" y="1214"/>
      <point x="938" y="1462"/>
      <point x="610" y="1462" type="curve" smooth="yes"/>
      <point x="283" y="1462" type="line" smooth="yes"/>
      <point x="90" y="1462"/>
      <point x="16" y="1331"/>
      <point x="16" y="1167" type="curve" smooth="yes"/>
      <point x="16" y="1122"/>
      <point x="27" y="1079"/>
      <point x="35" y="1055" type="curve"/>
      <point x="178" y="1055" type="line"/>
      <point x="172" y="1073"/>
      <point x="164" y="1116"/>
      <point x="164" y="1161" type="curve" smooth="yes"/>
      <point x="164" y="1247"/>
      <point x="195" y="1309"/>
      <point x="268" y="1309" type="curve" smooth="yes"/>
      <point x="305" y="1309" type="line"/>
    </contour>
    <contour>
      <point x="477" y="154" type="line"/>
      <point x="477" y="1309" type="line"/>
      <point x="606" y="1309" type="line" smooth="yes"/>
      <point x="821" y="1309"/>
      <point x="932" y="1118"/>
      <point x="932" y="741" type="curve" smooth="yes"/>
      <point x="932" y="352"/>
      <point x="827" y="154"/>
      <point x="594" y="154" type="curve" smooth="yes"/>
    </contour>
  </outline>
</glyph>
<glyph name="uni018B" format="2">
  <advance width="924"/>
  <unicode hex="018B"/>
  <anchor x="463" y="0" name="bottom"/>
  <anchor x="463" y="1462" name="top"/>
  <outline>
    <contour>
      <point x="483" y="0" type="curve" smooth="yes"/>
      <point x="774" y="0" type="line"/>
      <point x="774" y="1462" type="line"/>
      <point x="141" y="1462" type="line"/>
      <point x="141" y="1307" type="line"/>
      <point x="602" y="1307" type="line"/>
      <point x="602" y="852" type="line"/>
      <point x="489" y="852" type="line" smooth="yes"/>
      <point x="207" y="852"/>
      <point x="66" y="717"/>
      <point x="66" y="432" type="curve" smooth="yes"/>
      <point x="66" y="160"/>
      <point x="219" y="0"/>
    </contour>
    <contour>
      <point x="485" y="152" type="line" smooth="yes"/>
      <point x="326" y="152"/>
      <point x="240" y="248"/>
      <point x="240" y="430" type="curve" smooth="yes"/>
      <point x="240" y="614"/>
      <point x="317" y="700"/>
      <point x="487" y="700" type="curve" smooth="yes"/>
      <point x="602" y="700" type="line"/>
      <point x="602" y="152" type="line"/>
    </contour>
  </outline>
</glyph>
<glyph name="uni018C" format="2">
  <advance width="946"/>
  <unicode hex="018C"/>
  <anchor x="473" y="0" name="bottom"/>
  <anchor x="473" y="1556" name="top"/>
  <outline>
    <contour>
      <point x="408" y="-20" type="curve" smooth="yes"/>
      <point x="514" y="-20"/>
      <point x="590" y="35"/>
      <point x="649" y="139" type="curve"/>
      <point x="659" y="139" type="line"/>
      <point x="682" y="0" type="line"/>
      <point x="815" y="0" type="line"/>
      <point x="815" y="1556" type="line"/>
      <point x="186" y="1556" type="line"/>
      <point x="186" y="1415" type="line"/>
      <point x="649" y="1415" type="line"/>
      <point x="649" y="1100" type="line" smooth="yes"/>
      <point x="649" y="1059"/>
      <point x="651" y="1010"/>
      <point x="655" y="950" type="curve"/>
      <point x="647" y="950" type="line"/>
      <point x="592" y="1053"/>
      <point x="502" y="1110"/>
      <point x="401" y="1110" type="curve" smooth="yes"/>
      <point x="199" y="1110"/>
      <point x="86" y="907"/>
      <point x="86" y="547" type="curve" smooth="yes"/>
      <point x="86" y="176"/>
      <point x="197" y="-20"/>
    </contour>
    <contour>
      <point x="446" y="121" type="curve" smooth="yes"/>
      <point x="315" y="121"/>
      <point x="256" y="262"/>
      <point x="256" y="545" type="curve" smooth="yes"/>
      <point x="256" y="817"/>
      <point x="313" y="963"/>
      <point x="442" y="963" type="curve" smooth="yes"/>
      <point x="586" y="963"/>
      <point x="649" y="838"/>
      <point x="649" y="557" type="curve" smooth="yes"/>
      <point x="649" y="494" type="line" smooth="yes"/>
      <point x="649" y="244"/>
      <point x="580" y="121"/>
    </contour>
  </outline>
</glyph>
<glyph name="uni0190" format="2">
  <advance width="887"/>
  <unicode hex="0190"/>
  <anchor x="444" y="0" name="bottom"/>
  <anchor x="444" y="1462" name="top"/>
  <outline>
    <contour>
      <point x="518" y="1483" type="curve" smooth="yes"/>
      <point x="293" y="1483"/>
      <point x="143" y="1331"/>
      <point x="143" y="1116" type="curve" smooth="yes"/>
      <point x="143" y="928"/>
      <point x="233" y="799"/>
      <point x="395" y="758" type="curve"/>
      <point x="395" y="750" type="line"/>
      <point x="211" y="727"/>
      <point x="115" y="598"/>
      <point x="115" y="389" type="curve" smooth="yes"/>
      <point x="115" y="133"/>
      <point x="246" y="-20"/>
      <point x="526" y="-20" type="curve" smooth="yes"/>
      <point x="639" y="-20"/>
      <point x="745" y="6"/>
      <point x="829" y="47" type="curve"/>
      <point x="829" y="213" type="line"/>
      <point x="758" y="166"/>
      <point x="645" y="135"/>
      <point x="551" y="135" type="curve" smooth="yes"/>
      <point x="375" y="135"/>
      <point x="293" y="221"/>
      <point x="293" y="406" type="curve" smooth="yes"/>
      <point x="293" y="596"/>
      <point x="389" y="682"/>
      <point x="590" y="682" type="curve" smooth="yes"/>
      <point x="698" y="682" type="line"/>
      <point x="698" y="836" type="line"/>
      <point x="594" y="836" type="line" smooth="yes"/>
      <point x="412" y="836"/>
      <point x="319" y="926"/>
      <point x="319" y="1106" type="curve" smooth="yes"/>
      <point x="319" y="1255"/>
      <point x="408" y="1327"/>
      <point x="537" y="1327" type="curve" smooth="yes"/>
      <point x="623" y="1327"/>
      <point x="696" y="1290"/>
      <point x="748" y="1233" type="curve"/>
      <point x="831" y="1362" type="line"/>
      <point x="745" y="1440"/>
      <point x="653" y="1483"/>
    </contour>
  </outline>
</glyph>
<glyph name="uni0191" format="2">
  <advance width="956"/>
  <unicode hex="0191"/>
  <anchor x="256" y="0" name="bottom"/>
  <anchor x="647" y="1462" name="top"/>
  <anchor x="952" y="1462" name="topright"/>
  <outline>
    <contour>
      <point x="256" y="-31" type="curve" smooth="yes"/>
      <point x="434" y="-31"/>
      <point x="541" y="100"/>
      <point x="541" y="303" type="curve" smooth="yes"/>
      <point x="541" y="686" type="line"/>
      <point x="885" y="686" type="line"/>
      <point x="885" y="842" type="line"/>
      <point x="541" y="842" type="line"/>
      <point x="541" y="1309" type="line"/>
      <point x="909" y="1309" type="line"/>
      <point x="909" y="1462" type="line"/>
      <point x="367" y="1462" type="line"/>
      <point x="367" y="303" type="line" smooth="yes"/>
      <point x="367" y="178"/>
      <point x="326" y="115"/>
      <point x="246" y="115" type="curve" smooth="yes"/>
      <point x="178" y="115"/>
      <point x="143" y="166"/>
      <point x="143" y="248" type="curve" smooth="yes"/>
      <point x="143" y="283"/>
      <point x="147" y="303"/>
      <point x="152" y="319" type="curve"/>
      <point x="14" y="362" type="line"/>
      <point x="4" y="334"/>
      <point x="-4" y="293"/>
      <point x="-4" y="248" type="curve" smooth="yes"/>
      <point x="-4" y="76"/>
      <point x="92" y="-31"/>
    </contour>
  </outline>
</glyph>
<glyph name="uni0195" format="2">
  <advance width="1440"/>
  <unicode hex="0195"/>
  <anchor x="721" y="0" name="bottom"/>
  <anchor x="721" y="1100" name="top"/>
  <outline>
    <contour>
      <point x="975" y="-23" type="curve" smooth="yes"/>
      <point x="1196" y="-23"/>
      <point x="1313" y="104"/>
      <point x="1313" y="403" type="curve" smooth="yes"/>
      <point x="1313" y="1100" type="line"/>
      <point x="1147" y="1100" type="line"/>
      <point x="1147" y="410" type="line" smooth="yes"/>
      <point x="1147" y="195"/>
      <point x="1090" y="129"/>
      <point x="977" y="129" type="curve" smooth="yes"/>
      <point x="860" y="129"/>
      <point x="805" y="203"/>
      <point x="805" y="442" type="curve" smooth="yes"/>
      <point x="805" y="745" type="line" smooth="yes"/>
      <point x="805" y="989"/>
      <point x="723" y="1120"/>
      <point x="535" y="1120" type="curve" smooth="yes"/>
      <point x="432" y="1120"/>
      <point x="340" y="1059"/>
      <point x="299" y="952" type="curve"/>
      <point x="287" y="952" type="line"/>
      <point x="295" y="1001"/>
      <point x="299" y="1057"/>
      <point x="299" y="1116" type="curve" smooth="yes"/>
      <point x="299" y="1556" type="line"/>
      <point x="133" y="1556" type="line"/>
      <point x="133" y="0" type="line"/>
      <point x="299" y="0" type="line"/>
      <point x="299" y="571" type="line" smooth="yes"/>
      <point x="299" y="846"/>
      <point x="358" y="971"/>
      <point x="500" y="971" type="curve" smooth="yes"/>
      <point x="600" y="971"/>
      <point x="639" y="897"/>
      <point x="639" y="713" type="curve" smooth="yes"/>
      <point x="639" y="424" type="line" smooth="yes"/>
      <point x="639" y="70"/>
      <point x="756" y="-23"/>
    </contour>
  </outline>
</glyph>
<glyph name="uni0198" format="2">
  <advance width="969"/>
  <unicode hex="0198"/>
  <anchor x="465" y="0" name="bottom"/>
  <anchor x="465" y="1462" name="top"/>
  <outline>
    <contour>
      <point x="850" y="1479" type="curve" smooth="yes"/>
      <point x="756" y="1479"/>
      <point x="705" y="1436"/>
      <point x="625" y="1290" type="curve" smooth="yes"/>
      <point x="432" y="940" type="line" smooth="yes"/>
      <point x="391" y="866"/>
      <point x="352" y="795"/>
      <point x="322" y="723" type="curve"/>
      <point x="322" y="1462" type="line"/>
      <point x="150" y="1462" type="line"/>
      <point x="150" y="0" type="line"/>
      <point x="322" y="0" type="line"/>
      <point x="322" y="553" type="line"/>
      <point x="426" y="676" type="line"/>
      <point x="731" y="0" type="line"/>
      <point x="924" y="0" type="line"/>
      <point x="543" y="815" type="line"/>
      <point x="772" y="1223" type="line" smooth="yes"/>
      <point x="817" y="1303"/>
      <point x="844" y="1325"/>
      <point x="881" y="1325" type="curve" smooth="yes"/>
      <point x="909" y="1325"/>
      <point x="936" y="1317"/>
      <point x="950" y="1311" type="curve"/>
      <point x="950" y="1460" type="line"/>
      <point x="928" y="1470"/>
      <point x="891" y="1479"/>
    </contour>
  </outline>
</glyph>
<glyph name="uni0199" format="2">
  <advance width="817"/>
  <unicode hex="0199"/>
  <anchor x="410" y="0" name="bottom"/>
  <anchor x="410" y="1567" name="top"/>
  <outline>
    <contour>
      <point x="358" y="1567" type="curve" smooth="yes"/>
      <point x="209" y="1567"/>
      <point x="133" y="1462"/>
      <point x="133" y="1278" type="curve" smooth="yes"/>
      <point x="133" y="0" type="line"/>
      <point x="299" y="0" type="line"/>
      <point x="299" y="408" type="line"/>
      <point x="412" y="543" type="line"/>
      <point x="631" y="0" type="line"/>
      <point x="809" y="0" type="line"/>
      <point x="524" y="676" type="line"/>
      <point x="791" y="1100" type="line"/>
      <point x="612" y="1100" type="line"/>
      <point x="367" y="692" type="line" smooth="yes"/>
      <point x="342" y="653"/>
      <point x="319" y="610"/>
      <point x="297" y="565" type="curve"/>
      <point x="289" y="565" type="line"/>
      <point x="295" y="637"/>
      <point x="299" y="709"/>
      <point x="299" y="784" type="curve" smooth="yes"/>
      <point x="299" y="1270" type="line" smooth="yes"/>
      <point x="299" y="1382"/>
      <point x="322" y="1417"/>
      <point x="385" y="1417" type="curve" smooth="yes"/>
      <point x="408" y="1417"/>
      <point x="432" y="1411"/>
      <point x="457" y="1401" type="curve"/>
      <point x="457" y="1548" type="line"/>
      <point x="434" y="1559"/>
      <point x="393" y="1567"/>
    </contour>
  </outline>
</glyph>
<glyph name="uni019C" format="2">
  <advance width="1692"/>
  <unicode hex="019C"/>
  <anchor x="846" y="0" name="bottom"/>
  <anchor x="846" y="1462" name="top"/>
  <outline>
    <contour>
      <point x="438" y="-20" type="curve" smooth="yes"/>
      <point x="549" y="-20"/>
      <point x="672" y="23"/>
      <point x="766" y="172" type="curve"/>
      <point x="774" y="172" type="line"/>
      <point x="813" y="39"/>
      <point x="905" y="-23"/>
      <point x="1055" y="-20" type="curve" smooth="yes"/>
      <point x="1165" y="-20"/>
      <point x="1280" y="27"/>
      <point x="1370" y="154" type="curve"/>
      <point x="1378" y="154" type="line"/>
      <point x="1403" y="0" type="line"/>
      <point x="1542" y="0" type="line"/>
      <point x="1542" y="1462" type="line"/>
      <point x="1370" y="1462" type="line"/>
      <point x="1370" y="420" type="line" smooth="yes"/>
      <point x="1370" y="221"/>
      <point x="1208" y="137"/>
      <point x="1114" y="135" type="curve" smooth="yes"/>
      <point x="981" y="135"/>
      <point x="926" y="211"/>
      <point x="926" y="383" type="curve" smooth="yes"/>
      <point x="926" y="1462" type="line"/>
      <point x="754" y="1462" type="line"/>
      <point x="754" y="420" type="line" smooth="yes"/>
      <point x="754" y="221"/>
      <point x="590" y="137"/>
      <point x="498" y="135" type="curve" smooth="yes"/>
      <point x="365" y="135"/>
      <point x="309" y="211"/>
      <point x="309" y="383" type="curve" smooth="yes"/>
      <point x="309" y="1462" type="line"/>
      <point x="137" y="1462" type="line"/>
      <point x="137" y="352" type="line" smooth="yes"/>
      <point x="137" y="92"/>
      <point x="233" y="-23"/>
    </contour>
  </outline>
</glyph>
<glyph name="uni019D" format="2">
  <advance width="1165"/>
  <unicode hex="019D"/>
  <anchor x="584" y="-395" name="bottom"/>
  <anchor x="584" y="1462" name="top"/>
  <outline>
    <contour>
      <point x="37" y="-395" type="curve" smooth="yes"/>
      <point x="221" y="-395"/>
      <point x="311" y="-289"/>
      <point x="311" y="-23" type="curve" smooth="yes"/>
      <point x="311" y="897" type="line" smooth="yes"/>
      <point x="311" y="981"/>
      <point x="307" y="1079"/>
      <point x="297" y="1192" type="curve"/>
      <point x="305" y="1192" type="line"/>
      <point x="809" y="0" type="line"/>
      <point x="1016" y="0" type="line"/>
      <point x="1016" y="1462" type="line"/>
      <point x="852" y="1462" type="line"/>
      <point x="852" y="586" type="line" smooth="yes"/>
      <point x="852" y="508"/>
      <point x="856" y="410"/>
      <point x="862" y="289" type="curve"/>
      <point x="854" y="289" type="line"/>
      <point x="358" y="1462" type="line"/>
      <point x="147" y="1462" type="line"/>
      <point x="147" y="12" type="line" smooth="yes"/>
      <point x="147" y="-172"/>
      <point x="109" y="-240"/>
      <point x="18" y="-240" type="curve" smooth="yes"/>
      <point x="-25" y="-240"/>
      <point x="-61" y="-231"/>
      <point x="-94" y="-219" type="curve"/>
      <point x="-94" y="-373" type="line"/>
      <point x="-55" y="-389"/>
      <point x="-12" y="-395"/>
    </contour>
  </outline>
</glyph>
<glyph name="ohorn" format="2">
  <advance width="954"/>
  <unicode hex="01A1"/>
  <anchor x="453" y="0" name="bottom"/>
  <anchor x="457" y="1100" name="top"/>
  <outline>
    <contour>
      <point x="825" y="551" type="curve" smooth="yes"/>
      <point x="825" y="672"/>
      <point x="811" y="772"/>
      <point x="780" y="856" type="curve"/>
      <point x="913" y="901"/>
      <point x="987" y="1008"/>
      <point x="1004" y="1235" type="curve"/>
      <point x="989" y="1260" type="line"/>
      <point x="838" y="1260" type="line"/>
      <point x="836" y="1108"/>
      <point x="809" y="1004"/>
      <point x="725" y="971" type="curve"/>
      <point x="662" y="1069"/>
      <point x="569" y="1120"/>
      <point x="457" y="1120" type="curve" smooth="yes"/>
      <point x="215" y="1120"/>
      <point x="86" y="926"/>
      <point x="86" y="551" type="curve" smooth="yes"/>
      <point x="86" y="188"/>
      <point x="221" y="-20"/>
      <point x="453" y="-20" type="curve" smooth="yes"/>
      <point x="692" y="-20"/>
      <point x="825" y="186"/>
    </contour>
    <contour>
      <point x="256" y="551" type="curve" smooth="yes"/>
      <point x="256" y="834"/>
      <point x="315" y="975"/>
      <point x="457" y="975" type="curve" smooth="yes"/>
      <point x="594" y="975"/>
      <point x="657" y="834"/>
      <point x="657" y="551" type="curve" smooth="yes"/>
      <point x="657" y="266"/>
      <point x="594" y="123"/>
      <point x="457" y="123" type="curve" smooth="yes"/>
      <point x="324" y="123"/>
      <point x="256" y="266"/>
    </contour>
  </outline>
</glyph>
<glyph name="uni01A2" format="2">
  <advance width="1708"/>
  <unicode hex="01A2"/>
  <anchor x="854" y="0" name="bottom"/>
  <anchor x="854" y="1462" name="top"/>
  <outline>
    <contour>
      <point x="1026" y="733" type="curve" smooth="yes"/>
      <point x="1026" y="885"/>
      <point x="1010" y="1028"/>
      <point x="971" y="1145" type="curve"/>
      <point x="1038" y="1257"/>
      <point x="1130" y="1325"/>
      <point x="1206" y="1327" type="curve" smooth="yes"/>
      <point x="1339" y="1327"/>
      <point x="1401" y="1251"/>
      <point x="1401" y="1079" type="curve" smooth="yes"/>
      <point x="1401" y="0" type="line"/>
      <point x="1573" y="0" type="line"/>
      <point x="1573" y="1110" type="line" smooth="yes"/>
      <point x="1573" y="1370"/>
      <point x="1458" y="1483"/>
      <point x="1255" y="1483" type="curve" smooth="yes"/>
      <point x="1133" y="1483"/>
      <point x="1016" y="1403"/>
      <point x="924" y="1257" type="curve"/>
      <point x="848" y="1397"/>
      <point x="733" y="1483"/>
      <point x="565" y="1483" type="curve" smooth="yes"/>
      <point x="258" y="1483"/>
      <point x="102" y="1235"/>
      <point x="102" y="735" type="curve" smooth="yes"/>
      <point x="102" y="319"/>
      <point x="227" y="-20"/>
      <point x="565" y="-20" type="curve" smooth="yes"/>
      <point x="897" y="-20"/>
      <point x="1026" y="311"/>
    </contour>
    <contour>
      <point x="281" y="733" type="curve" smooth="yes"/>
      <point x="281" y="1124"/>
      <point x="375" y="1327"/>
      <point x="565" y="1327" type="curve" smooth="yes"/>
      <point x="750" y="1327"/>
      <point x="844" y="1128"/>
      <point x="844" y="733" type="curve" smooth="yes"/>
      <point x="844" y="334"/>
      <point x="748" y="137"/>
      <point x="563" y="137" type="curve" smooth="yes"/>
      <point x="379" y="137"/>
      <point x="281" y="340"/>
    </contour>
  </outline>
</glyph>
<glyph name="uni01A4" format="2">
  <advance width="1047"/>
  <unicode hex="01A4"/>
  <anchor x="524" y="0" name="bottom"/>
  <anchor x="524" y="1462" name="top"/>
  <outline>
    <contour>
      <point x="291" y="0" type="line"/>
      <point x="463" y="0" type="line"/>
      <point x="463" y="569" type="line"/>
      <point x="557" y="569" type="line" smooth="yes"/>
      <point x="842" y="569"/>
      <point x="983" y="731"/>
      <point x="983" y="1030" type="curve" smooth="yes"/>
      <point x="983" y="1323"/>
      <point x="850" y="1462"/>
      <point x="561" y="1462" type="curve" smooth="yes"/>
      <point x="283" y="1462" type="line" smooth="yes"/>
      <point x="90" y="1462"/>
      <point x="16" y="1331"/>
      <point x="16" y="1167" type="curve" smooth="yes"/>
      <point x="16" y="1122"/>
      <point x="27" y="1079"/>
      <point x="35" y="1055" type="curve"/>
      <point x="178" y="1055" type="line"/>
      <point x="172" y="1073"/>
      <point x="164" y="1116"/>
      <point x="164" y="1161" type="curve" smooth="yes"/>
      <point x="164" y="1247"/>
      <point x="195" y="1309"/>
      <point x="268" y="1309" type="curve" smooth="yes"/>
      <point x="291" y="1309" type="line"/>
    </contour>
    <contour>
      <point x="463" y="721" type="line"/>
      <point x="463" y="1311" type="line"/>
      <point x="555" y="1311" type="line" smooth="yes"/>
      <point x="729" y="1311"/>
      <point x="809" y="1229"/>
      <point x="809" y="1028" type="curve" smooth="yes"/>
      <point x="809" y="809"/>
      <point x="731" y="721"/>
      <point x="541" y="721" type="curve" smooth="yes"/>
    </contour>
  </outline>
</glyph>
<glyph name="uni01A5" format="2">
  <advance width="946"/>
  <unicode hex="01A5"/>
  <anchor x="473" y="-492" name="bottom"/>
  <anchor x="473" y="1567" name="top"/>
  <outline>
    <contour>
      <point x="358" y="1567" type="curve" smooth="yes"/>
      <point x="209" y="1567"/>
      <point x="133" y="1462"/>
      <point x="133" y="1278" type="curve" smooth="yes"/>
      <point x="133" y="-492" type="line"/>
      <point x="299" y="-492" type="line"/>
      <point x="299" y="0" type="line" smooth="yes"/>
      <point x="299" y="41"/>
      <point x="295" y="90"/>
      <point x="291" y="147" type="curve"/>
      <point x="299" y="147" type="line"/>
      <point x="350" y="41"/>
      <point x="442" y="-20"/>
      <point x="549" y="-20" type="curve" smooth="yes"/>
      <point x="750" y="-20"/>
      <point x="862" y="188"/>
      <point x="862" y="551" type="curve" smooth="yes"/>
      <point x="862" y="930"/>
      <point x="750" y="1120"/>
      <point x="539" y="1120" type="curve" smooth="yes"/>
      <point x="440" y="1120"/>
      <point x="358" y="1069"/>
      <point x="299" y="950" type="curve"/>
      <point x="289" y="950" type="line"/>
      <point x="295" y="991"/>
      <point x="299" y="1030"/>
      <point x="299" y="1065" type="curve" smooth="yes"/>
      <point x="299" y="1270" type="line" smooth="yes"/>
      <point x="299" y="1382"/>
      <point x="322" y="1417"/>
      <point x="385" y="1417" type="curve" smooth="yes"/>
      <point x="408" y="1417"/>
      <point x="432" y="1411"/>
      <point x="457" y="1401" type="curve"/>
      <point x="457" y="1548" type="line"/>
      <point x="434" y="1559"/>
      <point x="393" y="1567"/>
    </contour>
    <contour>
      <point x="502" y="977" type="curve" smooth="yes"/>
      <point x="639" y="977"/>
      <point x="692" y="834"/>
      <point x="692" y="549" type="curve" smooth="yes"/>
      <point x="692" y="260"/>
      <point x="631" y="125"/>
      <point x="504" y="125" type="curve" smooth="yes"/>
      <point x="365" y="125"/>
      <point x="299" y="254"/>
      <point x="299" y="543" type="curve" smooth="yes"/>
      <point x="299" y="584" type="line" smooth="yes"/>
      <point x="299" y="854"/>
      <point x="365" y="977"/>
    </contour>
  </outline>
</glyph>
<glyph name="uni01A6" format="2">
  <advance width="944"/>
  <unicode hex="01A6"/>
  <anchor x="473" y="-205" name="bottom"/>
  <anchor x="473" y="1462" name="top"/>
  <outline>
    <contour>
      <point x="727" y="-205" type="line"/>
      <point x="918" y="-205" type="line"/>
      <point x="623" y="451" type="line"/>
      <point x="780" y="522"/>
      <point x="846" y="653"/>
      <point x="846" y="846" type="curve" smooth="yes"/>
      <point x="846" y="1120"/>
      <point x="709" y="1257"/>
      <point x="408" y="1257" type="curve" smooth="yes"/>
      <point x="322" y="1257" type="line"/>
      <point x="322" y="1462" type="line"/>
      <point x="150" y="1462" type="line"/>
      <point x="150" y="0" type="line"/>
      <point x="322" y="0" type="line"/>
      <point x="322" y="408" type="line"/>
      <point x="467" y="408" type="line"/>
    </contour>
    <contour>
      <point x="322" y="551" type="line"/>
      <point x="322" y="1102" type="line"/>
      <point x="410" y="1102" type="line" smooth="yes"/>
      <point x="588" y="1102"/>
      <point x="670" y="1024"/>
      <point x="670" y="838" type="curve" smooth="yes"/>
      <point x="670" y="647"/>
      <point x="584" y="551"/>
      <point x="428" y="551" type="curve" smooth="yes"/>
    </contour>
  </outline>
</glyph>
<glyph name="uni01A8" format="2">
  <advance width="694"/>
  <unicode hex="01A8"/>
  <anchor x="348" y="0" name="bottom"/>
  <anchor x="348" y="1100" name="top"/>
  <outline>
    <contour>
      <point x="338" y="1120" type="curve" smooth="yes"/>
      <point x="242" y="1120"/>
      <point x="147" y="1096"/>
      <point x="72" y="1049" type="curve"/>
      <point x="127" y="918" type="line"/>
      <point x="186" y="956"/>
      <point x="256" y="979"/>
      <point x="322" y="979" type="curve" smooth="yes"/>
      <point x="416" y="979"/>
      <point x="469" y="922"/>
      <point x="469" y="836" type="curve" smooth="yes"/>
      <point x="469" y="748"/>
      <point x="416" y="702"/>
      <point x="297" y="625" type="curve" smooth="yes"/>
      <point x="162" y="537"/>
      <point x="66" y="453"/>
      <point x="66" y="281" type="curve" smooth="yes"/>
      <point x="66" y="84"/>
      <point x="172" y="-20"/>
      <point x="365" y="-20" type="curve" smooth="yes"/>
      <point x="477" y="-20"/>
      <point x="565" y="8"/>
      <point x="627" y="45" type="curve"/>
      <point x="627" y="205" type="line"/>
      <point x="567" y="162"/>
      <point x="475" y="129"/>
      <point x="383" y="129" type="curve" smooth="yes"/>
      <point x="287" y="129"/>
      <point x="229" y="178"/>
      <point x="229" y="287" type="curve" smooth="yes"/>
      <point x="229" y="371"/>
      <point x="285" y="428"/>
      <point x="391" y="496" type="curve" smooth="yes"/>
      <point x="532" y="586"/>
      <point x="631" y="672"/>
      <point x="631" y="840" type="curve" smooth="yes"/>
      <point x="631" y="1008"/>
      <point x="518" y="1120"/>
    </contour>
  </outline>
</glyph>
<glyph name="uni01AB" format="2">
  <advance width="530"/>
  <unicode hex="01AB"/>
  <anchor x="266" y="-492" name="bottom"/>
  <anchor x="266" y="1348" name="top"/>
  <outline>
    <contour>
      <point x="276" y="-492" type="curve" smooth="yes"/>
      <point x="426" y="-492"/>
      <point x="502" y="-387"/>
      <point x="502" y="-203" type="curve" smooth="yes"/>
      <point x="502" y="147" type="line"/>
      <point x="469" y="135"/>
      <point x="436" y="127"/>
      <point x="403" y="127" type="curve" smooth="yes"/>
      <point x="324" y="127"/>
      <point x="303" y="182"/>
      <point x="303" y="293" type="curve" smooth="yes"/>
      <point x="303" y="961" type="line"/>
      <point x="487" y="961" type="line"/>
      <point x="487" y="1100" type="line"/>
      <point x="303" y="1100" type="line"/>
      <point x="303" y="1348" type="line"/>
      <point x="190" y="1348" type="line"/>
      <point x="145" y="1096" type="line"/>
      <point x="35" y="1051" type="line"/>
      <point x="35" y="961" type="line"/>
      <point x="137" y="961" type="line"/>
      <point x="137" y="268" type="line" smooth="yes"/>
      <point x="137" y="82"/>
      <point x="203" y="-18"/>
      <point x="328" y="-18" type="curve" smooth="yes"/>
      <point x="332" y="-18"/>
      <point x="336" y="-18"/>
      <point x="340" y="-18" type="curve"/>
      <point x="340" y="-195" type="line" smooth="yes"/>
      <point x="340" y="-307"/>
      <point x="311" y="-342"/>
      <point x="248" y="-342" type="curve" smooth="yes"/>
      <point x="225" y="-342"/>
      <point x="201" y="-336"/>
      <point x="176" y="-326" type="curve"/>
      <point x="176" y="-473" type="line"/>
      <point x="199" y="-483"/>
      <point x="242" y="-492"/>
    </contour>
  </outline>
</glyph>
<glyph name="uni01AC" format="2">
  <advance width="846"/>
  <unicode hex="01AC"/>
  <anchor x="424" y="0" name="bottom"/>
  <anchor x="424" y="1462" name="top"/>
  <outline>
    <contour>
      <point x="369" y="0" type="line"/>
      <point x="541" y="0" type="line"/>
      <point x="541" y="1307" type="line"/>
      <point x="823" y="1307" type="line"/>
      <point x="823" y="1462" type="line"/>
      <point x="283" y="1462" type="line" smooth="yes"/>
      <point x="90" y="1462"/>
      <point x="16" y="1331"/>
      <point x="16" y="1167" type="curve" smooth="yes"/>
      <point x="16" y="1122"/>
      <point x="27" y="1079"/>
      <point x="35" y="1055" type="curve"/>
      <point x="178" y="1055" type="line"/>
      <point x="172" y="1073"/>
      <point x="164" y="1116"/>
      <point x="164" y="1161" type="curve" smooth="yes"/>
      <point x="164" y="1247"/>
      <point x="195" y="1307"/>
      <point x="268" y="1307" type="curve" smooth="yes"/>
      <point x="369" y="1307" type="line"/>
    </contour>
  </outline>
</glyph>
<glyph name="uni01AE" format="2">
  <advance width="780"/>
  <unicode hex="01AE"/>
  <anchor x="391" y="-395" name="bottom"/>
  <anchor x="391" y="1462" name="top"/>
  <outline>
    <contour>
      <point x="578" y="-395" type="curve" smooth="yes"/>
      <point x="627" y="-395"/>
      <point x="670" y="-389"/>
      <point x="709" y="-373" type="curve"/>
      <point x="709" y="-219" type="line"/>
      <point x="676" y="-231"/>
      <point x="639" y="-240"/>
      <point x="596" y="-240" type="curve" smooth="yes"/>
      <point x="506" y="-240"/>
      <point x="475" y="-172"/>
      <point x="475" y="-18" type="curve" smooth="yes"/>
      <point x="475" y="1307" type="line"/>
      <point x="758" y="1307" type="line"/>
      <point x="758" y="1462" type="line"/>
      <point x="20" y="1462" type="line"/>
      <point x="20" y="1307" type="line"/>
      <point x="303" y="1307" type="line"/>
      <point x="303" y="-39" type="line" smooth="yes"/>
      <point x="303" y="-289"/>
      <point x="395" y="-395"/>
    </contour>
  </outline>
</glyph>
<glyph name="Uhorn" format="2">
  <advance width="1190"/>
  <unicode hex="01AF"/>
  <anchor x="539" y="0" name="bottom"/>
  <anchor x="545" y="1462" name="top"/>
  <outline>
    <contour>
      <point x="932" y="1462" type="line"/>
      <point x="758" y="1462" type="line"/>
      <point x="758" y="498" type="line" smooth="yes"/>
      <point x="758" y="254"/>
      <point x="684" y="137"/>
      <point x="537" y="137" type="curve" smooth="yes"/>
      <point x="391" y="137"/>
      <point x="309" y="256"/>
      <point x="309" y="496" type="curve" smooth="yes"/>
      <point x="309" y="1462" type="line"/>
      <point x="137" y="1462" type="line"/>
      <point x="137" y="500" type="line" smooth="yes"/>
      <point x="137" y="160"/>
      <point x="276" y="-20"/>
      <point x="537" y="-20" type="curve" smooth="yes"/>
      <point x="797" y="-20"/>
      <point x="932" y="156"/>
      <point x="932" y="502" type="curve" smooth="yes"/>
      <point x="932" y="1135" type="line"/>
      <point x="1124" y="1151"/>
      <point x="1227" y="1270"/>
      <point x="1249" y="1532" type="curve"/>
      <point x="1233" y="1556" type="line"/>
      <point x="1081" y="1556" type="line"/>
      <point x="1081" y="1397"/>
      <point x="1055" y="1278"/>
      <point x="932" y="1260" type="curve"/>
    </contour>
  </outline>
</glyph>
<glyph name="uni01B2" format="2">
  <advance width="1069"/>
  <unicode hex="01B2"/>
  <anchor x="541" y="0" name="bottom"/>
  <anchor x="541" y="1462" name="top"/>
  <anchor x="1028" y="1462" name="topright"/>
  <outline>
    <contour>
      <point x="537" y="-20" type="curve" smooth="yes"/>
      <point x="797" y="-20"/>
      <point x="932" y="127"/>
      <point x="932" y="459" type="curve" smooth="yes"/>
      <point x="932" y="1253" type="line" smooth="yes"/>
      <point x="932" y="1399"/>
      <point x="860" y="1483"/>
      <point x="727" y="1483" type="curve" smooth="yes"/>
      <point x="672" y="1483"/>
      <point x="608" y="1466"/>
      <point x="580" y="1446" type="curve"/>
      <point x="580" y="1298" type="line"/>
      <point x="602" y="1313"/>
      <point x="637" y="1327"/>
      <point x="672" y="1327" type="curve" smooth="yes"/>
      <point x="721" y="1327"/>
      <point x="758" y="1296"/>
      <point x="758" y="1225" type="curve" smooth="yes"/>
      <point x="758" y="457" type="line" smooth="yes"/>
      <point x="758" y="227"/>
      <point x="684" y="137"/>
      <point x="537" y="137" type="curve" smooth="yes"/>
      <point x="391" y="137"/>
      <point x="309" y="229"/>
      <point x="309" y="455" type="curve" smooth="yes"/>
      <point x="309" y="1462" type="line"/>
      <point x="137" y="1462" type="line"/>
      <point x="137" y="457" type="line" smooth="yes"/>
      <point x="137" y="131"/>
      <point x="276" y="-20"/>
    </contour>
  </outline>
</glyph>
<glyph name="uni01B3" format="2">
  <advance width="860"/>
  <unicode hex="01B3"/>
  <anchor x="410" y="0" name="bottom"/>
  <anchor x="410" y="1462" name="top"/>
  <outline>
    <contour>
      <point x="315" y="0" type="line"/>
      <point x="487" y="0" type="line"/>
      <point x="487" y="569" type="line"/>
      <point x="696" y="1217" type="line" smooth="yes"/>
      <point x="725" y="1303"/>
      <point x="748" y="1325"/>
      <point x="786" y="1325" type="curve" smooth="yes"/>
      <point x="815" y="1325"/>
      <point x="838" y="1317"/>
      <point x="852" y="1311" type="curve"/>
      <point x="852" y="1460" type="line"/>
      <point x="829" y="1470"/>
      <point x="797" y="1479"/>
      <point x="752" y="1479" type="curve" smooth="yes"/>
      <point x="653" y="1479"/>
      <point x="592" y="1434"/>
      <point x="549" y="1282" type="curve" smooth="yes"/>
      <point x="403" y="774" type="line"/>
      <point x="180" y="1462" type="line"/>
      <point x="0" y="1462" type="line"/>
      <point x="315" y="565" type="line"/>
    </contour>
  </outline>
</glyph>
<glyph name="uni01B4" format="2">
  <advance width="819"/>
  <unicode hex="01B4"/>
  <anchor x="410" y="-492" name="bottom"/>
  <anchor x="410" y="1100" name="top"/>
  <outline>
    <contour>
      <point x="723" y="1116" type="curve" smooth="yes"/>
      <point x="621" y="1116"/>
      <point x="569" y="1059"/>
      <point x="539" y="928" type="curve" smooth="yes"/>
      <point x="434" y="477" type="line" smooth="yes"/>
      <point x="414" y="385"/>
      <point x="395" y="303"/>
      <point x="385" y="227" type="curve"/>
      <point x="377" y="227" type="line"/>
      <point x="365" y="313"/>
      <point x="348" y="399"/>
      <point x="330" y="477" type="curve" smooth="yes"/>
      <point x="180" y="1100" type="line"/>
      <point x="8" y="1100" type="line"/>
      <point x="299" y="6" type="line"/>
      <point x="264" y="-133" type="line"/>
      <point x="223" y="-289"/>
      <point x="188" y="-342"/>
      <point x="109" y="-342" type="curve" smooth="yes"/>
      <point x="84" y="-342"/>
      <point x="55" y="-336"/>
      <point x="29" y="-328" type="curve"/>
      <point x="29" y="-475" type="line"/>
      <point x="66" y="-485"/>
      <point x="98" y="-492"/>
      <point x="131" y="-492" type="curve" smooth="yes"/>
      <point x="281" y="-492"/>
      <point x="369" y="-393"/>
      <point x="426" y="-166" type="curve" smooth="yes"/>
      <point x="674" y="821" type="line" smooth="yes"/>
      <point x="705" y="940"/>
      <point x="729" y="963"/>
      <point x="770" y="963" type="curve" smooth="yes"/>
      <point x="784" y="963"/>
      <point x="801" y="958"/>
      <point x="817" y="952" type="curve"/>
      <point x="817" y="1100" type="line"/>
      <point x="797" y="1108"/>
      <point x="756" y="1116"/>
    </contour>
  </outline>
</glyph>
<glyph name="uni01B5" format="2">
  <advance width="739"/>
  <unicode hex="01B5"/>
  <anchor x="371" y="0" name="bottom"/>
  <anchor x="371" y="1462" name="top"/>
  <outline>
    <contour>
      <point x="96" y="836" type="line"/>
      <point x="96" y="696" type="line"/>
      <point x="264" y="696" type="line"/>
      <point x="53" y="133" type="line"/>
      <point x="53" y="0" type="line"/>
      <point x="698" y="0" type="line"/>
      <point x="698" y="156" type="line"/>
      <point x="236" y="156" type="line"/>
      <point x="438" y="696" type="line"/>
      <point x="668" y="696" type="line"/>
      <point x="668" y="836" type="line"/>
      <point x="500" y="836" type="line"/>
      <point x="686" y="1327" type="line"/>
      <point x="686" y="1462" type="line"/>
      <point x="61" y="1462" type="line"/>
      <point x="61" y="1307" type="line"/>
      <point x="500" y="1307" type="line"/>
      <point x="326" y="836" type="line"/>
    </contour>
  </outline>
</glyph>
<glyph name="uni01B6" format="2">
  <advance width="621"/>
  <unicode hex="01B6"/>
  <anchor x="311" y="0" name="bottom"/>
  <anchor x="311" y="1100" name="top"/>
  <outline>
    <contour>
      <point x="563" y="1100" type="line"/>
      <point x="72" y="1100" type="line"/>
      <point x="72" y="958" type="line"/>
      <point x="381" y="958" type="line"/>
      <point x="256" y="623" type="line"/>
      <point x="76" y="623" type="line"/>
      <point x="76" y="494" type="line"/>
      <point x="199" y="494" type="line"/>
      <point x="51" y="113" type="line"/>
      <point x="51" y="0" type="line"/>
      <point x="578" y="0" type="line"/>
      <point x="578" y="141" type="line"/>
      <point x="236" y="141" type="line"/>
      <point x="369" y="494" type="line"/>
      <point x="557" y="494" type="line"/>
      <point x="557" y="623" type="line"/>
      <point x="426" y="623" type="line"/>
      <point x="563" y="979" type="line"/>
    </contour>
  </outline>
</glyph>
<glyph name="uni01B8" format="2">
  <advance width="874"/>
  <unicode hex="01B8"/>
  <anchor x="438" y="0" name="bottom"/>
  <anchor x="438" y="1462" name="top"/>
  <outline>
    <contour>
      <point x="526" y="-20" type="curve" smooth="yes"/>
      <point x="631" y="-20"/>
      <point x="750" y="10"/>
      <point x="819" y="61" type="curve"/>
      <point x="819" y="233" type="line"/>
      <point x="750" y="172"/>
      <point x="637" y="135"/>
      <point x="543" y="135" type="curve" smooth="yes"/>
      <point x="350" y="135"/>
      <point x="272" y="236"/>
      <point x="272" y="426" type="curve" smooth="yes"/>
      <point x="272" y="610"/>
      <point x="365" y="702"/>
      <point x="549" y="702" type="curve" smooth="yes"/>
      <point x="651" y="702" type="line"/>
      <point x="651" y="831" type="line"/>
      <point x="350" y="1307" type="line"/>
      <point x="784" y="1307" type="line"/>
      <point x="784" y="1462" type="line"/>
      <point x="150" y="1462" type="line"/>
      <point x="150" y="1327" type="line"/>
      <point x="467" y="842" type="line"/>
      <point x="221" y="825"/>
      <point x="94" y="668"/>
      <point x="94" y="422" type="curve" smooth="yes"/>
      <point x="94" y="139"/>
      <point x="238" y="-20"/>
    </contour>
  </outline>
</glyph>
<glyph name="uni01B9" format="2">
  <advance width="760"/>
  <unicode hex="01B9"/>
  <anchor x="381" y="-492" name="bottom"/>
  <anchor x="381" y="1100" name="top"/>
  <outline>
    <contour>
      <point x="489" y="-492" type="curve" smooth="yes"/>
      <point x="610" y="-492"/>
      <point x="680" y="-457"/>
      <point x="727" y="-430" type="curve"/>
      <point x="727" y="-268" type="line"/>
      <point x="672" y="-301"/>
      <point x="602" y="-340"/>
      <point x="496" y="-340" type="curve" smooth="yes"/>
      <point x="324" y="-340"/>
      <point x="236" y="-209"/>
      <point x="236" y="12" type="curve" smooth="yes"/>
      <point x="236" y="223"/>
      <point x="330" y="326"/>
      <point x="516" y="326" type="curve" smooth="yes"/>
      <point x="584" y="326" type="line"/>
      <point x="584" y="449" type="line"/>
      <point x="289" y="956" type="line"/>
      <point x="686" y="956" type="line"/>
      <point x="686" y="1100" type="line"/>
      <point x="98" y="1100" type="line"/>
      <point x="98" y="983" type="line"/>
      <point x="408" y="459" type="line"/>
      <point x="199" y="440"/>
      <point x="66" y="301"/>
      <point x="66" y="16" type="curve" smooth="yes"/>
      <point x="66" y="-281"/>
      <point x="209" y="-492"/>
    </contour>
  </outline>
</glyph>
<glyph name="uni01BA" format="2">
  <advance width="750"/>
  <unicode hex="01BA"/>
  <anchor x="375" y="-492" name="bottom"/>
  <anchor x="375" y="1100" name="top"/>
  <outline>
    <contour>
      <point x="315" y="-492" type="curve" smooth="yes"/>
      <point x="438" y="-492"/>
      <point x="549" y="-459"/>
      <point x="616" y="-426" type="curve"/>
      <point x="616" y="-276" type="line"/>
      <point x="545" y="-313"/>
      <point x="451" y="-348"/>
      <point x="338" y="-348" type="curve" smooth="yes"/>
      <point x="236" y="-348"/>
      <point x="164" y="-299"/>
      <point x="164" y="-221" type="curve" smooth="yes"/>
      <point x="164" y="-135"/>
      <point x="223" y="-102"/>
      <point x="352" y="-100" type="curve" smooth="yes"/>
      <point x="559" y="-100"/>
      <point x="682" y="31"/>
      <point x="682" y="276" type="curve" smooth="yes"/>
      <point x="682" y="487"/>
      <point x="563" y="602"/>
      <point x="358" y="618" type="curve"/>
      <point x="635" y="983" type="line"/>
      <point x="635" y="1100" type="line"/>
      <point x="57" y="1100" type="line"/>
      <point x="57" y="956" type="line"/>
      <point x="424" y="956" type="line"/>
      <point x="166" y="610" type="line"/>
      <point x="166" y="492" type="line"/>
      <point x="270" y="492" type="line" smooth="yes"/>
      <point x="428" y="492"/>
      <point x="514" y="422"/>
      <point x="514" y="279" type="curve" smooth="yes"/>
      <point x="514" y="125"/>
      <point x="442" y="45"/>
      <point x="317" y="45" type="curve" smooth="yes"/>
      <point x="111" y="43"/>
      <point x="-2" y="-41"/>
      <point x="-2" y="-219" type="curve" smooth="yes"/>
      <point x="-2" y="-401"/>
      <point x="133" y="-492"/>
    </contour>
  </outline>
</glyph>
<glyph name="uni01BC" format="2">
  <advance width="879"/>
  <unicode hex="01BC"/>
  <anchor x="440" y="0" name="bottom"/>
  <anchor x="440" y="1462" name="top"/>
  <outline>
    <contour>
      <point x="367" y="-20" type="curve" smooth="yes"/>
      <point x="639" y="-20"/>
      <point x="786" y="178"/>
      <point x="786" y="471" type="curve" smooth="yes"/>
      <point x="786" y="725"/>
      <point x="662" y="899"/>
      <point x="420" y="899" type="curve"/>
      <point x="377" y="899" type="line"/>
      <point x="377" y="1309" type="line"/>
      <point x="715" y="1309" type="line"/>
      <point x="715" y="1462" type="line"/>
      <point x="82" y="1462" type="line"/>
      <point x="82" y="1309" type="line"/>
      <point x="213" y="1309" type="line"/>
      <point x="213" y="754" type="line"/>
      <point x="371" y="754" type="line"/>
      <point x="524" y="754"/>
      <point x="612" y="655"/>
      <point x="612" y="465" type="curve" smooth="yes"/>
      <point x="612" y="283"/>
      <point x="530" y="129"/>
      <point x="356" y="129" type="curve" smooth="yes"/>
      <point x="268" y="129"/>
      <point x="176" y="160"/>
      <point x="100" y="211" type="curve"/>
      <point x="100" y="41" type="line"/>
      <point x="168" y="0"/>
      <point x="256" y="-20"/>
    </contour>
  </outline>
</glyph>
<glyph name="uni01BE" format="2">
  <advance width="676"/>
  <unicode hex="01BE"/>
  <anchor x="338" y="0" name="bottom"/>
  <anchor x="338" y="1348" name="top"/>
  <outline>
    <contour>
      <point x="295" y="-20" type="curve" smooth="yes"/>
      <point x="489" y="-20"/>
      <point x="596" y="100"/>
      <point x="598" y="281" type="curve" smooth="yes"/>
      <point x="598" y="416"/>
      <point x="565" y="494"/>
      <point x="449" y="621" type="curve" smooth="yes"/>
      <point x="375" y="700"/>
      <point x="348" y="760"/>
      <point x="348" y="844" type="curve" smooth="yes"/>
      <point x="348" y="961" type="line"/>
      <point x="547" y="961" type="line"/>
      <point x="547" y="1100" type="line"/>
      <point x="348" y="1100" type="line"/>
      <point x="348" y="1348" type="line"/>
      <point x="236" y="1348" type="line"/>
      <point x="188" y="1096" type="line"/>
      <point x="59" y="1051" type="line"/>
      <point x="59" y="961" type="line"/>
      <point x="184" y="961" type="line"/>
      <point x="184" y="827" type="line" smooth="yes"/>
      <point x="184" y="715"/>
      <point x="205" y="637"/>
      <point x="291" y="553" type="curve" smooth="yes"/>
      <point x="385" y="453"/>
      <point x="428" y="383"/>
      <point x="428" y="291" type="curve" smooth="yes"/>
      <point x="428" y="186"/>
      <point x="369" y="131"/>
      <point x="272" y="131" type="curve" smooth="yes"/>
      <point x="190" y="131"/>
      <point x="117" y="150"/>
      <point x="43" y="193" type="curve"/>
      <point x="43" y="29" type="line"/>
      <point x="111" y="-4"/>
      <point x="193" y="-20"/>
    </contour>
  </outline>
</glyph>
<glyph name="uni01BF" format="2">
  <advance width="946"/>
  <unicode hex="01BF"/>
  <anchor x="473" y="-492" name="bottom"/>
  <anchor x="473" y="1100" name="top"/>
  <outline>
    <contour>
      <point x="539" y="1120" type="curve" smooth="yes"/>
      <point x="440" y="1120"/>
      <point x="354" y="1075"/>
      <point x="299" y="950" type="curve"/>
      <point x="289" y="950" type="line"/>
      <point x="268" y="1100" type="line"/>
      <point x="133" y="1100" type="line"/>
      <point x="133" y="-492" type="line"/>
      <point x="299" y="-492" type="line"/>
      <point x="299" y="-20" type="line"/>
      <point x="547" y="-14"/>
      <point x="862" y="197"/>
      <point x="862" y="666" type="curve" smooth="yes"/>
      <point x="862" y="950"/>
      <point x="750" y="1120"/>
    </contour>
    <contour>
      <point x="502" y="977" type="curve" smooth="yes"/>
      <point x="639" y="977"/>
      <point x="692" y="844"/>
      <point x="692" y="662" type="curve" smooth="yes"/>
      <point x="692" y="289"/>
      <point x="463" y="129"/>
      <point x="299" y="125" type="curve"/>
      <point x="299" y="584" type="line" smooth="yes"/>
      <point x="299" y="854"/>
      <point x="365" y="977"/>
    </contour>
  </outline>
</glyph>
<glyph name="uni01C2" format="2">
  <advance width="834"/>
  <unicode hex="01C2"/>
  <anchor x="418" y="0" name="bottom"/>
  <anchor x="418" y="1563" name="top"/>
  <outline>
    <contour>
      <point x="492" y="1563" type="line"/>
      <point x="338" y="1563" type="line"/>
      <point x="338" y="1047" type="line"/>
      <point x="115" y="1047" type="line"/>
      <point x="115" y="909" type="line"/>
      <point x="338" y="909" type="line"/>
      <point x="338" y="684" type="line"/>
      <point x="115" y="684" type="line"/>
      <point x="115" y="545" type="line"/>
      <point x="338" y="545" type="line"/>
      <point x="338" y="0" type="line"/>
      <point x="492" y="0" type="line"/>
      <point x="492" y="545" type="line"/>
      <point x="717" y="545" type="line"/>
      <point x="717" y="684" type="line"/>
      <point x="492" y="684" type="line"/>
      <point x="492" y="909" type="line"/>
      <point x="717" y="909" type="line"/>
      <point x="717" y="1047" type="line"/>
      <point x="492" y="1047" type="line"/>
    </contour>
  </outline>
</glyph>
<glyph name="uni01E4" format="2">
  <advance width="1116"/>
  <unicode hex="01E4"/>
  <anchor x="641" y="0" name="bottom"/>
  <anchor x="662" y="1462" name="top"/>
  <outline>
    <contour>
      <point x="623" y="-20" type="curve" smooth="yes"/>
      <point x="756" y="-20"/>
      <point x="885" y="4"/>
      <point x="1006" y="51" type="curve"/>
      <point x="1006" y="328" type="line"/>
      <point x="1106" y="328" type="line"/>
      <point x="1106" y="461" type="line"/>
      <point x="1006" y="461" type="line"/>
      <point x="1006" y="784" type="line"/>
      <point x="631" y="784" type="line"/>
      <point x="631" y="639" type="line"/>
      <point x="838" y="639" type="line"/>
      <point x="838" y="461" type="line"/>
      <point x="631" y="461" type="line"/>
      <point x="631" y="328" type="line"/>
      <point x="838" y="328" type="line"/>
      <point x="838" y="160" type="line"/>
      <point x="780" y="139"/>
      <point x="713" y="129"/>
      <point x="637" y="129" type="curve" smooth="yes"/>
      <point x="385" y="129"/>
      <point x="283" y="387"/>
      <point x="283" y="731" type="curve" smooth="yes"/>
      <point x="283" y="1120"/>
      <point x="414" y="1329"/>
      <point x="659" y="1329" type="curve" smooth="yes"/>
      <point x="750" y="1329"/>
      <point x="838" y="1300"/>
      <point x="928" y="1243" type="curve"/>
      <point x="989" y="1389" type="line"/>
      <point x="891" y="1450"/>
      <point x="778" y="1483"/>
      <point x="655" y="1483" type="curve" smooth="yes"/>
      <point x="283" y="1483"/>
      <point x="102" y="1171"/>
      <point x="102" y="735" type="curve" smooth="yes"/>
      <point x="102" y="303"/>
      <point x="264" y="-20"/>
    </contour>
  </outline>
</glyph>
<glyph name="uni01F6" format="2">
  <advance width="1616"/>
  <unicode hex="01F6"/>
  <anchor x="809" y="0" name="bottom"/>
  <anchor x="809" y="1462" name="top"/>
  <outline>
    <contour>
      <point x="150" y="0" type="line"/>
      <point x="322" y="0" type="line"/>
      <point x="322" y="686" type="line"/>
      <point x="772" y="686" type="line"/>
      <point x="772" y="383" type="line" smooth="yes"/>
      <point x="772" y="137"/>
      <point x="862" y="-20"/>
      <point x="1130" y="-20" type="curve" smooth="yes"/>
      <point x="1397" y="-20"/>
      <point x="1487" y="137"/>
      <point x="1487" y="383" type="curve" smooth="yes"/>
      <point x="1487" y="1100" type="line"/>
      <point x="1315" y="1100" type="line"/>
      <point x="1315" y="406" type="line" smooth="yes"/>
      <point x="1315" y="209"/>
      <point x="1257" y="129"/>
      <point x="1130" y="129" type="curve" smooth="yes"/>
      <point x="1001" y="129"/>
      <point x="944" y="209"/>
      <point x="944" y="406" type="curve" smooth="yes"/>
      <point x="944" y="1462" type="line"/>
      <point x="772" y="1462" type="line"/>
      <point x="772" y="842" type="line"/>
      <point x="322" y="842" type="line"/>
      <point x="322" y="1462" type="line"/>
      <point x="150" y="1462" type="line"/>
    </contour>
  </outline>
</glyph>
<glyph name="uni01F7" format="2">
  <advance width="1124"/>
  <unicode hex="01F7"/>
  <anchor x="563" y="-492" name="bottom"/>
  <anchor x="563" y="1462" name="top"/>
  <outline>
    <contour>
      <point x="616" y="1483" type="curve" smooth="yes"/>
      <point x="508" y="1483"/>
      <point x="403" y="1436"/>
      <point x="322" y="1309" type="curve"/>
      <point x="313" y="1309" type="line"/>
      <point x="291" y="1462" type="line"/>
      <point x="150" y="1462" type="line"/>
      <point x="150" y="-492" type="line"/>
      <point x="322" y="-492" type="line"/>
      <point x="322" y="-2" type="line"/>
      <point x="659" y="51"/>
      <point x="1034" y="375"/>
      <point x="1034" y="922" type="curve" smooth="yes"/>
      <point x="1034" y="1268"/>
      <point x="897" y="1483"/>
    </contour>
    <contour>
      <point x="582" y="1327" type="curve" smooth="yes"/>
      <point x="762" y="1327"/>
      <point x="854" y="1182"/>
      <point x="854" y="934" type="curve" smooth="yes"/>
      <point x="854" y="453"/>
      <point x="565" y="197"/>
      <point x="322" y="156" type="curve"/>
      <point x="322" y="1028" type="line" smooth="yes"/>
      <point x="322" y="1225"/>
      <point x="455" y="1325"/>
    </contour>
  </outline>
</glyph>
<glyph name="Aringacute" format="2">
  <advance width="922"/>
  <unicode hex="01FA"/>
  <anchor x="461" y="0" name="bottom"/>
  <anchor x="461" y="1964" name="top"/>
  <outline>
    <contour>
      <point x="0" y="0" type="line"/>
      <point x="186" y="0" type="line"/>
      <point x="279" y="383" type="line"/>
      <point x="641" y="383" type="line"/>
      <point x="737" y="0" type="line"/>
      <point x="922" y="0" type="line"/>
      <point x="573" y="1288" type="line"/>
      <point x="633" y="1313"/>
      <point x="672" y="1366"/>
      <point x="672" y="1446" type="curve" smooth="yes"/>
      <point x="672" y="1569"/>
      <point x="582" y="1649"/>
      <point x="457" y="1649" type="curve" smooth="yes"/>
      <point x="326" y="1649"/>
      <point x="242" y="1567"/>
      <point x="242" y="1442" type="curve" smooth="yes"/>
      <point x="242" y="1366"/>
      <point x="281" y="1313"/>
      <point x="340" y="1288" type="curve"/>
    </contour>
    <contour>
      <point x="311" y="541" type="line"/>
      <point x="434" y="1051" type="line"/>
      <point x="442" y="1098"/>
      <point x="453" y="1157"/>
      <point x="457" y="1200" type="curve"/>
      <point x="463" y="1159"/>
      <point x="475" y="1079"/>
      <point x="492" y="1001" type="curve"/>
      <point x="606" y="541" type="line"/>
    </contour>
    <contour>
      <point x="459" y="1337" type="curve" smooth="yes"/>
      <point x="385" y="1337"/>
      <point x="348" y="1378"/>
      <point x="348" y="1444" type="curve" smooth="yes"/>
      <point x="348" y="1505"/>
      <point x="393" y="1550"/>
      <point x="459" y="1550" type="curve" smooth="yes"/>
      <point x="526" y="1550"/>
      <point x="567" y="1505"/>
      <point x="567" y="1444" type="curve" smooth="yes"/>
      <point x="567" y="1378"/>
      <point x="522" y="1337"/>
    </contour>
    <contour>
      <point x="354" y="1700" type="line"/>
      <point x="471" y="1700" type="line"/>
      <point x="559" y="1772"/>
      <point x="690" y="1880"/>
      <point x="733" y="1950" type="curve"/>
      <point x="733" y="1964" type="line"/>
      <point x="528" y="1964" type="line"/>
      <point x="504" y="1909"/>
      <point x="469" y="1860"/>
      <point x="354" y="1720" type="curve"/>
    </contour>
  </outline>
</glyph>
<glyph name="uni021D" format="2">
  <advance width="766"/>
  <unicode hex="021D"/>
  <anchor x="342" y="-369" name="bottom"/>
  <anchor x="338" y="1098" name="top"/>
  <outline>
    <contour>
      <point x="37" y="-492" type="line"/>
      <point x="418" y="-387"/>
      <point x="694" y="-225"/>
      <point x="694" y="119" type="curve" smooth="yes"/>
      <point x="694" y="305"/>
      <point x="614" y="403"/>
      <point x="516" y="463" type="curve"/>
      <point x="614" y="539"/>
      <point x="668" y="639"/>
      <point x="668" y="778" type="curve" smooth="yes"/>
      <point x="668" y="1018"/>
      <point x="530" y="1120"/>
      <point x="344" y="1120" type="curve" smooth="yes"/>
      <point x="240" y="1120"/>
      <point x="141" y="1087"/>
      <point x="57" y="1038" type="curve"/>
      <point x="113" y="913" type="line"/>
      <point x="180" y="954"/>
      <point x="248" y="975"/>
      <point x="332" y="975" type="curve" smooth="yes"/>
      <point x="416" y="975"/>
      <point x="502" y="913"/>
      <point x="502" y="778" type="curve" smooth="yes"/>
      <point x="502" y="612"/>
      <point x="422" y="530"/>
      <point x="176" y="455" type="curve"/>
      <point x="215" y="324" type="line"/>
      <point x="281" y="344"/>
      <point x="340" y="365"/>
      <point x="393" y="389" type="curve"/>
      <point x="473" y="334"/>
      <point x="526" y="258"/>
      <point x="526" y="119" type="curve" smooth="yes"/>
      <point x="526" y="-111"/>
      <point x="369" y="-250"/>
      <point x="37" y="-344" type="curve"/>
    </contour>
  </outline>
</glyph>
<glyph name="uni0220" format="2">
  <advance width="1075"/>
  <unicode hex="0220"/>
  <anchor x="539" y="-492" name="bottom"/>
  <anchor x="539" y="1462" name="top"/>
  <outline>
    <contour>
      <point x="629" y="1483" type="curve" smooth="yes"/>
      <point x="528" y="1483"/>
      <point x="414" y="1436"/>
      <point x="322" y="1309" type="curve"/>
      <point x="313" y="1309" type="line"/>
      <point x="291" y="1462" type="line"/>
      <point x="150" y="1462" type="line"/>
      <point x="150" y="0" type="line"/>
      <point x="322" y="0" type="line"/>
      <point x="322" y="1042" type="line" smooth="yes"/>
      <point x="322" y="1241"/>
      <point x="485" y="1325"/>
      <point x="580" y="1327" type="curve" smooth="yes"/>
      <point x="713" y="1327"/>
      <point x="766" y="1251"/>
      <point x="766" y="1079" type="curve" smooth="yes"/>
      <point x="766" y="-492" type="line"/>
      <point x="938" y="-492" type="line"/>
      <point x="938" y="1110" type="line" smooth="yes"/>
      <point x="938" y="1370"/>
      <point x="831" y="1485"/>
    </contour>
  </outline>
</glyph>
<glyph name="uni0223" format="2">
  <advance width="924"/>
  <unicode hex="0223"/>
  <anchor x="463" y="0" name="bottom"/>
  <anchor x="463" y="1567" name="top"/>
  <outline>
    <contour>
      <point x="459" y="-20" type="curve" smooth="yes"/>
      <point x="719" y="-20"/>
      <point x="838" y="182"/>
      <point x="838" y="485" type="curve" smooth="yes"/>
      <point x="838" y="721"/>
      <point x="768" y="860"/>
      <point x="643" y="920" type="curve"/>
      <point x="735" y="969"/>
      <point x="784" y="1067"/>
      <point x="784" y="1231" type="curve" smooth="yes"/>
      <point x="784" y="1567" type="line"/>
      <point x="621" y="1567" type="line"/>
      <point x="621" y="1231" type="line" smooth="yes"/>
      <point x="621" y="1061"/>
      <point x="557" y="985"/>
      <point x="459" y="985" type="curve" smooth="yes"/>
      <point x="360" y="985"/>
      <point x="303" y="1055"/>
      <point x="303" y="1233" type="curve" smooth="yes"/>
      <point x="303" y="1567" type="line"/>
      <point x="139" y="1567" type="line"/>
      <point x="139" y="1237" type="line" smooth="yes"/>
      <point x="139" y="1059"/>
      <point x="186" y="963"/>
      <point x="272" y="915" type="curve"/>
      <point x="147" y="854"/>
      <point x="86" y="715"/>
      <point x="86" y="485" type="curve" smooth="yes"/>
      <point x="86" y="180"/>
      <point x="211" y="-20"/>
    </contour>
    <contour>
      <point x="463" y="125" type="curve" smooth="yes"/>
      <point x="319" y="125"/>
      <point x="256" y="250"/>
      <point x="256" y="487" type="curve" smooth="yes"/>
      <point x="256" y="731"/>
      <point x="317" y="848"/>
      <point x="463" y="848" type="curve" smooth="yes"/>
      <point x="604" y="848"/>
      <point x="670" y="729"/>
      <point x="670" y="489" type="curve" smooth="yes"/>
      <point x="670" y="246"/>
      <point x="604" y="125"/>
    </contour>
  </outline>
</glyph>
<glyph name="uni0236" format="2">
  <advance width="674"/>
  <unicode hex="0236"/>
  <anchor x="338" y="0" name="bottom"/>
  <anchor x="338" y="1348" name="top"/>
  <outline>
    <contour>
      <point x="147" y="-57" type="line"/>
      <point x="166" y="2"/>
      <point x="184" y="53"/>
      <point x="201" y="96" type="curve"/>
      <point x="238" y="20"/>
      <point x="299" y="-20"/>
      <point x="406" y="-20" type="curve" smooth="yes"/>
      <point x="547" y="-20"/>
      <point x="637" y="74"/>
      <point x="637" y="217" type="curve" smooth="yes"/>
      <point x="637" y="362"/>
      <point x="559" y="459"/>
      <point x="424" y="459" type="curve" smooth="yes"/>
      <point x="379" y="459"/>
      <point x="340" y="451"/>
      <point x="307" y="434" type="curve"/>
      <point x="307" y="961" type="line"/>
      <point x="492" y="961" type="line"/>
      <point x="492" y="1100" type="line"/>
      <point x="307" y="1100" type="line"/>
      <point x="307" y="1348" type="line"/>
      <point x="195" y="1348" type="line"/>
      <point x="150" y="1096" type="line"/>
      <point x="39" y="1051" type="line"/>
      <point x="39" y="961" type="line"/>
      <point x="141" y="961" type="line"/>
      <point x="141" y="362" type="line" smooth="yes"/>
      <point x="141" y="336"/>
      <point x="143" y="311"/>
      <point x="145" y="289" type="curve"/>
      <point x="100" y="215"/>
      <point x="59" y="117"/>
      <point x="14" y="-10" type="curve"/>
    </contour>
    <contour>
      <point x="410" y="106" type="curve" smooth="yes"/>
      <point x="340" y="106"/>
      <point x="311" y="156"/>
      <point x="307" y="283" type="curve"/>
      <point x="338" y="319"/>
      <point x="371" y="332"/>
      <point x="410" y="332" type="curve" smooth="yes"/>
      <point x="463" y="332"/>
      <point x="496" y="293"/>
      <point x="496" y="217" type="curve" smooth="yes"/>
      <point x="496" y="164"/>
      <point x="469" y="106"/>
    </contour>
  </outline>
</glyph>
<glyph name="uni0239" format="2">
  <advance width="1464"/>
  <unicode hex="0239"/>
  <anchor x="733" y="-457" name="bottom"/>
  <anchor x="733" y="1100" name="top"/>
  <outline>
    <contour>
      <point x="1010" y="1120" type="curve" smooth="yes"/>
      <point x="866" y="1120"/>
      <point x="778" y="1034"/>
      <point x="731" y="879" type="curve"/>
      <point x="684" y="1034"/>
      <point x="596" y="1120"/>
      <point x="455" y="1120" type="curve" smooth="yes"/>
      <point x="180" y="1120"/>
      <point x="86" y="866"/>
      <point x="86" y="547" type="curve" smooth="yes"/>
      <point x="86" y="178"/>
      <point x="199" y="-16"/>
      <point x="406" y="-16" type="curve" smooth="yes"/>
      <point x="508" y="-16"/>
      <point x="588" y="35"/>
      <point x="647" y="145" type="curve"/>
      <point x="655" y="145" type="line"/>
      <point x="651" y="84"/>
      <point x="649" y="31"/>
      <point x="649" y="-12" type="curve" smooth="yes"/>
      <point x="649" y="-457" type="line"/>
      <point x="815" y="-457" type="line"/>
      <point x="815" y="-8" type="line" smooth="yes"/>
      <point x="815" y="33"/>
      <point x="811" y="82"/>
      <point x="809" y="141" type="curve"/>
      <point x="817" y="141" type="line"/>
      <point x="870" y="37"/>
      <point x="961" y="-18"/>
      <point x="1061" y="-18" type="curve" smooth="yes"/>
      <point x="1266" y="-18"/>
      <point x="1378" y="182"/>
      <point x="1378" y="547" type="curve" smooth="yes"/>
      <point x="1378" y="872"/>
      <point x="1284" y="1120"/>
    </contour>
    <contour>
      <point x="442" y="977" type="curve" smooth="yes"/>
      <point x="586" y="977"/>
      <point x="649" y="842"/>
      <point x="649" y="551" type="curve" smooth="yes"/>
      <point x="649" y="301"/>
      <point x="612" y="129"/>
      <point x="446" y="129" type="curve" smooth="yes"/>
      <point x="315" y="129"/>
      <point x="256" y="268"/>
      <point x="256" y="547" type="curve" smooth="yes"/>
      <point x="256" y="840"/>
      <point x="317" y="977"/>
    </contour>
    <contour>
      <point x="1020" y="977" type="curve" smooth="yes"/>
      <point x="1149" y="977"/>
      <point x="1208" y="834"/>
      <point x="1208" y="551" type="curve" smooth="yes"/>
      <point x="1208" y="276"/>
      <point x="1153" y="129"/>
      <point x="1022" y="129" type="curve" smooth="yes"/>
      <point x="881" y="129"/>
      <point x="815" y="256"/>
      <point x="815" y="551" type="curve" smooth="yes"/>
      <point x="815" y="840"/>
      <point x="879" y="977"/>
    </contour>
  </outline>
</glyph>
<glyph name="uni0243" format="2">
  <advance width="977"/>
  <unicode hex="0243"/>
  <anchor x="489" y="0" name="bottom"/>
  <anchor x="489" y="1462" name="top"/>
  <outline>
    <contour>
      <point x="150" y="0" type="line"/>
      <point x="524" y="0" type="line" smooth="yes"/>
      <point x="762" y="0"/>
      <point x="897" y="166"/>
      <point x="897" y="420" type="curve" smooth="yes"/>
      <point x="897" y="616"/>
      <point x="821" y="727"/>
      <point x="657" y="766" type="curve"/>
      <point x="657" y="774" type="line"/>
      <point x="795" y="805"/>
      <point x="868" y="922"/>
      <point x="868" y="1110" type="curve" smooth="yes"/>
      <point x="868" y="1346"/>
      <point x="731" y="1462"/>
      <point x="473" y="1462" type="curve" smooth="yes"/>
      <point x="150" y="1462" type="line"/>
      <point x="150" y="485" type="line"/>
      <point x="18" y="485" type="line"/>
      <point x="18" y="371" type="line"/>
      <point x="150" y="371" type="line"/>
    </contour>
    <contour>
      <point x="322" y="150" type="line"/>
      <point x="322" y="371" type="line"/>
      <point x="532" y="371" type="line"/>
      <point x="532" y="485" type="line"/>
      <point x="322" y="485" type="line"/>
      <point x="322" y="696" type="line"/>
      <point x="485" y="696" type="line" smooth="yes"/>
      <point x="633" y="696"/>
      <point x="719" y="600"/>
      <point x="719" y="432" type="curve" smooth="yes"/>
      <point x="719" y="244"/>
      <point x="647" y="150"/>
      <point x="506" y="150" type="curve" smooth="yes"/>
    </contour>
    <contour>
      <point x="322" y="836" type="line"/>
      <point x="322" y="1315" type="line"/>
      <point x="471" y="1315" type="line" smooth="yes"/>
      <point x="616" y="1315"/>
      <point x="692" y="1237"/>
      <point x="692" y="1094" type="curve" smooth="yes"/>
      <point x="692" y="922"/>
      <point x="627" y="836"/>
      <point x="473" y="836" type="curve" smooth="yes"/>
    </contour>
  </outline>
</glyph>
<glyph name="uni0244" format="2">
  <advance width="1069"/>
  <unicode hex="0244"/>
  <anchor x="539" y="0" name="bottom"/>
  <anchor x="535" y="1462" name="top"/>
  <outline>
    <contour>
      <point x="12" y="733" type="line"/>
      <point x="1059" y="733" type="line"/>
      <point x="1059" y="866" type="line"/>
      <point x="12" y="866" type="line"/>
    </contour>
    <component base="U"/>
  </outline>
</glyph>
<glyph name="uni0247" format="2">
  <advance width="858"/>
  <unicode hex="0247"/>
  <anchor x="471" y="-428" name="bottom"/>
  <anchor x="434" y="1556" name="top"/>
  <outline>
    <contour>
      <point x="680" y="1556" type="line"/>
      <point x="592" y="1556" type="line"/>
      <point x="197" y="-428" type="line"/>
      <point x="285" y="-428" type="line"/>
    </contour>
    <component base="e"/>
  </outline>
</glyph>
<glyph name="uni0248" format="2">
  <advance width="459"/>
  <unicode hex="0248"/>
  <anchor x="229" y="-395" name="bottom"/>
  <anchor x="229" y="1462" name="top"/>
  <outline>
    <contour>
      <point x="33" y="-395" type="curve" smooth="yes"/>
      <point x="215" y="-395"/>
      <point x="315" y="-289"/>
      <point x="315" y="-2" type="curve" smooth="yes"/>
      <point x="315" y="655" type="line"/>
      <point x="444" y="655" type="line"/>
      <point x="444" y="791" type="line"/>
      <point x="315" y="791" type="line"/>
      <point x="315" y="1462" type="line"/>
      <point x="143" y="1462" type="line"/>
      <point x="143" y="791" type="line"/>
      <point x="16" y="791" type="line"/>
      <point x="16" y="655" type="line"/>
      <point x="143" y="655" type="line"/>
      <point x="143" y="12" type="line" smooth="yes"/>
      <point x="143" y="-172"/>
      <point x="104" y="-240"/>
      <point x="14" y="-240" type="curve" smooth="yes"/>
      <point x="-29" y="-240"/>
      <point x="-68" y="-231"/>
      <point x="-100" y="-219" type="curve"/>
      <point x="-100" y="-373" type="line"/>
      <point x="-61" y="-389"/>
      <point x="-16" y="-395"/>
    </contour>
  </outline>
</glyph>
<glyph name="uni0249" format="2">
  <advance width="432"/>
  <unicode hex="0249"/>
  <anchor x="217" y="-492" name="bottom"/>
  <anchor x="217" y="1513" name="top"/>
  <outline>
    <contour>
      <point x="74" y="-492" type="curve" smooth="yes"/>
      <point x="221" y="-489"/>
      <point x="299" y="-389"/>
      <point x="299" y="-168" type="curve" smooth="yes"/>
      <point x="299" y="494" type="line"/>
      <point x="426" y="494" type="line"/>
      <point x="426" y="623" type="line"/>
      <point x="299" y="623" type="line"/>
      <point x="299" y="1100" type="line"/>
      <point x="133" y="1100" type="line"/>
      <point x="133" y="623" type="line"/>
      <point x="6" y="623" type="line"/>
      <point x="6" y="494" type="line"/>
      <point x="133" y="494" type="line"/>
      <point x="133" y="-170" type="line" smooth="yes"/>
      <point x="133" y="-289"/>
      <point x="109" y="-342"/>
      <point x="45" y="-342" type="curve" smooth="yes"/>
      <point x="23" y="-342"/>
      <point x="-2" y="-336"/>
      <point x="-27" y="-326" type="curve"/>
      <point x="-27" y="-473" type="line"/>
      <point x="2" y="-485"/>
      <point x="35" y="-492"/>
    </contour>
    <contour>
      <point x="121" y="1395" type="curve" smooth="yes"/>
      <point x="121" y="1321"/>
      <point x="158" y="1278"/>
      <point x="219" y="1278" type="curve" smooth="yes"/>
      <point x="281" y="1278"/>
      <point x="313" y="1321"/>
      <point x="313" y="1395" type="curve" smooth="yes"/>
      <point x="313" y="1470"/>
      <point x="283" y="1513"/>
      <point x="219" y="1513" type="curve" smooth="yes"/>
      <point x="156" y="1513"/>
      <point x="121" y="1473"/>
    </contour>
  </outline>
</glyph>
<glyph name="uni024F" format="2">
  <advance width="758"/>
  <unicode hex="024F"/>
  <anchor x="152" y="-492" name="bottom"/>
  <anchor x="379" y="1100" name="top"/>
  <outline>
    <contour>
      <point x="748" y="741" type="line"/>
      <point x="10" y="741" type="line"/>
      <point x="10" y="633" type="line"/>
      <point x="748" y="633" type="line"/>
    </contour>
    <component base="y"/>
  </outline>
</glyph>
<glyph name="uni0253" format="2">
  <advance width="946"/>
  <unicode hex="0253"/>
  <anchor x="473" y="0" name="bottom"/>
  <anchor x="473" y="1567" name="top"/>
  <outline>
    <contour>
      <point x="379" y="1567" type="curve" smooth="yes"/>
      <point x="227" y="1567"/>
      <point x="133" y="1462"/>
      <point x="133" y="1278" type="curve" smooth="yes"/>
      <point x="133" y="0" type="line"/>
      <point x="268" y="0" type="line"/>
      <point x="291" y="139" type="line"/>
      <point x="301" y="139" type="line"/>
      <point x="362" y="29"/>
      <point x="442" y="-20"/>
      <point x="547" y="-20" type="curve" smooth="yes"/>
      <point x="750" y="-20"/>
      <point x="862" y="184"/>
      <point x="862" y="551" type="curve" smooth="yes"/>
      <point x="862" y="922"/>
      <point x="750" y="1118"/>
      <point x="541" y="1118" type="curve" smooth="yes"/>
      <point x="440" y="1118"/>
      <point x="360" y="1065"/>
      <point x="301" y="954" type="curve"/>
      <point x="293" y="954" type="line"/>
      <point x="295" y="1006"/>
      <point x="299" y="1053"/>
      <point x="299" y="1096" type="curve" smooth="yes"/>
      <point x="299" y="1272" type="line" smooth="yes"/>
      <point x="299" y="1384"/>
      <point x="328" y="1417"/>
      <point x="403" y="1417" type="curve" smooth="yes"/>
      <point x="428" y="1417"/>
      <point x="459" y="1411"/>
      <point x="485" y="1401" type="curve"/>
      <point x="485" y="1548" type="line"/>
      <point x="463" y="1559"/>
      <point x="418" y="1567"/>
    </contour>
    <contour>
      <point x="504" y="973" type="curve" smooth="yes"/>
      <point x="635" y="973"/>
      <point x="692" y="831"/>
      <point x="692" y="553" type="curve" smooth="yes"/>
      <point x="692" y="258"/>
      <point x="631" y="123"/>
      <point x="506" y="123" type="curve" smooth="yes"/>
      <point x="360" y="123"/>
      <point x="299" y="258"/>
      <point x="299" y="549" type="curve" smooth="yes"/>
      <point x="299" y="799"/>
      <point x="338" y="973"/>
    </contour>
  </outline>
</glyph>
<glyph name="uni0255" format="2">
  <advance width="733"/>
  <unicode hex="0255"/>
  <anchor x="367" y="0" name="bottom"/>
  <anchor x="367" y="1100" name="top"/>
  <outline>
    <contour>
      <point x="457" y="1120" type="curve" smooth="yes"/>
      <point x="207" y="1120"/>
      <point x="88" y="903"/>
      <point x="88" y="543" type="curve" smooth="yes"/>
      <point x="88" y="391"/>
      <point x="106" y="270"/>
      <point x="147" y="180" type="curve"/>
      <point x="123" y="125"/>
      <point x="98" y="61"/>
      <point x="72" y="-10" type="curve"/>
      <point x="205" y="-57" type="line"/>
      <point x="217" y="-16"/>
      <point x="231" y="20"/>
      <point x="242" y="53" type="curve"/>
      <point x="297" y="4"/>
      <point x="367" y="-20"/>
      <point x="453" y="-20" type="curve" smooth="yes"/>
      <point x="604" y="-20"/>
      <point x="694" y="74"/>
      <point x="694" y="217" type="curve" smooth="yes"/>
      <point x="694" y="362"/>
      <point x="616" y="459"/>
      <point x="481" y="459" type="curve" smooth="yes"/>
      <point x="391" y="459"/>
      <point x="330" y="426"/>
      <point x="274" y="356" type="curve"/>
      <point x="262" y="408"/>
      <point x="256" y="471"/>
      <point x="256" y="545" type="curve" smooth="yes"/>
      <point x="256" y="827"/>
      <point x="330" y="973"/>
      <point x="469" y="973" type="curve" smooth="yes"/>
      <point x="514" y="973"/>
      <point x="563" y="958"/>
      <point x="614" y="932" type="curve"/>
      <point x="668" y="1069" type="line"/>
      <point x="608" y="1102"/>
      <point x="541" y="1120"/>
    </contour>
    <contour>
      <point x="469" y="332" type="curve" smooth="yes"/>
      <point x="522" y="332"/>
      <point x="555" y="293"/>
      <point x="555" y="217" type="curve" smooth="yes"/>
      <point x="555" y="164"/>
      <point x="528" y="106"/>
      <point x="469" y="106" type="curve" smooth="yes"/>
      <point x="401" y="106"/>
      <point x="350" y="139"/>
      <point x="315" y="205" type="curve"/>
      <point x="365" y="301"/>
      <point x="410" y="332"/>
    </contour>
  </outline>
</glyph>
<glyph name="uni0257" format="2">
  <advance width="946"/>
  <unicode hex="0257"/>
  <anchor x="473" y="0" name="bottom"/>
  <anchor x="473" y="1573" name="top"/>
  <outline>
    <contour>
      <point x="408" y="-20" type="curve" smooth="yes"/>
      <point x="514" y="-20"/>
      <point x="590" y="35"/>
      <point x="649" y="139" type="curve"/>
      <point x="659" y="139" type="line"/>
      <point x="682" y="0" type="line"/>
      <point x="815" y="0" type="line"/>
      <point x="815" y="1278" type="line" smooth="yes"/>
      <point x="815" y="1393"/>
      <point x="844" y="1425"/>
      <point x="920" y="1425" type="curve" smooth="yes"/>
      <point x="944" y="1425"/>
      <point x="975" y="1419"/>
      <point x="1001" y="1407" type="curve"/>
      <point x="1001" y="1554" type="line"/>
      <point x="979" y="1565"/>
      <point x="934" y="1573"/>
      <point x="895" y="1573" type="curve" smooth="yes"/>
      <point x="743" y="1573"/>
      <point x="649" y="1470"/>
      <point x="649" y="1284" type="curve" smooth="yes"/>
      <point x="649" y="1092" type="line" smooth="yes"/>
      <point x="649" y="1051"/>
      <point x="651" y="1004"/>
      <point x="655" y="958" type="curve"/>
      <point x="647" y="958" type="line"/>
      <point x="592" y="1063"/>
      <point x="502" y="1120"/>
      <point x="401" y="1120" type="curve" smooth="yes"/>
      <point x="199" y="1120"/>
      <point x="86" y="915"/>
      <point x="86" y="549" type="curve" smooth="yes"/>
      <point x="86" y="178"/>
      <point x="197" y="-20"/>
    </contour>
    <contour>
      <point x="446" y="121" type="curve" smooth="yes"/>
      <point x="315" y="121"/>
      <point x="256" y="266"/>
      <point x="256" y="549" type="curve" smooth="yes"/>
      <point x="256" y="823"/>
      <point x="313" y="973"/>
      <point x="442" y="973" type="curve" smooth="yes"/>
      <point x="586" y="973"/>
      <point x="649" y="844"/>
      <point x="649" y="561" type="curve" smooth="yes"/>
      <point x="649" y="500" type="line" smooth="yes"/>
      <point x="649" y="246"/>
      <point x="580" y="121"/>
    </contour>
  </outline>
</glyph>
<glyph name="uni0259" format="2">
  <advance width="856"/>
  <unicode hex="0259"/>
  <anchor x="428" y="0" name="bottom"/>
  <anchor x="418" y="1100" name="top"/>
  <outline>
    <contour>
      <point x="381" y="1118" type="curve" smooth="yes"/>
      <point x="287" y="1118"/>
      <point x="203" y="1096"/>
      <point x="125" y="1049" type="curve"/>
      <point x="125" y="903" type="line"/>
      <point x="207" y="954"/>
      <point x="285" y="977"/>
      <point x="362" y="977" type="curve" smooth="yes"/>
      <point x="524" y="977"/>
      <point x="602" y="848"/>
      <point x="606" y="580" type="curve"/>
      <point x="84" y="580" type="line"/>
      <point x="84" y="467" type="line" smooth="yes"/>
      <point x="84" y="195"/>
      <point x="195" y="-20"/>
      <point x="418" y="-20" type="curve" smooth="yes"/>
      <point x="649" y="-20"/>
      <point x="770" y="182"/>
      <point x="770" y="557" type="curve" smooth="yes"/>
      <point x="770" y="877"/>
      <point x="662" y="1118"/>
    </contour>
    <contour>
      <point x="606" y="451" type="line"/>
      <point x="596" y="223"/>
      <point x="530" y="115"/>
      <point x="418" y="115" type="curve" smooth="yes"/>
      <point x="297" y="115"/>
      <point x="242" y="270"/>
      <point x="242" y="451" type="curve"/>
    </contour>
  </outline>
</glyph>
<glyph name="schwahook" format="2">
  <advance width="1159"/>
  <unicode hex="025A"/>
  <anchor x="399" y="0" name="bottom"/>
  <anchor x="399" y="1100" name="top"/>
  <outline>
    <contour>
      <point x="418" y="-20" type="curve" smooth="yes"/>
      <point x="688" y="-20"/>
      <point x="766" y="246"/>
      <point x="768" y="606" type="curve"/>
      <point x="819" y="625" type="line"/>
      <point x="854" y="453"/>
      <point x="905" y="377"/>
      <point x="1010" y="377" type="curve" smooth="yes"/>
      <point x="1067" y="377"/>
      <point x="1118" y="403"/>
      <point x="1159" y="436" type="curve"/>
      <point x="1114" y="528" type="line"/>
      <point x="1087" y="508"/>
      <point x="1061" y="494"/>
      <point x="1022" y="494" type="curve" smooth="yes"/>
      <point x="969" y="494"/>
      <point x="948" y="543"/>
      <point x="922" y="678" type="curve" smooth="yes"/>
      <point x="901" y="780" type="line"/>
      <point x="758" y="731" type="line"/>
      <point x="729" y="961"/>
      <point x="608" y="1118"/>
      <point x="381" y="1118" type="curve" smooth="yes"/>
      <point x="287" y="1118"/>
      <point x="203" y="1096"/>
      <point x="125" y="1049" type="curve"/>
      <point x="125" y="903" type="line"/>
      <point x="207" y="954"/>
      <point x="285" y="977"/>
      <point x="362" y="977" type="curve" smooth="yes"/>
      <point x="506" y="977"/>
      <point x="586" y="881"/>
      <point x="600" y="680" type="curve"/>
      <point x="84" y="498" type="line"/>
      <point x="84" y="162"/>
      <point x="205" y="-20"/>
    </contour>
    <contour>
      <point x="418" y="115" type="curve" smooth="yes"/>
      <point x="301" y="115"/>
      <point x="248" y="262"/>
      <point x="244" y="426" type="curve"/>
      <point x="606" y="555" type="line"/>
      <point x="606" y="356"/>
      <point x="584" y="115"/>
    </contour>
  </outline>
</glyph>
<glyph name="uni025E" format="2">
  <advance width="930"/>
  <unicode hex="025E"/>
  <anchor x="465" y="0" name="bottom"/>
  <anchor x="465" y="1100" name="top"/>
  <outline>
    <contour>
      <point x="494" y="1120" type="curve" smooth="yes"/>
      <point x="225" y="1120"/>
      <point x="86" y="926"/>
      <point x="86" y="547" type="curve" smooth="yes"/>
      <point x="86" y="182"/>
      <point x="215" y="-20"/>
      <point x="489" y="-20" type="curve" smooth="yes"/>
      <point x="715" y="-20"/>
      <point x="854" y="113"/>
      <point x="854" y="305" type="curve" smooth="yes"/>
      <point x="854" y="451"/>
      <point x="778" y="545"/>
      <point x="653" y="580" type="curve"/>
      <point x="653" y="588" type="line"/>
      <point x="756" y="627"/>
      <point x="813" y="715"/>
      <point x="813" y="840" type="curve" smooth="yes"/>
      <point x="813" y="1008"/>
      <point x="698" y="1120"/>
    </contour>
    <contour>
      <point x="489" y="977" type="curve" smooth="yes"/>
      <point x="598" y="977"/>
      <point x="653" y="913"/>
      <point x="653" y="821" type="curve" smooth="yes"/>
      <point x="653" y="705"/>
      <point x="588" y="643"/>
      <point x="487" y="643" type="curve" smooth="yes"/>
      <point x="440" y="643" type="line"/>
      <point x="440" y="510" type="line"/>
      <point x="502" y="510" type="line" smooth="yes"/>
      <point x="621" y="510"/>
      <point x="684" y="440"/>
      <point x="684" y="311" type="curve" smooth="yes"/>
      <point x="684" y="190"/>
      <point x="598" y="125"/>
      <point x="498" y="125" type="curve" smooth="yes"/>
      <point x="328" y="125"/>
      <point x="256" y="270"/>
      <point x="256" y="545" type="curve" smooth="yes"/>
      <point x="256" y="834"/>
      <point x="332" y="977"/>
    </contour>
  </outline>
</glyph>
<glyph name="uni025F" format="2">
  <advance width="432"/>
  <unicode hex="025F"/>
  <anchor x="217" y="-492" name="bottom"/>
  <anchor x="217" y="1100" name="top"/>
  <anchor x="338" y="1096" name="topright"/>
  <outline>
    <contour>
      <point x="74" y="-492" type="curve" smooth="yes"/>
      <point x="221" y="-489"/>
      <point x="299" y="-389"/>
      <point x="299" y="-168" type="curve" smooth="yes"/>
      <point x="299" y="522" type="line"/>
      <point x="426" y="522" type="line"/>
      <point x="426" y="649" type="line"/>
      <point x="299" y="649" type="line"/>
      <point x="299" y="1100" type="line"/>
      <point x="133" y="1100" type="line"/>
      <point x="133" y="649" type="line"/>
      <point x="6" y="649" type="line"/>
      <point x="6" y="522" type="line"/>
      <point x="133" y="522" type="line"/>
      <point x="133" y="-170" type="line" smooth="yes"/>
      <point x="133" y="-289"/>
      <point x="109" y="-342"/>
      <point x="45" y="-342" type="curve" smooth="yes"/>
      <point x="23" y="-342"/>
      <point x="-2" y="-336"/>
      <point x="-27" y="-326" type="curve"/>
      <point x="-27" y="-473" type="line"/>
      <point x="2" y="-485"/>
      <point x="35" y="-492"/>
    </contour>
  </outline>
</glyph>
<glyph name="uni0260" format="2">
  <advance width="946"/>
  <unicode hex="0260"/>
  <anchor x="473" y="-492" name="bottom"/>
  <anchor x="473" y="1573" name="top"/>
  <outline>
    <contour>
      <point x="895" y="1573" type="curve" smooth="yes"/>
      <point x="743" y="1573"/>
      <point x="649" y="1470"/>
      <point x="649" y="1284" type="curve" smooth="yes"/>
      <point x="649" y="1085" type="line" smooth="yes"/>
      <point x="649" y="1044"/>
      <point x="651" y="999"/>
      <point x="655" y="954" type="curve"/>
      <point x="647" y="954" type="line"/>
      <point x="588" y="1071"/>
      <point x="512" y="1120"/>
      <point x="408" y="1120" type="curve" smooth="yes"/>
      <point x="207" y="1120"/>
      <point x="86" y="926"/>
      <point x="86" y="545" type="curve" smooth="yes"/>
      <point x="86" y="174"/>
      <point x="201" y="-20"/>
      <point x="401" y="-20" type="curve" smooth="yes"/>
      <point x="512" y="-20"/>
      <point x="590" y="37"/>
      <point x="649" y="154" type="curve"/>
      <point x="657" y="154" type="line"/>
      <point x="651" y="88"/>
      <point x="649" y="27"/>
      <point x="649" y="-18" type="curve" smooth="yes"/>
      <point x="649" y="-51" type="line" smooth="yes"/>
      <point x="649" y="-264"/>
      <point x="563" y="-344"/>
      <point x="395" y="-344" type="curve" smooth="yes"/>
      <point x="313" y="-344"/>
      <point x="231" y="-319"/>
      <point x="139" y="-270" type="curve"/>
      <point x="139" y="-428" type="line"/>
      <point x="219" y="-471"/>
      <point x="299" y="-492"/>
      <point x="399" y="-492" type="curve" smooth="yes"/>
      <point x="690" y="-492"/>
      <point x="815" y="-317"/>
      <point x="815" y="-12" type="curve" smooth="yes"/>
      <point x="815" y="1278" type="line" smooth="yes"/>
      <point x="815" y="1393"/>
      <point x="844" y="1425"/>
      <point x="920" y="1425" type="curve" smooth="yes"/>
      <point x="944" y="1425"/>
      <point x="975" y="1419"/>
      <point x="1001" y="1407" type="curve"/>
      <point x="1001" y="1554" type="line"/>
      <point x="979" y="1565"/>
      <point x="934" y="1573"/>
    </contour>
    <contour>
      <point x="442" y="973" type="curve" smooth="yes"/>
      <point x="586" y="973"/>
      <point x="649" y="844"/>
      <point x="649" y="553" type="curve" smooth="yes"/>
      <point x="649" y="502" type="line" smooth="yes"/>
      <point x="649" y="252"/>
      <point x="580" y="125"/>
      <point x="449" y="125" type="curve" smooth="yes"/>
      <point x="317" y="125"/>
      <point x="256" y="252"/>
      <point x="256" y="543" type="curve" smooth="yes"/>
      <point x="256" y="823"/>
      <point x="313" y="973"/>
    </contour>
  </outline>
</glyph>
